<svg xmlns="http://www.w3.org/2000/svg" width="360" height="64" viewBox="0 0 360 64">
  <path fill="#FFF" d="M337.576995,22.2112437 C347.821666,22.5354792 352.210172,28.5448014 351.54551,36.9667564 L350.14928,55.9591639 C346.17415,55.6654097 342.205895,55.4582945 338.244515,55.3378182 L338.859119,37.5474335 C338.979337,33.9443189 336.904156,31.919374 333.178941,31.8567073 C328.982432,31.8072625 326.27782,33.9383059 326.327546,37.6115752 L326.527018,55.242608 C322.609011,55.2869352 318.70435,55.4141646 314.813035,55.6242964 C314.241175,44.8140068 313.66608,34.0055855 313.087748,23.1990325 C317.082882,22.9893654 321.095967,22.855628 325.127002,22.7978203 L325.585268,26.4164345 C328.402057,23.5604825 332.728039,22.0854501 337.576995,22.2112437 Z M64.5743434,12.0759427 C64.6766538,16.5906441 64.7720351,21.102546 64.8604874,25.6116483 C67.9807379,22.9833523 71.9815037,21.6359283 76.0560361,21.8410825 C86.0866155,22.0611137 90.370704,28.0356498 89.8149112,36.4434809 L88.6520147,55.4509146 C84.800464,55.2085863 80.9340415,55.0529408 77.0527472,54.983978 C77.1870558,49.0656949 77.3061763,43.1251553 77.4101087,37.1623591 C77.4850241,33.5655739 75.472858,31.5435884 71.7801173,31.5266258 C67.6668072,31.533185 65.0283512,33.6348058 65.0945371,37.3611407 L65.4767923,54.9979771 C61.6186661,55.0512165 57.7476632,55.216125 53.8637835,55.4927027 C52.9556998,41.22211 52.0531453,26.9577814 51.1561201,12.6997168 C55.6346695,12.4175677 60.0900182,12.2227663 64.5743434,12.0759427 Z M47.8407845,26.5136037 C47.5034618,32.6355131 43.7899589,36.9376237 37.7513683,38.81005 C41.4972516,43.7858954 45.0473034,48.816949 48.4015235,53.903211 L48.3361399,55.1598599 C43.8119644,54.8950011 39.2729406,54.7380656 34.7190685,54.6890532 C31.0952237,49.5765632 27.2670727,44.548906 23.2346157,39.6060816 L23.6592216,54.7885821 C19.518824,54.9351428 15.3437957,55.1566319 11.1341368,55.4530496 L8,12.7017426 C14.8607465,12.1928082 21.6912959,11.9080606 28.4916482,11.8474997 C41.1588388,11.7440044 48.3817381,17.7521926 47.8407845,26.5136037 Z M195.769435,38.691632 C195.164105,48.5674803 186.980939,55.1364328 176.253145,55.3157898 C165.52535,55.4951469 157.117988,49.1728104 156.187573,39.3418014 C155.257158,29.4771629 163.417905,21.5966619 175.692654,21.406095 C187.967403,21.2155281 196.374765,28.8157837 195.769435,38.691632 Z M137.586263,21.3996846 C147.550196,21.6996033 151.727113,27.7063179 151.076967,36.1059736 L149.708149,55.1014548 C145.897624,54.8279525 142.073473,54.6317268 138.259722,54.5056314 L138.804658,36.6966589 C138.928834,33.0874585 136.964865,31.0565113 133.319959,31.005719 C129.254912,30.9491408 126.614232,33.0787838 126.618638,36.733422 C126.688723,42.6192769 126.748418,48.4995054 126.797722,54.3741074 C122.994602,54.4244219 119.180451,54.5372937 115.355269,54.7127227 C114.800505,43.9151215 114.254397,33.1114583 113.716947,22.3017332 C117.629574,22.1037806 121.544592,21.9783404 125.462,21.9254125 C125.621915,23.1487981 125.78183,24.3721837 125.952784,25.5975159 C128.73103,22.7522511 132.906257,21.2802034 137.586263,21.3996846 Z M309.140715,22.5914606 L308.430102,55.0324651 C304.553386,54.9424308 300.677864,54.9377595 296.803536,55.0184514 C296.602205,44.2035525 296.392528,33.3882798 296.174504,22.5726331 C300.47906,22.4844511 304.814411,22.4929946 309.140715,22.5914606 Z M249.87248,28.2863827 C245.403142,28.1273675 240.932576,28.0599481 236.460782,28.0841245 C234.821177,23.9377572 230.297582,21.3454883 224.81771,21.5884543 C217.594048,21.9077273 212.822087,27.0263057 213.437588,33.5414679 C214.053088,40.0566301 219.198905,44.2637346 225.835394,43.9786592 C231.031613,43.7451511 235.250497,40.8923895 236.756141,36.4772366 C241.081423,36.4434738 245.406903,36.5086428 249.732581,36.6727434 C247.213273,47.6228257 237.966968,54.4561809 226.055094,54.9787332 C212.711507,55.5968683 201.921917,47.7933355 200.11168,34.9555405 C198.292269,22.1880465 208.226556,11.3154485 224.037431,10.5831494 C237.849288,9.96534888 248.211892,17.4521925 249.87248,28.2863827 Z M273.643464,20.9415993 C286.033762,21.5326003 294.089799,29.72588 292.827039,39.522519 C291.56428,49.3191579 282.85011,55.3445841 272.010944,54.8253794 C261.171777,54.3061748 253.154916,47.4718183 252.852814,37.5954565 C252.526156,27.7140695 261.253166,20.3505984 273.643464,20.9415993 Z M107.897044,22.298665 C107.628061,33.1056632 107.359077,43.9126614 107.090094,54.7196597 C103.242759,54.6348976 99.4163956,54.6261184 95.6110036,54.693322 L95.0860688,22.2402622 C99.3575017,22.1745293 103.627827,22.1939969 107.897044,22.298665 Z M175.883221,31.2483139 C171.298406,31.3267826 168.036349,34.4206919 168.249336,38.5795339 C168.462322,42.7383758 171.825267,45.5296201 176.096207,45.4511514 C180.367147,45.3726826 183.662833,42.4917598 183.730092,38.3217081 C183.786141,34.1628662 180.468036,31.1698452 175.883221,31.2483139 Z M264.996917,37.6141361 C264.928245,41.7756131 268.163206,44.7965686 272.484408,44.9849158 C276.80561,45.173263 280.320454,42.5254906 280.655575,38.3622505 C280.98567,34.2235675 277.823394,30.9974519 273.159171,30.7849643 C268.494949,30.5724767 265.065589,33.4526592 264.996917,37.6141361 Z M28.2208796,22.3828998 C26.3715333,22.4024736 24.5128456,22.4382274 22.6448162,22.4901612 C22.7441617,25.5764099 22.8337991,28.6570537 22.9137285,31.7320925 C24.7112989,31.6826259 26.5162083,31.6503404 28.3284568,31.6352361 C31.9924205,31.5889817 34.1600682,30.0316297 34.1998706,27.0257181 C34.239673,24.0198064 32.0252606,22.3400514 28.2208796,22.3828998 Z M302.628926,8.32402638 C307.173722,8.36202559 310.255258,10.818487 310.144779,14.1807568 C310.0343,17.5430266 306.879628,19.8556068 302.604599,19.8447474 C298.32957,19.833888 295.192344,17.500387 295.102497,14.1291429 C295.017209,10.7681394 298.08413,8.28602717 302.628926,8.32402638 Z M101.548269,8.0003077 C106.052117,8.03231614 108.995381,10.4972412 108.947506,13.8770289 C108.899632,17.2568167 105.717806,19.5280503 101.501887,19.5086346 C97.2859672,19.4892189 94.1393177,17.1642206 94.0532121,13.8043224 C93.9809719,10.4367385 97.0444272,7.96830081 101.548269,8.0003077 Z"/>
</svg>
