<svg xmlns="http://www.w3.org/2000/svg" width="1904" height="512" viewBox="0 0 1904 512" style="background:#264653">
  <g fill="none" fill-rule="evenodd">
    <rect width="1904" height="512" fill="#264653"/>
    <path fill="#FFF" stroke="#13242A" stroke-width="16" d="M454.263837,41.1764817 L392.760942,390.974198 L256.972006,470.738328 L119.23397,390.945259 L57.7361627,41.1764817 L256,64.0530784 L454.263837,41.1764817 Z"/>
    <path fill="#264653" d="M374.368421,62 C381.701754,81.3333333 382.701754,97.3333333 377.368421,110 C372.035088,122.666667 360.368421,130.666667 342.368421,134 C350.650591,148.335899 354.983924,159.669233 355.368421,168 C355.752918,176.330767 352.419585,186.664101 345.368421,199 C354.035088,211.666667 358.368421,222.333333 358.368421,231 C358.368421,244 346.368421,247 346.368421,261 C346.368421,275 349.978379,278.817431 349.368421,290 C348.961782,297.455046 346.628449,304.788379 342.368421,312 L346.368421,323 C346.890085,331.294019 339.796812,343.801363 325.088603,360.522034 C324.578807,366.265423 321.67205,373.75787 316.368421,383 C323.527918,396.219237 323.527918,406.885904 316.368421,415 C309.208925,423.114096 289.208925,435.114096 256.368421,451 C224.242327,435.635897 204.242327,423.635897 196.368421,415 C188.494515,406.364103 187.827849,395.697437 194.368421,383 C191.194833,375.066029 189.437572,368.194304 189.096639,362.384825 C171.699087,343.56914 164.123022,330.440847 166.368421,323 L169.368421,311 C164.395802,302.224998 161.729135,294.891665 161.368421,289 C160.82735,280.162503 165.368421,272 165.368421,261 C165.368421,256.547619 163.402435,253.405896 161.128288,250.182256 L160.724106,249.612245 C160.656322,249.517007 160.588355,249.421627 160.520249,249.32607 L160.110267,248.750319 C157.02786,244.41199 153.832707,239.571429 154.368421,231 C154.913893,222.272456 159.247226,211.605789 167.368421,199 C160.701754,187.666667 157.368421,177.333333 157.368421,168 C157.368421,158.666667 161.701754,147.333333 170.368421,134 C152.368421,129.333333 140.701754,121.333333 135.368421,110 C130.035088,98.6666667 131.035088,82.6666667 138.368421,62 C152.717394,75.7013461 164.38406,85.3680128 173.368421,91 C182.352782,96.6319872 193.019448,100.965321 205.368421,104 C228.479532,97.3333333 245.812865,94 257.368421,94 C268.923977,94 285.590643,97.3333333 307.368421,104 C321.183253,100.046424 331.84992,95.7130905 339.368421,91 C346.886923,86.2869095 358.553589,76.6202428 374.368421,62 Z M289.368421,321 C286.035088,337 275.368421,345 257.368421,345 C239.368421,345 228.035088,337 223.368421,321 C207.863692,338.257022 199.197025,350.257022 197.368421,357 C195.539817,363.742978 199.206484,371.742978 208.368421,381 C208.018216,385.448702 208.018216,388.782035 208.368421,391 C208.718626,393.217965 209.718626,396.217965 211.368421,400 C209.182706,399.491904 207.51604,398.491904 206.368421,397 C205.220802,395.508096 203.887469,392.174762 202.368421,387 C199.651979,393.655651 198.985312,398.988984 200.368421,403 C201.75153,407.011016 205.75153,411.344349 212.368421,416 L212.368421,416 L257.368421,438 L301.368421,416 C307.638497,410.759384 311.305164,406.426051 312.368421,403 C313.431678,399.573949 312.765012,394.240616 310.368421,387 C308.856633,392.165325 307.523299,395.498658 306.368421,397 C305.213543,398.501342 303.546876,399.501342 301.368421,400 C302.99013,395.60308 303.99013,392.269747 304.368421,390 C304.746712,387.730253 304.746712,385.063587 304.368421,382 C313.745181,372.425225 317.411847,364.091892 315.368421,357 C313.324995,349.908108 304.658328,337.908108 289.368421,321 Z M236.368421,389 C245.368421,396 245.824989,403.82627 246.368421,406 C246.911854,408.17373 239.368421,411 231.368421,406 C223.368421,401 225.728048,392.472929 224.368421,391 C223.462003,390.018047 221.795337,390.684714 219.368421,393 C217.368421,388.333333 217.701754,385.333333 220.368421,384 C224.368421,382 227.368421,382 236.368421,389 Z M276.396106,389 C285.396106,382 288.396106,382 292.396106,384 C295.062773,385.333333 295.396106,388.333333 293.396106,393 C290.969191,390.684714 289.302524,390.018047 288.396106,391 C287.03648,392.472929 289.396106,401 281.396106,406 C273.396106,411 265.852674,408.17373 266.396106,406 C266.418137,405.911876 266.440026,405.814461 266.462346,405.708189 L266.53118,405.363227 C267.069743,402.562577 268.125836,395.432432 276.396106,389 Z M217.535088,368 C224.201754,367.333333 231.201754,373.333333 238.535088,386 C229.868421,379.333333 223.535088,376 219.535088,376 C215.535088,376 213.201754,379.666667 212.535088,387 C209.201754,375 210.868421,368.666667 217.535088,368 Z M295.368421,368 C302.035088,368.666667 303.701754,375 300.368421,387 C299.701754,379.666667 297.368421,376 293.368421,376 C289.368421,376 283.035088,379.333333 274.368421,386 C281.701754,373.333333 288.701754,367.333333 295.368421,368 Z M290.368421,330 C291.535364,339.458126 289.535364,346.124793 284.368421,350 C279.201478,353.875207 271.868144,354.208541 262.368421,351 C271.065544,349.477158 277.065544,347.477158 280.368421,345 C283.671298,342.522842 287.004631,337.522842 290.368421,330 Z M222.690914,330 C226.054704,337.522842 229.388037,342.522842 232.690914,345 C235.993791,347.477158 241.993791,349.477158 250.690914,351 C241.191191,354.208541 233.857858,353.875207 228.690914,350 C223.523971,346.124793 221.523971,339.458126 222.690914,330 Z M144.368421,82 C142.942465,87.2479263 136.614932,104.831508 155.368421,119 C157.64463,120.719704 163.16258,122.411344 169.025896,124.132513 L170.063594,124.436567 C174.050661,125.603372 178.117805,126.78524 181.368421,128 C185.916333,129.699562 186.900722,133.566908 188.368421,134 C189.533388,134.343761 178.368421,133 176.368421,142 C176.068421,143.35 175.700921,144.61 175.299671,145.8475 L175.137451,146.34146 C174.864351,147.16326 174.578251,147.97906 174.289151,148.80886 L174.115411,149.30858 L174.115411,149.30858 L173.941431,149.81262 C171.941121,155.6376 169.988421,162.51 171.368421,177 C173.368421,198 181.368421,199 181.368421,203 C181.368421,205.137476 174.252506,211.939837 171.368421,218 C167.356834,226.429318 168.213853,233.667968 168.368421,237 C168.400874,237.69958 172.607622,245.692833 174.368421,245 C175.072113,244.723114 176.114915,242.061577 177.302683,239.294261 L177.550432,238.720951 C178.133045,237.383194 178.746322,236.057412 179.368421,235 C180.039102,233.860011 181.039102,233.193344 182.368421,233 C177.701754,247.603629 175.368421,262.603629 175.368421,278 C175.368421,296 180.035088,310.333333 189.368421,321 L179.368421,317 L179.368421,331 L192.368421,344 L204.368421,327 C198.201082,324.954838 194.201082,322.954838 192.368421,321 C190.53576,319.045162 189.53576,315.045162 189.368421,309 C192.744762,313.277613 195.078096,315.944279 196.368421,317 C197.658746,318.055721 199.325413,318.722387 201.368421,319 C196.384494,314.161116 193.384494,310.161116 192.368421,307 C191.352348,303.838884 191.352348,297.838884 192.368421,289 L189.368421,285 C188.124954,285.76112 187.124954,287.427787 186.368421,290 C185.611888,292.572213 184.945221,296.572213 184.368421,302 C183.087996,293.98096 182.754663,288.314293 183.368421,285 C183.982179,281.685707 185.648846,278.01904 188.368421,274 C195.245366,276.758517 200.5787,280.09185 204.368421,284 C208.158142,287.90815 213.491476,295.574817 220.368421,307 L226.368421,305 L228.368421,285 C211.701754,260.333333 199.368421,245.666667 191.368421,241 C191.031487,240.803455 197.907319,241.312856 208.368421,248 C216.735371,253.34848 228.27107,263.963186 229.36381,264.990799 L229.368,264.994 L229.365708,264.958537 C229.428276,262.45181 244.488421,148 256.368421,148 C264.368421,148 273.701754,187 284.368421,265 C293.480751,256.480669 300.147418,250.814002 304.368421,248 C308.589424,245.185998 313.922758,242.852664 320.368421,241 C311.460298,248.924743 304.793632,255.591409 300.368421,261 C295.94321,266.408591 290.609877,274.408591 284.368421,285 L286.368421,305 L292.368421,307 C297.391159,297.545688 301.724492,290.879021 305.368421,287 C309.01235,283.120979 315.01235,278.787646 323.368421,274 C326.660298,276.701179 328.660298,280.034512 329.368421,284 C330.076544,287.965488 329.409877,293.965488 327.368421,302 C327.377194,296.296494 327.04386,292.296494 326.368421,290 C325.692982,287.703506 324.692982,286.036839 323.368421,285 L319.368421,290 C320.891321,295.786081 321.224654,300.452748 320.368421,304 C319.512188,307.547252 316.845521,312.547252 312.368421,319 C314.961548,317.612309 316.961548,316.278976 318.368421,315 C319.775294,313.721024 321.441961,311.721024 323.368421,309 C323.226488,314.909675 322.226488,318.909675 320.368421,321 C318.510354,323.090325 314.177021,325.090325 307.368421,327 L319.368421,344 L333.368421,332 L333.368421,317 L324.368421,321 C332.364204,308.172968 336.697537,296.839635 337.368421,287 C338.039305,277.160365 335.705972,259.160365 330.368421,233 C331.992642,232.89997 333.325975,233.566637 334.368421,235 C335.410867,236.433363 336.7442,239.433363 338.368421,244 C344.034001,241.184111 346.367334,236.850778 345.368421,231 C344.369508,225.149222 339.702841,215.815889 331.368421,203 C337.239029,192.16095 340.572362,183.827617 341.368421,178 C342.788894,167.601309 339.063414,152.864947 338.368421,148 C337.035088,138.666667 332.368421,134 324.368421,134 C326.709322,130.928352 329.042656,128.928352 331.368421,128 C336.690726,125.87555 341.750381,125.617767 346.368421,124 C353.960349,121.340437 360.103251,117.596597 362.368421,115 C376.095063,99.2649526 370.25326,81.2220783 368.368421,82 C365.972041,82.989048 359.233556,92.2416774 348.368421,99 C340.223127,104.066529 327.952773,106.430899 323.368421,110 C315.96319,115.765267 309.96319,122.431933 305.368421,130 C307.281856,121.137213 307.61519,116.470546 306.368421,116 C256.637721,97.2310185 213.032798,114.393631 208.368421,115 C205.258837,115.404246 204.59217,120.070913 206.368421,129 C199.096481,120.385966 193.693432,114.298247 190.159275,110.736843 L189.727239,110.304825 C189.234553,109.816155 188.781614,109.381214 188.368421,109 C183.028466,104.073334 167.683594,102.570159 163.368421,99 C144.345803,83.2616343 145.610706,77.4280374 144.368421,82 Z M256.368421,164 C250.195938,194.330032 245.862604,218.996699 243.368421,238 C240.874238,257.003301 238.207571,285.669968 235.368421,324 C235.781094,327.746006 236.781094,330.412673 238.368421,332 C239.955748,333.587327 242.955748,334.920661 247.368421,336 C248.246589,314.746257 249.246589,296.079591 250.368421,280 C251.490253,263.920409 253.490253,239.587076 256.368421,207 C259.202296,238.952213 261.202296,263.285546 262.368421,280 C263.534546,296.714454 264.534546,315.381121 265.368421,336 C269.204851,334.71509 271.871518,333.381757 273.368421,332 C274.865325,330.618243 276.531991,327.951576 278.368421,324 C274.93501,285.332766 271.93501,256.666099 269.368421,238 C266.801832,219.333901 262.468499,194.667234 256.368421,164 Z M315.368421,295 L310.368421,300 C308.912688,304.789067 307.579354,307.789067 306.368421,309 C305.157488,310.210933 302.824154,310.544267 299.368421,310 L296.368421,313 C303.035088,317 308.035088,316.333333 311.368421,311 C314.701754,305.666667 316.035088,300.333333 315.368421,295 Z M197.166667,295 C196.5,300.333333 197.833333,305.666667 201.166667,311 C204.5,316.333333 209.5,317 216.166667,313 L216.166667,313 L213.166667,310 C209.710933,310.544267 207.3776,310.210933 206.166667,309 C204.955733,307.789067 203.6224,304.789067 202.166667,300 L202.166667,300 Z M318.368421,137 C324.328677,149.073496 327.66201,158.40683 328.368421,165 C329.074832,171.59317 327.741499,181.259837 324.368421,194 C323.802552,192.895375 323.135885,191.895375 322.368421,191 C321.600957,190.104625 320.267624,188.771292 318.368421,187 C318.186472,194.394461 317.519806,200.394461 316.368421,205 C315.217036,209.605539 312.883703,215.605539 309.368421,223 L304.368421,213 C301.367517,218.949831 299.034183,222.949831 297.368421,225 C295.702659,227.050169 293.702659,228.383502 291.368421,229 C294.462574,221.917453 296.462574,215.917453 297.368421,211 C298.274268,206.082547 298.607601,199.41588 298.368421,191 L306.368421,201 C308.255679,193.612641 309.255679,187.945974 309.368421,184 C309.481163,180.054026 308.814497,174.054026 307.368421,166 C309.33883,166.708442 311.33883,167.708442 313.368421,169 C315.398012,170.291558 317.064679,171.624891 318.368421,173 C319.701754,167.666667 320.368421,162.666667 320.368421,158 C320.368421,153.333333 319.701754,146.333333 318.368421,137 Z M194.551906,137 C193.218573,146.333333 192.551906,153.333333 192.551906,158 C192.551906,162.666667 193.218573,167.666667 194.551906,173 C195.855648,171.624891 197.522315,170.291558 199.551906,169 C201.581497,167.708442 203.581497,166.708442 205.551906,166 C204.105831,174.054026 203.439164,180.054026 203.551906,184 C203.664648,187.945974 204.664648,193.612641 206.551906,201 L206.551906,201 L214.551906,191 C214.312726,199.41588 214.646059,206.082547 215.551906,211 C216.457753,215.917453 218.457753,221.917453 221.551906,229 C219.217668,228.383502 217.217668,227.050169 215.551906,225 C213.886144,222.949831 211.552811,218.949831 208.551906,213 L208.551906,213 L203.551906,223 C200.036624,215.605539 197.703291,209.605539 196.551906,205 C195.400521,200.394461 194.733855,194.394461 194.551906,187 C192.652704,188.771292 191.31937,190.104625 190.551906,191 C189.784442,191.895375 189.117775,192.895375 188.551906,194 C185.178828,181.259837 183.845495,171.59317 184.551906,165 C185.258317,158.40683 188.591651,149.073496 194.551906,137 Z M256.368421,112 C279.035088,112 291.701754,124 294.368421,148 C283.701754,131.333333 271.035088,123 256.368421,123 C241.701754,123 229.035088,131.333333 218.368421,148 C221.035088,124 233.701754,112 256.368421,112 Z M362.368421,94 C361.179613,99.5369024 359.84628,103.536902 358.368421,106 C356.890562,108.463098 354.223896,111.129764 350.368421,114 L354.368421,115 C350.4366,118.953229 347.103267,121.286562 344.368421,122 C341.633576,122.713438 337.300242,122.380105 331.368421,121 C330.360475,119.361759 332.360475,116.361759 337.368421,112 C339.838511,109.848631 346.28033,106.948472 350.368421,104 C353.168584,101.980426 357.168584,98.6470929 362.368421,94 Z M150.368421,94 C155.568258,98.6470929 159.568258,101.980426 162.368421,104 C166.456512,106.948472 172.898331,109.848631 175.368421,112 C180.376367,116.361759 182.376367,119.361759 181.368421,121 C175.4366,122.380105 171.103267,122.713438 168.368421,122 C165.633576,121.286562 162.300242,118.953229 158.368421,115 L158.368421,115 L162.368421,114 C158.512946,111.129764 155.84628,108.463098 154.368421,106 C152.890562,103.536902 151.557229,99.5369024 150.368421,94 Z"/>
    <polygon fill="#E9C46A" points="435 53 443 52 384 384 354 400"/>
    <polygon fill="#E9C46A" points="151 53 159 52 100 384 70 400" transform="matrix(-1 0 0 1 229 0)"/>
    <path fill="#FFF" fill-rule="nonzero" d="M112.685714,332.114286 L112.685714,293.485714 L135.542857,332.114286 L192.685714,332.114286 L164.114286,281.828571 C167.92381,279.085714 171.352381,275.733333 174.4,271.771429 C176.990476,268.266667 179.352381,263.847619 181.485714,258.514286 C183.619048,253.180952 184.685714,246.704762 184.685714,239.085714 C184.685714,229.485714 182.971429,220.990476 179.542857,213.6 C176.114286,206.209524 171.352381,200 165.257143,194.971429 C159.161905,189.942857 151.961905,186.133333 143.657143,183.542857 C135.352381,180.952381 126.32381,179.657143 116.571429,179.657143 L116.571429,179.657143 L64,179.657143 L64,332.114286 L112.685714,332.114286 Z M92.8,313.828571 L86.8571429,313.828571 L86.8571429,197.942857 L111.542857,197.942857 C118.704762,197.942857 125.333333,198.819048 131.428571,200.571429 C137.52381,202.32381 142.819048,204.914286 147.314286,208.342857 C151.809524,211.771429 155.352381,216 157.942857,221.028571 C160.533333,226.057143 161.828571,231.92381 161.828571,238.628571 C161.828571,248.228571 159.390476,256.038095 154.514286,262.057143 C149.638095,268.07619 143.085714,272.533333 134.857143,275.428571 L134.857143,275.428571 L157.714286,313.828571 L150.628571,313.828571 L128.914286,277.257143 C123.27619,278.47619 117.485714,279.085714 111.542857,279.085714 L111.542857,279.085714 L92.8,279.085714 L92.8,313.828571 Z M111.542857,273.6 C125.409524,273.6 136.266667,270.590476 144.114286,264.571429 C151.961905,258.552381 155.885714,249.904762 155.885714,238.628571 C155.885714,227.352381 151.961905,218.666667 144.114286,212.571429 C136.266667,206.47619 125.409524,203.428571 111.542857,203.428571 L111.542857,203.428571 L92.8,203.428571 L92.8,273.6 L111.542857,273.6 Z M115.2,254.628571 L112.685714,254.628571 L112.685714,220.8 L115.2,220.8 C120.990476,220.8 125.904762,222.095238 129.942857,224.685714 C133.980952,227.27619 136,231.619048 136,237.714286 C136,243.809524 133.980952,248.152381 129.942857,250.742857 C125.904762,253.333333 120.990476,254.628571 115.2,254.628571 L115.2,254.628571 Z M260.228571,332.114286 L260.228571,275.657143 L287.428571,275.657143 L287.428571,332.114286 L336.342857,332.114286 L336.342857,179.657143 L287.428571,179.657143 L287.428571,231.542857 L260.228571,231.542857 L260.228571,179.657143 L211.542857,179.657143 L211.542857,332.114286 L260.228571,332.114286 Z M240.342857,313.828571 L234.4,313.828571 L234.4,197.942857 L240.342857,197.942857 L240.342857,250.514286 L307.542857,250.514286 L307.542857,197.942857 L313.485714,197.942857 L313.485714,313.828571 L307.542857,313.828571 L307.542857,256 L240.342857,256 L240.342857,313.828571 Z M418.285714,332.114286 L418.285714,179.657143 L366.628571,179.657143 L366.628571,332.114286 L418.285714,332.114286 Z M395.428571,313.828571 L389.485714,313.828571 L389.485714,197.942857 L395.428571,197.942857 L395.428571,313.828571 Z M496.342857,332.114286 L496.342857,273.6 L538.171429,332.114286 L578.4,332.114286 L578.4,179.657143 L530.628571,179.657143 L530.628571,238.4 L488.571429,179.657143 L448.571429,179.657143 L448.571429,332.114286 L496.342857,332.114286 Z M475.771429,313.828571 L469.828571,313.828571 L469.828571,197.942857 L475.771429,197.942857 L551.2,303.542857 L551.2,197.942857 L557.142857,197.942857 L557.142857,313.828571 L551.2,313.828571 L475.771429,208.228571 L475.771429,313.828571 Z M685.257143,336 C696.228571,336 706.590476,333.904762 716.342857,329.714286 C726.095238,325.52381 734.590476,319.809524 741.828571,312.571429 C749.066667,305.333333 754.780952,296.838095 758.971429,287.085714 C763.161905,277.333333 765.257143,266.971429 765.257143,256 C765.257143,245.028571 763.161905,234.666667 758.971429,224.914286 C754.780952,215.161905 749.066667,206.666667 741.828571,199.428571 C734.590476,192.190476 726.095238,186.47619 716.342857,182.285714 C706.590476,178.095238 696.228571,176 685.257143,176 C674.285714,176 663.92381,178.095238 654.171429,182.285714 C644.419048,186.47619 635.92381,192.190476 628.685714,199.428571 C621.447619,206.666667 615.733333,215.161905 611.542857,224.914286 C607.352381,234.666667 605.257143,245.028571 605.257143,256 C605.257143,266.971429 607.352381,277.333333 611.542857,287.085714 C615.733333,296.838095 621.447619,305.333333 628.685714,312.571429 C635.92381,319.809524 644.419048,325.52381 654.171429,329.714286 C663.92381,333.904762 674.285714,336 685.257143,336 Z M685.257143,314.514286 C677.180952,314.514286 669.6,312.990476 662.514286,309.942857 C655.428571,306.895238 649.219048,302.704762 643.885714,297.371429 C638.552381,292.038095 634.361905,285.828571 631.314286,278.742857 C628.266667,271.657143 626.742857,264.07619 626.742857,256 C626.742857,247.92381 628.266667,240.342857 631.314286,233.257143 C634.361905,226.171429 638.552381,219.961905 643.885714,214.628571 C649.219048,209.295238 655.428571,205.104762 662.514286,202.057143 C669.6,199.009524 677.180952,197.485714 685.257143,197.485714 C693.333333,197.485714 700.914286,199.009524 708,202.057143 C715.085714,205.104762 721.295238,209.295238 726.628571,214.628571 C731.961905,219.961905 736.152381,226.171429 739.2,233.257143 C742.247619,240.342857 743.771429,247.92381 743.771429,256 C743.771429,264.07619 742.247619,271.657143 739.2,278.742857 C736.152381,285.828571 731.961905,292.038095 726.628571,297.371429 C721.295238,302.704762 715.085714,306.895238 708,309.942857 C700.914286,312.990476 693.333333,314.514286 685.257143,314.514286 Z M685.257143,308.571429 C692.571429,308.571429 699.390476,307.2 705.714286,304.457143 C712.038095,301.714286 717.6,297.942857 722.4,293.142857 C727.2,288.342857 730.971429,282.780952 733.714286,276.457143 C736.457143,270.133333 737.828571,263.314286 737.828571,256 C737.828571,248.685714 736.457143,241.866667 733.714286,235.542857 C730.971429,229.219048 727.2,223.657143 722.4,218.857143 C717.6,214.057143 712.038095,210.285714 705.714286,207.542857 C699.390476,204.8 692.571429,203.428571 685.257143,203.428571 C677.942857,203.428571 671.12381,204.8 664.8,207.542857 C658.47619,210.285714 652.914286,214.057143 648.114286,218.857143 C643.314286,223.657143 639.542857,229.219048 636.8,235.542857 C634.057143,241.866667 632.685714,248.685714 632.685714,256 C632.685714,263.314286 634.057143,270.133333 636.8,276.457143 C639.542857,282.780952 643.314286,288.342857 648.114286,293.142857 C652.914286,297.942857 658.47619,301.714286 664.8,304.457143 C671.12381,307.2 677.942857,308.571429 685.257143,308.571429 Z M685.257143,288 C680.838095,288 676.685714,287.161905 672.8,285.485714 C668.914286,283.809524 665.52381,281.52381 662.628571,278.628571 C659.733333,275.733333 657.447619,272.342857 655.771429,268.457143 C654.095238,264.571429 653.257143,260.419048 653.257143,256 C653.257143,251.580952 654.095238,247.428571 655.771429,243.542857 C657.447619,239.657143 659.733333,236.266667 662.628571,233.371429 C665.52381,230.47619 668.914286,228.190476 672.8,226.514286 C676.685714,224.838095 680.838095,224 685.257143,224 C689.67619,224 693.828571,224.838095 697.714286,226.514286 C701.6,228.190476 704.990476,230.47619 707.885714,233.371429 C710.780952,236.266667 713.066667,239.657143 714.742857,243.542857 C716.419048,247.428571 717.257143,251.580952 717.257143,256 C717.257143,260.419048 716.419048,264.571429 714.742857,268.457143 C713.066667,272.342857 710.780952,275.733333 707.885714,278.628571 C704.990476,281.52381 701.6,283.809524 697.714286,285.485714 C693.828571,287.161905 689.67619,288 685.257143,288 Z M870.971429,336 C879.809524,336 887.657143,335.085714 894.514286,333.257143 C901.371429,331.428571 907.238095,329.447619 912.114286,327.314286 C917.752381,324.72381 922.628571,321.752381 926.742857,318.4 L926.742857,318.4 L902.742857,276.114286 C900.457143,278.4 897.790476,280.380952 894.742857,282.057143 C892.152381,283.580952 888.952381,284.952381 885.142857,286.171429 C881.333333,287.390476 876.990476,288 872.114286,288 C867.238095,288 862.742857,287.161905 858.628571,285.485714 C854.514286,283.809524 850.933333,281.52381 847.885714,278.628571 C844.838095,275.733333 842.438095,272.342857 840.685714,268.457143 C838.933333,264.571429 838.057143,260.419048 838.057143,256 C838.057143,251.580952 838.895238,247.428571 840.571429,243.542857 C842.247619,239.657143 844.571429,236.266667 847.542857,233.371429 C850.514286,230.47619 853.980952,228.190476 857.942857,226.514286 C861.904762,224.838095 866.247619,224 870.971429,224 C875.542857,224 879.619048,224.571429 883.2,225.714286 C886.780952,226.857143 889.866667,228.038095 892.457143,229.257143 C895.352381,230.933333 898.019048,232.685714 900.457143,234.514286 L900.457143,234.514286 L924.457143,192.228571 C920.342857,189.333333 915.466667,186.666667 909.828571,184.228571 C904.952381,182.095238 899.12381,180.190476 892.342857,178.514286 C885.561905,176.838095 877.828571,176 869.142857,176 C858.171429,176 847.809524,177.866667 838.057143,181.6 C828.304762,185.333333 819.771429,190.704762 812.457143,197.714286 C805.142857,204.72381 799.352381,213.142857 795.085714,222.971429 C790.819048,232.8 788.685714,243.809524 788.685714,256 C788.685714,267.885714 790.742857,278.742857 794.857143,288.571429 C798.971429,298.4 804.685714,306.819048 812,313.828571 C819.314286,320.838095 828,326.285714 838.057143,330.171429 C848.114286,334.057143 859.085714,336 870.971429,336 Z M871.657143,314.514286 C863.428571,314.514286 855.657143,313.142857 848.342857,310.4 C841.028571,307.657143 834.628571,303.733333 829.142857,298.628571 C823.657143,293.52381 819.352381,287.390476 816.228571,280.228571 C813.104762,273.066667 811.542857,264.990476 811.542857,256 C811.542857,247.161905 813.180952,239.12381 816.457143,231.885714 C819.733333,224.647619 824.07619,218.47619 829.485714,213.371429 C834.895238,208.266667 841.142857,204.342857 848.228571,201.6 C855.314286,198.857143 862.742857,197.485714 870.514286,197.485714 C874.933333,197.485714 878.819048,197.790476 882.171429,198.4 C885.52381,199.009524 888.495238,199.695238 891.085714,200.457143 C893.828571,201.371429 896.419048,202.361905 898.857143,203.428571 L898.857143,203.428571 L895.657143,208.914286 C893.828571,207.847619 891.619048,206.933333 889.028571,206.171429 C886.895238,205.409524 884.266667,204.761905 881.142857,204.228571 C878.019048,203.695238 874.47619,203.428571 870.514286,203.428571 C862.438095,203.428571 855.12381,204.8 848.571429,207.542857 C842.019048,210.285714 836.457143,214.019048 831.885714,218.742857 C827.314286,223.466667 823.771429,229.028571 821.257143,235.428571 C818.742857,241.828571 817.485714,248.685714 817.485714,256 C817.485714,263.314286 818.742857,270.171429 821.257143,276.571429 C823.771429,282.971429 827.352381,288.533333 832,293.257143 C836.647619,297.980952 842.32381,301.714286 849.028571,304.457143 C855.733333,307.2 863.27619,308.571429 871.657143,308.571429 C875.92381,308.571429 879.657143,308.228571 882.857143,307.542857 C886.057143,306.857143 888.8,306.057143 891.085714,305.142857 C893.67619,304.228571 895.961905,303.085714 897.942857,301.714286 L897.942857,301.714286 L901.142857,307.2 C898.857143,308.571429 896.266667,309.790476 893.371429,310.857143 C890.780952,311.771429 887.657143,312.609524 884,313.371429 C880.342857,314.133333 876.228571,314.514286 871.657143,314.514286 Z M1009.6,336 C1020.57143,336 1030.93333,333.904762 1040.68571,329.714286 C1050.4381,325.52381 1058.93333,319.809524 1066.17143,312.571429 C1073.40952,305.333333 1079.12381,296.838095 1083.31429,287.085714 C1087.50476,277.333333 1089.6,266.971429 1089.6,256 C1089.6,245.028571 1087.50476,234.666667 1083.31429,224.914286 C1079.12381,215.161905 1073.40952,206.666667 1066.17143,199.428571 C1058.93333,192.190476 1050.4381,186.47619 1040.68571,182.285714 C1030.93333,178.095238 1020.57143,176 1009.6,176 C998.628571,176 988.266667,178.095238 978.514286,182.285714 C968.761905,186.47619 960.266667,192.190476 953.028571,199.428571 C945.790476,206.666667 940.07619,215.161905 935.885714,224.914286 C931.695238,234.666667 929.6,245.028571 929.6,256 C929.6,266.971429 931.695238,277.333333 935.885714,287.085714 C940.07619,296.838095 945.790476,305.333333 953.028571,312.571429 C960.266667,319.809524 968.761905,325.52381 978.514286,329.714286 C988.266667,333.904762 998.628571,336 1009.6,336 Z M1009.6,314.514286 C1001.52381,314.514286 993.942857,312.990476 986.857143,309.942857 C979.771429,306.895238 973.561905,302.704762 968.228571,297.371429 C962.895238,292.038095 958.704762,285.828571 955.657143,278.742857 C952.609524,271.657143 951.085714,264.07619 951.085714,256 C951.085714,247.92381 952.609524,240.342857 955.657143,233.257143 C958.704762,226.171429 962.895238,219.961905 968.228571,214.628571 C973.561905,209.295238 979.771429,205.104762 986.857143,202.057143 C993.942857,199.009524 1001.52381,197.485714 1009.6,197.485714 C1017.67619,197.485714 1025.25714,199.009524 1032.34286,202.057143 C1039.42857,205.104762 1045.6381,209.295238 1050.97143,214.628571 C1056.30476,219.961905 1060.49524,226.171429 1063.54286,233.257143 C1066.59048,240.342857 1068.11429,247.92381 1068.11429,256 C1068.11429,264.07619 1066.59048,271.657143 1063.54286,278.742857 C1060.49524,285.828571 1056.30476,292.038095 1050.97143,297.371429 C1045.6381,302.704762 1039.42857,306.895238 1032.34286,309.942857 C1025.25714,312.990476 1017.67619,314.514286 1009.6,314.514286 Z M1009.6,308.571429 C1016.91429,308.571429 1023.73333,307.2 1030.05714,304.457143 C1036.38095,301.714286 1041.94286,297.942857 1046.74286,293.142857 C1051.54286,288.342857 1055.31429,282.780952 1058.05714,276.457143 C1060.8,270.133333 1062.17143,263.314286 1062.17143,256 C1062.17143,248.685714 1060.8,241.866667 1058.05714,235.542857 C1055.31429,229.219048 1051.54286,223.657143 1046.74286,218.857143 C1041.94286,214.057143 1036.38095,210.285714 1030.05714,207.542857 C1023.73333,204.8 1016.91429,203.428571 1009.6,203.428571 C1002.28571,203.428571 995.466667,204.8 989.142857,207.542857 C982.819048,210.285714 977.257143,214.057143 972.457143,218.857143 C967.657143,223.657143 963.885714,229.219048 961.142857,235.542857 C958.4,241.866667 957.028571,248.685714 957.028571,256 C957.028571,263.314286 958.4,270.133333 961.142857,276.457143 C963.885714,282.780952 967.657143,288.342857 972.457143,293.142857 C977.257143,297.942857 982.819048,301.714286 989.142857,304.457143 C995.466667,307.2 1002.28571,308.571429 1009.6,308.571429 Z M1009.6,288 C1005.18095,288 1001.02857,287.161905 997.142857,285.485714 C993.257143,283.809524 989.866667,281.52381 986.971429,278.628571 C984.07619,275.733333 981.790476,272.342857 980.114286,268.457143 C978.438095,264.571429 977.6,260.419048 977.6,256 C977.6,251.580952 978.438095,247.428571 980.114286,243.542857 C981.790476,239.657143 984.07619,236.266667 986.971429,233.371429 C989.866667,230.47619 993.257143,228.190476 997.142857,226.514286 C1001.02857,224.838095 1005.18095,224 1009.6,224 C1014.01905,224 1018.17143,224.838095 1022.05714,226.514286 C1025.94286,228.190476 1029.33333,230.47619 1032.22857,233.371429 C1035.12381,236.266667 1037.40952,239.657143 1039.08571,243.542857 C1040.7619,247.428571 1041.6,251.580952 1041.6,256 C1041.6,260.419048 1040.7619,264.571429 1039.08571,268.457143 C1037.40952,272.342857 1035.12381,275.733333 1032.22857,278.628571 C1029.33333,281.52381 1025.94286,283.809524 1022.05714,285.485714 C1018.17143,287.161905 1014.01905,288 1009.6,288 Z M1168.11429,332.114286 L1168.11429,179.657143 L1116.45714,179.657143 L1116.45714,332.114286 L1168.11429,332.114286 Z M1145.25714,313.828571 L1139.31429,313.828571 L1139.31429,197.942857 L1145.25714,197.942857 L1145.25714,313.828571 Z M1246.17143,332.114286 L1246.17143,273.6 L1288,332.114286 L1328.22857,332.114286 L1328.22857,179.657143 L1280.45714,179.657143 L1280.45714,238.4 L1238.4,179.657143 L1198.4,179.657143 L1198.4,332.114286 L1246.17143,332.114286 Z M1225.6,313.828571 L1219.65714,313.828571 L1219.65714,197.942857 L1225.6,197.942857 L1301.02857,303.542857 L1301.02857,197.942857 L1306.97143,197.942857 L1306.97143,313.828571 L1301.02857,313.828571 L1225.6,208.228571 L1225.6,313.828571 Z" transform="translate(512)"/>
  </g>
</svg>
