<svg xmlns="http://www.w3.org/2000/svg" width="1392" height="512" viewBox="0 0 1392 512" style="background:#264653">
  <g fill="none" fill-rule="evenodd">
    <rect width="1392" height="512" fill="#264653"/>
    <path fill="#FFF" fill-rule="nonzero" d="M112.685714,332.114286 L112.685714,293.485714 L135.542857,332.114286 L192.685714,332.114286 L164.114286,281.828571 C167.92381,279.085714 171.352381,275.733333 174.4,271.771429 C176.990476,268.266667 179.352381,263.847619 181.485714,258.514286 C183.619048,253.180952 184.685714,246.704762 184.685714,239.085714 C184.685714,229.485714 182.971429,220.990476 179.542857,213.6 C176.114286,206.209524 171.352381,200 165.257143,194.971429 C159.161905,189.942857 151.961905,186.133333 143.657143,183.542857 C135.352381,180.952381 126.32381,179.657143 116.571429,179.657143 L116.571429,179.657143 L64,179.657143 L64,332.114286 L112.685714,332.114286 Z M92.8,313.828571 L86.8571429,313.828571 L86.8571429,197.942857 L111.542857,197.942857 C118.704762,197.942857 125.333333,198.819048 131.428571,200.571429 C137.52381,202.32381 142.819048,204.914286 147.314286,208.342857 C151.809524,211.771429 155.352381,216 157.942857,221.028571 C160.533333,226.057143 161.828571,231.92381 161.828571,238.628571 C161.828571,248.228571 159.390476,256.038095 154.514286,262.057143 C149.638095,268.07619 143.085714,272.533333 134.857143,275.428571 L134.857143,275.428571 L157.714286,313.828571 L150.628571,313.828571 L128.914286,277.257143 C123.27619,278.47619 117.485714,279.085714 111.542857,279.085714 L111.542857,279.085714 L92.8,279.085714 L92.8,313.828571 Z M111.542857,273.6 C125.409524,273.6 136.266667,270.590476 144.114286,264.571429 C151.961905,258.552381 155.885714,249.904762 155.885714,238.628571 C155.885714,227.352381 151.961905,218.666667 144.114286,212.571429 C136.266667,206.47619 125.409524,203.428571 111.542857,203.428571 L111.542857,203.428571 L92.8,203.428571 L92.8,273.6 L111.542857,273.6 Z M115.2,254.628571 L112.685714,254.628571 L112.685714,220.8 L115.2,220.8 C120.990476,220.8 125.904762,222.095238 129.942857,224.685714 C133.980952,227.27619 136,231.619048 136,237.714286 C136,243.809524 133.980952,248.152381 129.942857,250.742857 C125.904762,253.333333 120.990476,254.628571 115.2,254.628571 L115.2,254.628571 Z M260.228571,332.114286 L260.228571,275.657143 L287.428571,275.657143 L287.428571,332.114286 L336.342857,332.114286 L336.342857,179.657143 L287.428571,179.657143 L287.428571,231.542857 L260.228571,231.542857 L260.228571,179.657143 L211.542857,179.657143 L211.542857,332.114286 L260.228571,332.114286 Z M240.342857,313.828571 L234.4,313.828571 L234.4,197.942857 L240.342857,197.942857 L240.342857,250.514286 L307.542857,250.514286 L307.542857,197.942857 L313.485714,197.942857 L313.485714,313.828571 L307.542857,313.828571 L307.542857,256 L240.342857,256 L240.342857,313.828571 Z M418.285714,332.114286 L418.285714,179.657143 L366.628571,179.657143 L366.628571,332.114286 L418.285714,332.114286 Z M395.428571,313.828571 L389.485714,313.828571 L389.485714,197.942857 L395.428571,197.942857 L395.428571,313.828571 Z M496.342857,332.114286 L496.342857,273.6 L538.171429,332.114286 L578.4,332.114286 L578.4,179.657143 L530.628571,179.657143 L530.628571,238.4 L488.571429,179.657143 L448.571429,179.657143 L448.571429,332.114286 L496.342857,332.114286 Z M475.771429,313.828571 L469.828571,313.828571 L469.828571,197.942857 L475.771429,197.942857 L551.2,303.542857 L551.2,197.942857 L557.142857,197.942857 L557.142857,313.828571 L551.2,313.828571 L475.771429,208.228571 L475.771429,313.828571 Z M685.257143,336 C696.228571,336 706.590476,333.904762 716.342857,329.714286 C726.095238,325.52381 734.590476,319.809524 741.828571,312.571429 C749.066667,305.333333 754.780952,296.838095 758.971429,287.085714 C763.161905,277.333333 765.257143,266.971429 765.257143,256 C765.257143,245.028571 763.161905,234.666667 758.971429,224.914286 C754.780952,215.161905 749.066667,206.666667 741.828571,199.428571 C734.590476,192.190476 726.095238,186.47619 716.342857,182.285714 C706.590476,178.095238 696.228571,176 685.257143,176 C674.285714,176 663.92381,178.095238 654.171429,182.285714 C644.419048,186.47619 635.92381,192.190476 628.685714,199.428571 C621.447619,206.666667 615.733333,215.161905 611.542857,224.914286 C607.352381,234.666667 605.257143,245.028571 605.257143,256 C605.257143,266.971429 607.352381,277.333333 611.542857,287.085714 C615.733333,296.838095 621.447619,305.333333 628.685714,312.571429 C635.92381,319.809524 644.419048,325.52381 654.171429,329.714286 C663.92381,333.904762 674.285714,336 685.257143,336 Z M685.257143,314.514286 C677.180952,314.514286 669.6,312.990476 662.514286,309.942857 C655.428571,306.895238 649.219048,302.704762 643.885714,297.371429 C638.552381,292.038095 634.361905,285.828571 631.314286,278.742857 C628.266667,271.657143 626.742857,264.07619 626.742857,256 C626.742857,247.92381 628.266667,240.342857 631.314286,233.257143 C634.361905,226.171429 638.552381,219.961905 643.885714,214.628571 C649.219048,209.295238 655.428571,205.104762 662.514286,202.057143 C669.6,199.009524 677.180952,197.485714 685.257143,197.485714 C693.333333,197.485714 700.914286,199.009524 708,202.057143 C715.085714,205.104762 721.295238,209.295238 726.628571,214.628571 C731.961905,219.961905 736.152381,226.171429 739.2,233.257143 C742.247619,240.342857 743.771429,247.92381 743.771429,256 C743.771429,264.07619 742.247619,271.657143 739.2,278.742857 C736.152381,285.828571 731.961905,292.038095 726.628571,297.371429 C721.295238,302.704762 715.085714,306.895238 708,309.942857 C700.914286,312.990476 693.333333,314.514286 685.257143,314.514286 Z M685.257143,308.571429 C692.571429,308.571429 699.390476,307.2 705.714286,304.457143 C712.038095,301.714286 717.6,297.942857 722.4,293.142857 C727.2,288.342857 730.971429,282.780952 733.714286,276.457143 C736.457143,270.133333 737.828571,263.314286 737.828571,256 C737.828571,248.685714 736.457143,241.866667 733.714286,235.542857 C730.971429,229.219048 727.2,223.657143 722.4,218.857143 C717.6,214.057143 712.038095,210.285714 705.714286,207.542857 C699.390476,204.8 692.571429,203.428571 685.257143,203.428571 C677.942857,203.428571 671.12381,204.8 664.8,207.542857 C658.47619,210.285714 652.914286,214.057143 648.114286,218.857143 C643.314286,223.657143 639.542857,229.219048 636.8,235.542857 C634.057143,241.866667 632.685714,248.685714 632.685714,256 C632.685714,263.314286 634.057143,270.133333 636.8,276.457143 C639.542857,282.780952 643.314286,288.342857 648.114286,293.142857 C652.914286,297.942857 658.47619,301.714286 664.8,304.457143 C671.12381,307.2 677.942857,308.571429 685.257143,308.571429 Z M685.257143,288 C680.838095,288 676.685714,287.161905 672.8,285.485714 C668.914286,283.809524 665.52381,281.52381 662.628571,278.628571 C659.733333,275.733333 657.447619,272.342857 655.771429,268.457143 C654.095238,264.571429 653.257143,260.419048 653.257143,256 C653.257143,251.580952 654.095238,247.428571 655.771429,243.542857 C657.447619,239.657143 659.733333,236.266667 662.628571,233.371429 C665.52381,230.47619 668.914286,228.190476 672.8,226.514286 C676.685714,224.838095 680.838095,224 685.257143,224 C689.67619,224 693.828571,224.838095 697.714286,226.514286 C701.6,228.190476 704.990476,230.47619 707.885714,233.371429 C710.780952,236.266667 713.066667,239.657143 714.742857,243.542857 C716.419048,247.428571 717.257143,251.580952 717.257143,256 C717.257143,260.419048 716.419048,264.571429 714.742857,268.457143 C713.066667,272.342857 710.780952,275.733333 707.885714,278.628571 C704.990476,281.52381 701.6,283.809524 697.714286,285.485714 C693.828571,287.161905 689.67619,288 685.257143,288 Z M870.971429,336 C879.809524,336 887.657143,335.085714 894.514286,333.257143 C901.371429,331.428571 907.238095,329.447619 912.114286,327.314286 C917.752381,324.72381 922.628571,321.752381 926.742857,318.4 L926.742857,318.4 L902.742857,276.114286 C900.457143,278.4 897.790476,280.380952 894.742857,282.057143 C892.152381,283.580952 888.952381,284.952381 885.142857,286.171429 C881.333333,287.390476 876.990476,288 872.114286,288 C867.238095,288 862.742857,287.161905 858.628571,285.485714 C854.514286,283.809524 850.933333,281.52381 847.885714,278.628571 C844.838095,275.733333 842.438095,272.342857 840.685714,268.457143 C838.933333,264.571429 838.057143,260.419048 838.057143,256 C838.057143,251.580952 838.895238,247.428571 840.571429,243.542857 C842.247619,239.657143 844.571429,236.266667 847.542857,233.371429 C850.514286,230.47619 853.980952,228.190476 857.942857,226.514286 C861.904762,224.838095 866.247619,224 870.971429,224 C875.542857,224 879.619048,224.571429 883.2,225.714286 C886.780952,226.857143 889.866667,228.038095 892.457143,229.257143 C895.352381,230.933333 898.019048,232.685714 900.457143,234.514286 L900.457143,234.514286 L924.457143,192.228571 C920.342857,189.333333 915.466667,186.666667 909.828571,184.228571 C904.952381,182.095238 899.12381,180.190476 892.342857,178.514286 C885.561905,176.838095 877.828571,176 869.142857,176 C858.171429,176 847.809524,177.866667 838.057143,181.6 C828.304762,185.333333 819.771429,190.704762 812.457143,197.714286 C805.142857,204.72381 799.352381,213.142857 795.085714,222.971429 C790.819048,232.8 788.685714,243.809524 788.685714,256 C788.685714,267.885714 790.742857,278.742857 794.857143,288.571429 C798.971429,298.4 804.685714,306.819048 812,313.828571 C819.314286,320.838095 828,326.285714 838.057143,330.171429 C848.114286,334.057143 859.085714,336 870.971429,336 Z M871.657143,314.514286 C863.428571,314.514286 855.657143,313.142857 848.342857,310.4 C841.028571,307.657143 834.628571,303.733333 829.142857,298.628571 C823.657143,293.52381 819.352381,287.390476 816.228571,280.228571 C813.104762,273.066667 811.542857,264.990476 811.542857,256 C811.542857,247.161905 813.180952,239.12381 816.457143,231.885714 C819.733333,224.647619 824.07619,218.47619 829.485714,213.371429 C834.895238,208.266667 841.142857,204.342857 848.228571,201.6 C855.314286,198.857143 862.742857,197.485714 870.514286,197.485714 C874.933333,197.485714 878.819048,197.790476 882.171429,198.4 C885.52381,199.009524 888.495238,199.695238 891.085714,200.457143 C893.828571,201.371429 896.419048,202.361905 898.857143,203.428571 L898.857143,203.428571 L895.657143,208.914286 C893.828571,207.847619 891.619048,206.933333 889.028571,206.171429 C886.895238,205.409524 884.266667,204.761905 881.142857,204.228571 C878.019048,203.695238 874.47619,203.428571 870.514286,203.428571 C862.438095,203.428571 855.12381,204.8 848.571429,207.542857 C842.019048,210.285714 836.457143,214.019048 831.885714,218.742857 C827.314286,223.466667 823.771429,229.028571 821.257143,235.428571 C818.742857,241.828571 817.485714,248.685714 817.485714,256 C817.485714,263.314286 818.742857,270.171429 821.257143,276.571429 C823.771429,282.971429 827.352381,288.533333 832,293.257143 C836.647619,297.980952 842.32381,301.714286 849.028571,304.457143 C855.733333,307.2 863.27619,308.571429 871.657143,308.571429 C875.92381,308.571429 879.657143,308.228571 882.857143,307.542857 C886.057143,306.857143 888.8,306.057143 891.085714,305.142857 C893.67619,304.228571 895.961905,303.085714 897.942857,301.714286 L897.942857,301.714286 L901.142857,307.2 C898.857143,308.571429 896.266667,309.790476 893.371429,310.857143 C890.780952,311.771429 887.657143,312.609524 884,313.371429 C880.342857,314.133333 876.228571,314.514286 871.657143,314.514286 Z M1009.6,336 C1020.57143,336 1030.93333,333.904762 1040.68571,329.714286 C1050.4381,325.52381 1058.93333,319.809524 1066.17143,312.571429 C1073.40952,305.333333 1079.12381,296.838095 1083.31429,287.085714 C1087.50476,277.333333 1089.6,266.971429 1089.6,256 C1089.6,245.028571 1087.50476,234.666667 1083.31429,224.914286 C1079.12381,215.161905 1073.40952,206.666667 1066.17143,199.428571 C1058.93333,192.190476 1050.4381,186.47619 1040.68571,182.285714 C1030.93333,178.095238 1020.57143,176 1009.6,176 C998.628571,176 988.266667,178.095238 978.514286,182.285714 C968.761905,186.47619 960.266667,192.190476 953.028571,199.428571 C945.790476,206.666667 940.07619,215.161905 935.885714,224.914286 C931.695238,234.666667 929.6,245.028571 929.6,256 C929.6,266.971429 931.695238,277.333333 935.885714,287.085714 C940.07619,296.838095 945.790476,305.333333 953.028571,312.571429 C960.266667,319.809524 968.761905,325.52381 978.514286,329.714286 C988.266667,333.904762 998.628571,336 1009.6,336 Z M1009.6,314.514286 C1001.52381,314.514286 993.942857,312.990476 986.857143,309.942857 C979.771429,306.895238 973.561905,302.704762 968.228571,297.371429 C962.895238,292.038095 958.704762,285.828571 955.657143,278.742857 C952.609524,271.657143 951.085714,264.07619 951.085714,256 C951.085714,247.92381 952.609524,240.342857 955.657143,233.257143 C958.704762,226.171429 962.895238,219.961905 968.228571,214.628571 C973.561905,209.295238 979.771429,205.104762 986.857143,202.057143 C993.942857,199.009524 1001.52381,197.485714 1009.6,197.485714 C1017.67619,197.485714 1025.25714,199.009524 1032.34286,202.057143 C1039.42857,205.104762 1045.6381,209.295238 1050.97143,214.628571 C1056.30476,219.961905 1060.49524,226.171429 1063.54286,233.257143 C1066.59048,240.342857 1068.11429,247.92381 1068.11429,256 C1068.11429,264.07619 1066.59048,271.657143 1063.54286,278.742857 C1060.49524,285.828571 1056.30476,292.038095 1050.97143,297.371429 C1045.6381,302.704762 1039.42857,306.895238 1032.34286,309.942857 C1025.25714,312.990476 1017.67619,314.514286 1009.6,314.514286 Z M1009.6,308.571429 C1016.91429,308.571429 1023.73333,307.2 1030.05714,304.457143 C1036.38095,301.714286 1041.94286,297.942857 1046.74286,293.142857 C1051.54286,288.342857 1055.31429,282.780952 1058.05714,276.457143 C1060.8,270.133333 1062.17143,263.314286 1062.17143,256 C1062.17143,248.685714 1060.8,241.866667 1058.05714,235.542857 C1055.31429,229.219048 1051.54286,223.657143 1046.74286,218.857143 C1041.94286,214.057143 1036.38095,210.285714 1030.05714,207.542857 C1023.73333,204.8 1016.91429,203.428571 1009.6,203.428571 C1002.28571,203.428571 995.466667,204.8 989.142857,207.542857 C982.819048,210.285714 977.257143,214.057143 972.457143,218.857143 C967.657143,223.657143 963.885714,229.219048 961.142857,235.542857 C958.4,241.866667 957.028571,248.685714 957.028571,256 C957.028571,263.314286 958.4,270.133333 961.142857,276.457143 C963.885714,282.780952 967.657143,288.342857 972.457143,293.142857 C977.257143,297.942857 982.819048,301.714286 989.142857,304.457143 C995.466667,307.2 1002.28571,308.571429 1009.6,308.571429 Z M1009.6,288 C1005.18095,288 1001.02857,287.161905 997.142857,285.485714 C993.257143,283.809524 989.866667,281.52381 986.971429,278.628571 C984.07619,275.733333 981.790476,272.342857 980.114286,268.457143 C978.438095,264.571429 977.6,260.419048 977.6,256 C977.6,251.580952 978.438095,247.428571 980.114286,243.542857 C981.790476,239.657143 984.07619,236.266667 986.971429,233.371429 C989.866667,230.47619 993.257143,228.190476 997.142857,226.514286 C1001.02857,224.838095 1005.18095,224 1009.6,224 C1014.01905,224 1018.17143,224.838095 1022.05714,226.514286 C1025.94286,228.190476 1029.33333,230.47619 1032.22857,233.371429 C1035.12381,236.266667 1037.40952,239.657143 1039.08571,243.542857 C1040.7619,247.428571 1041.6,251.580952 1041.6,256 C1041.6,260.419048 1040.7619,264.571429 1039.08571,268.457143 C1037.40952,272.342857 1035.12381,275.733333 1032.22857,278.628571 C1029.33333,281.52381 1025.94286,283.809524 1022.05714,285.485714 C1018.17143,287.161905 1014.01905,288 1009.6,288 Z M1168.11429,332.114286 L1168.11429,179.657143 L1116.45714,179.657143 L1116.45714,332.114286 L1168.11429,332.114286 Z M1145.25714,313.828571 L1139.31429,313.828571 L1139.31429,197.942857 L1145.25714,197.942857 L1145.25714,313.828571 Z M1246.17143,332.114286 L1246.17143,273.6 L1288,332.114286 L1328.22857,332.114286 L1328.22857,179.657143 L1280.45714,179.657143 L1280.45714,238.4 L1238.4,179.657143 L1198.4,179.657143 L1198.4,332.114286 L1246.17143,332.114286 Z M1225.6,313.828571 L1219.65714,313.828571 L1219.65714,197.942857 L1225.6,197.942857 L1301.02857,303.542857 L1301.02857,197.942857 L1306.97143,197.942857 L1306.97143,313.828571 L1301.02857,313.828571 L1225.6,208.228571 L1225.6,313.828571 Z"/>
  </g>
</svg>
