<svg xmlns="http://www.w3.org/2000/svg" width="512" height="512" viewBox="0 0 512 512">
  <defs>
    <radialGradient id="logo@2x-a" cx="50%" cy="49.999%" r="54.228%" fx="50%" fy="49.999%" gradientTransform="matrix(1 0 0 .94013 0 .03)">
      <stop offset="0%" stop-color="#114B5F"/>
      <stop offset="100%" stop-color="#1C0F13"/>
    </radialGradient>
  </defs>
  <g fill="none" fill-rule="evenodd" transform="translate(44 28)">
    <path fill="url(#logo@2x-a)" fill-rule="nonzero" stroke="#1AECF7" stroke-linecap="round" stroke-linejoin="round" stroke-width="12" d="M214,-6 C300.927181,-6 372.166329,17.221322 427.830015,63.3814522 C428.754119,64.1477825 429.672805,64.9195014 430.582707,65.7064662 C430.350349,66.8648057 430.116372,68.026036 429.880776,69.190157 C407.040518,182.047904 380.746676,263.958195 351.192558,315.006218 C321.477369,366.332453 277.280984,413.307914 218.519059,455.859653 C217.371365,456.690741 216.223802,457.516025 215.073651,458.331942 C213.911203,457.538244 212.748232,456.738648 211.58474,455.933153 C150.092294,413.36146 104.535471,366.354631 74.8074423,315.006218 C45.2614152,263.972171 18.3100469,182.082528 -5.86681448,69.2571745 C-6.12652686,68.0451834 -6.38448444,66.8363175 -6.63191238,65.6235192 C-5.66707542,64.8414991 -4.69690882,64.0648283 -3.7214135,63.2935065 C54.608934,17.1718363 127.154768,-6 214,-6 Z"/>
    <g transform="translate(20 64)">
      <path d="M0,68 C50.7169811,22.6666667 114.716981,0 192,0 C269.283019,0 333.283019,22.6666667 384,68 L0,68 Z"/>
      <text fill="#FFF" font-family="Phosphate-Inline, Phosphate" font-size="64" letter-spacing="4">
        <tspan x="14.268" y="78">RHINOCOIN</tspan>
      </text>
    </g>
    <g fill-rule="nonzero" transform="translate(111 79)">
      <ellipse cx="102.292" cy="228.812" fill="#A3A39B" rx="89.174" ry="73.48"/>
      <path fill="#000" d="M102.29246,306.507051 C50.7945635,306.507051 8.90347929,271.655732 8.90347929,228.811813 C8.90347929,185.967895 50.7945635,151.116575 102.29246,151.116575 C153.790357,151.116575 195.670232,185.967895 195.670232,228.811813 C195.670232,271.655732 153.779147,306.507051 102.29246,306.507051 Z M102.29246,159.535148 C55.4354275,159.535148 17.3220515,190.619969 17.3220515,228.811813 C17.3220515,267.003658 55.4354275,298.088479 102.29246,298.088479 C149.149493,298.088479 187.251659,267.014868 187.251659,228.811813 C187.251659,190.608759 149.138283,159.557567 102.29246,159.557567 L102.29246,159.535148 Z"/>
      <path fill="#777873" d="M141.347461 262.418843C137.569753 261.880772 135.563196 259.268885 134.70004 256.085297L134.823348 256.085297C137.659431 255.502386 140.136801 255.334239 142.759898 253.843334 145.194535 252.448938 147.322172 250.576771 149.014975 248.339314 151.81743 244.740963 154.675933 239.505978 153.924875 234.663338 157.464455 235.208284 160.707394 236.958442 163.105715 239.618076 164.099344 242.919551 163.753013 246.479505 162.14167 249.527554 158.666627 256.769096 149.452158 263.562244 141.347461 262.418843zM67.0263777 256.074087L67.1496857 256.074087C66.2865298 259.257675 64.2799727 261.869562 60.5022645 262.407633 52.3975672 263.528615 43.1830981 256.802725 39.708055 249.527554 38.0988417 246.479257 37.7487101 242.921598 38.7328009 239.618076 41.1368645 236.959851 44.3827361 235.210247 47.9248504 234.663338 47.1737927 239.505978 50.0322959 244.752172 52.83475 248.339314 54.5260887 250.573944 56.6494538 252.445707 59.0786178 253.843334 61.7129247 255.323029 64.1902941 255.491177 67.0263777 256.074087z"/>
      <path fill="#1AECF7" d="M129.409006,158.492635 C132.390818,170.677705 137.995726,184.678766 133.130665,197.121662 C131.068059,202.390276 127.178253,209.004068 122.335612,211.92983 C119.44348,213.667351 116.495298,214.452038 113.681634,215.786007 C110.467844,217.073191 107.053124,217.786488 103.592799,217.893452 C98.9844562,218.025581 94.3755812,217.649654 89.849564,216.77247 C87.0807394,215.102208 84.1549773,214.33994 81.2292152,212.927503 L80.3660593,212.467901 C80.0633943,212.299754 79.7607292,212.154026 79.4580642,211.974669 C74.6154235,209.048907 70.7256171,202.435115 68.6630109,197.166501 C63.7979506,184.723605 69.4028588,170.722544 72.38467,158.537474 C77.0031144,139.693772 82.9779465,121.186365 88.5828548,102.57807 C89.4796401,99.9848659 90.4025817,97.4028715 91.3516795,94.8320869 C92.5623396,91.6148696 93.0667814,87.9940988 94.6361557,84.9338189 C95.6226195,82.9945207 98.951935,76.257421 101.294787,76.3020375 C105.778713,76.3919388 107.673172,91.9063248 108.581167,95.1683814 C110.744662,102.835896 116.136584,109.494527 117.212726,117.419867 C117.255148,117.768107 117.526628,118.044188 117.874105,118.092456 C122.032947,131.454557 126.068481,144.872708 129.409006,158.492635 Z"/>
      <path fill="#BDBDB5" d="M188.865873,205.517815 C195.289098,226.962194 189.841127,250.525228 171.983889,264.223624 C163.262652,270.949513 152.579697,273.908905 142.255456,276.6441 C136.753475,278.168869 131.154397,279.318646 125.49678,280.085514 C124.577575,280.208822 123.658371,280.276081 122.750375,280.35455 C118.423386,279.827688 113.782522,280.35455 109.545212,280.421808 C104.668941,280.489067 99.8263007,281.150446 94.9724502,281.262545 C94.8003045,281.212791 94.6239372,281.179018 94.4455888,281.161656 C88.3922879,280.489067 82.3614066,280.836572 76.3193156,280.040675 C70.6655771,279.272699 65.0703012,278.122933 59.5718497,276.599261 C49.2476088,273.864066 38.5534439,270.871045 29.8322066,264.178784 C11.974969,250.480389 6.5269982,226.917354 13.0174819,205.472975 C15.6966281,196.505122 18.9138454,186.573225 17.8713325,177.022461 C17.2435827,171.271825 16.9521275,166.227408 18.880216,160.6225 C20.8083044,155.017592 24.6308518,151.721905 27.9937967,147.17072 C33.9910486,139.043603 35.3474364,129.235014 36.2442217,119.392795 C37.4745855,107.903756 40.6353088,96.7047903 45.5932086,86.2677871 C50.7833536,75.0579706 58.1930423,64.6216315 67.743806,57.0101661 C75.1422848,51.091383 83.4935981,48.4122369 92.2260451,46.9213313 C94.2390542,46.6787006 96.2632572,46.5402616 98.2905558,46.5065681 C105.173383,46.4168895 111.854434,47.7620675 118.524275,49.3762811 C122.162852,50.4245478 125.694597,51.8132255 129.072712,53.5239132 C130.813292,54.5498495 132.480132,55.6960366 134.06108,56.954117 C143.600634,64.5655824 151.010323,74.9682921 156.211678,86.211738 C161.190114,96.6598629 164.366152,107.874537 165.605504,119.381585 C166.502289,129.257433 167.847467,139.032393 173.855929,147.15951 C177.218874,151.744325 181.030211,155.006382 182.980719,160.61129 C184.931227,166.216198 184.617353,171.260616 183.989603,177.011251 C182.969509,186.651694 186.186727,196.549962 188.865873,205.517815 Z M166.973101,245.581699 C167.937146,237.734827 164.562991,233.351789 159.529783,231.43491 C152.187353,226.637109 141.594077,228.587617 134.599151,235.324717 C125.631298,243.889017 123.961036,265.389445 138.903721,268.561823 C152.321871,271.442745 165.347678,258.95501 166.973101,245.615328 L166.973101,245.581699 Z M165.85212,227.298488 C166.150483,227.464691 166.514851,227.459093 166.807968,227.283804 C167.101086,227.108515 167.278422,226.790164 167.273289,226.448673 C167.26793,226.107181 167.080898,225.794428 166.782534,225.628225 C153.532531,217.545948 133.870513,216.324078 124.93629,231.872093 C124.117973,233.28453 125.821865,235.235038 127.178253,234.248574 C132.088153,230.605384 135.574405,226.401703 141.851903,224.944427 C149.183123,223.307793 159.13744,224.13732 165.896959,227.332118 L165.85212,227.298488 Z M137.894837,203.937231 C144.531049,191.606432 141.257782,179.029018 138.298391,166.171359 C135.069964,151.957312 129.442636,138.146818 124.599995,124.459632 C122.940942,119.807558 121.23705,115.189114 119.600417,110.615508 C119.48892,108.751647 119.111438,106.91331 118.479435,105.156328 C116.584976,99.6410981 113.995509,94.9329752 112.796058,89.1935492 C111.596608,83.4541232 108.312132,72.8496368 101.967376,71.2578428 C99.5908946,70.6749324 97.4834491,71.9528515 96.1158515,73.9145693 C93.7241324,77.289248 91.7868878,80.9639825 90.3540058,84.8441404 C88.6501137,89.8437185 87.2825161,95.0114439 86.0606461,100.224009 C82.9106876,108.194188 80.018555,116.254046 77.0927929,124.426002 C72.2389424,138.113188 66.6228243,151.923682 63.3831873,166.137729 C60.4462154,178.995389 57.1617392,191.595223 63.7979506,203.903601 C66.398628,208.712612 69.9969791,214.452038 74.5145351,217.590787 C76.8347156,219.001063 79.3295494,220.101503 81.9354336,220.864053 L82.338987,220.987361 C84.9638136,222.17047 87.6821506,223.134074 90.4661039,223.868284 C95.5217312,225.045315 102.572706,225.785163 107.673172,224.989266 C111.428461,224.383936 116.641025,223.475941 120.00397,220.785585 C122.494167,220.047789 124.876226,218.984908 127.088574,217.624417 C131.740648,214.485668 135.338999,208.779871 137.939677,203.97086 L137.894837,203.937231 Z M74.5369547,234.203735 C75.9381818,235.235038 77.6308641,233.239691 76.778918,231.827254 C67.8110649,216.279239 48.1826762,217.501109 34.9214633,225.583386 C34.519686,225.869415 34.3985776,226.412557 34.6407807,226.842179 C34.8829838,227.271801 35.4103828,227.449342 35.8630879,227.253649 C42.5889778,224.058851 52.5769243,223.229325 59.8296755,224.899587 C66.1968513,226.412913 69.6831042,230.639013 74.581794,234.282204 L74.5369547,234.203735 Z M62.8899554,268.516983 C77.8438506,265.344605 76.1287487,243.855387 67.2057348,235.279877 C60.16597,228.553988 49.6063229,226.59227 42.2751029,231.390071 C37.2418953,233.30695 33.8677406,237.667568 34.820575,245.53686 C36.4908376,258.95501 49.5278542,271.442745 62.9347947,268.595452 L62.8899554,268.516983 Z"/>
      <path fill="#A3A39B" d="M145.360575,265.804208 C134.206808,266.925189 123.579902,270.512331 112.403715,271.566053 C101.866487,272.552517 91.015385,272.025656 80.4557378,271.80146 C71.2076392,271.599683 61.8362327,268.438515 53.3391918,264.817744 C48.9561535,262.956914 44.472227,261.566897 40.2685458,259.324934 C34.6636375,256.287074 33.3857185,251.231446 32.5337724,245.077257 C31.3455319,236.535377 30.4375367,225.314351 33.5538657,217.119975 C33.9686289,215.998993 34.4394412,214.878011 34.9214633,213.835499 C38.6207028,210.595862 41.2101704,206.089515 44.348919,202.222129 C46.0976503,200.069844 48.0033191,198.018448 49.78568,195.866163 C57.6998104,191.045942 62.5200315,176.921573 63.954888,169.041072 C65.0758696,162.673896 63.954888,157.707947 60.591943,152.226347 C57.2289981,146.744747 52.7450715,142.30566 51.0411794,136.1851 C53.3173225,131.640986 54.9436974,126.799596 55.8726103,121.802905 C57.7558595,110.458571 55.9734987,98.4640674 59.4149123,87.4111884 C61.1075946,84.3845379 63.0132634,81.4587758 65.0198206,78.6226923 C69.5037471,72.0985791 75.4449499,66.2918941 79.4244347,59.4090668 C79.7275175,58.863586 79.9109438,58.259808 79.9625059,57.6379158 C81.0386483,56.4347289 82.0961076,55.2315419 83.134884,54.0283549 C84.1549773,52.8289046 83.1909331,50.5308922 81.5206704,51.1362223 C80.141863,51.6294542 78.796685,52.1563156 77.4963463,52.7055966 C76.5259187,52.113058 75.3315366,52.017341 74.279129,52.4477708 C58.215462,58.7476877 44.1471423,74.788935 39.2484525,91.9735837 C35.672521,104.506158 32.4440939,118.652947 32.7243393,132.328923 C31.2222239,134.918391 29.6192201,137.474229 27.9601673,140.041277 C21.881287,149.153201 18.0756799,159.58979 16.862449,170.475928 C15.2428988,176.307674 14.6511509,182.376883 15.1137176,188.411635 C15.4836416,194.016543 15.1137176,196.336975 13.3537764,201.370183 C11.7703938,206.083564 10.8020845,210.981626 10.4728536,215.942944 C9.72179589,223.453521 11.9637592,258.203952 23.9918923,259.515501 C28.1171047,263.909749 33.2512007,267.239064 38.5646537,271.297018 C46.6133019,277.372738 57.8679576,281.554 67.4747704,284.053789 C80.444528,287.416734 93.9859863,287.349475 107.292038,287.226167 C121.53012,287.034259 135.57192,283.876954 148.521743,277.955649 C154.22754,275.45586 151.380247,265.221297 145.360575,265.804208 Z"/>
      <path fill="#A3A39B" d="M111.439671,224.72023 C101.530193,225.437659 91.3628893,226.962194 82.1372103,222.2877 C74.5705842,218.431523 65.176758,213.207749 61.9595407,204.441672 C60.6479921,200.854531 55.9847085,201.493491 55.6372042,205.338458 C54.5162225,217.938291 65.1879678,227.82535 74.5257449,233.88986 C85.1078117,240.750268 103.671268,244.752172 114.488741,236.490538 C118.860569,233.161222 118.053462,224.226998 111.439671,224.72023 Z"/>
      <path fill="#1E7D81" d="M117.694748,207.132028 C114.53358,202.513584 110.654983,202.020352 106.227106,199.386045 C101.927608,197.02348 98.5419639,193.290591 96.6090834,188.781559 C91.194742,177.571742 90.8584475,164.24327 92.4838709,151.946102 C94.2138358,139.972141 96.6468336,128.110341 99.7702516,116.422193 C102.561496,105.414154 103.805786,93.7335249 104.523214,82.3891906 C104.594617,81.5739585 104.331613,80.7647161 103.794576,80.1472273 C103.716107,78.1406702 101.765599,76.134113 99.7926713,77.5353401 C96.0149631,80.2481156 94.3222808,85.0010778 92.5735494,89.2495983 C90.6307097,93.7508625 89.179959,98.4488893 88.2465603,103.261869 C87.5651179,103.740273 86.9667868,104.327243 86.4754093,104.99939 C82.8322189,110.010178 81.7784962,116.579131 80.265171,122.542753 C78.6957967,128.696942 77.2945696,134.873551 75.4785793,140.949272 C71.8129693,153.224021 67.1160562,165.061587 65.7820881,177.885617 C64.6611064,188.333166 65.9502353,199.767179 73.6289596,207.244126 C78.919993,212.423062 85.455316,216.738841 92.6856476,218.140068 C95.6696438,219.590096 99.0240641,220.098341 102.30367,219.597344 C103.495674,219.431786 104.585028,218.83324 105.36395,217.915872 C107.29113,218.466513 109.279323,218.775285 111.282733,218.835077 C116.562557,218.969595 121.012854,212.008298 117.694748,207.132028 Z"/>
      <path fill="#000" d="M139.55389,55.3847427 C138.892511,54.8354617 138.231132,54.2637611 137.547333,53.7705291 C137.552578,53.7484162 137.552578,53.7253832 137.547333,53.7032702 C135.742553,48.4570761 127.895681,46.3384208 123.153929,44.9259839 C115.438464,42.653215 107.432254,41.5202607 99.3891179,41.5618714 C90.5990939,41.6956185 81.9502849,43.7946208 74.0773523,47.7060184 C73.8867854,47.795697 73.6850087,47.8741657 73.4944418,47.975054 L72.9115314,48.2777191 L72.7321743,48.3673976 C70.4891608,49.5153971 68.337977,50.83459 66.2977396,52.313253 L65.3897445,52.9634224 C65.0982893,53.1988285 64.806834,53.411815 64.5265886,53.6248015 C63.83158,54.1628727 63.158991,54.7457832 62.4976118,55.2838544 C62.4976118,55.2838544 44.4610171,72.345195 46.4451547,73.7800515 C40.8402464,82.3443513 37.1073775,91.771807 33.7892719,101.546767 C29.686479,113.5749 30.1012422,127.01547 24.3393966,138.371014 C21.873237,143.224865 17.837703,146.800796 15.6742084,151.822794 C13.4859844,157.109465 12.278067,162.750211 12.1094868,168.469371 C11.8852905,174.07428 13.4098255,179.242005 12.6811874,184.925382 C11.7619825,192.245392 9.03799709,198.018448 6.80724361,204.867645 C3.34560475,215.397273 2.62036687,226.634602 4.69979811,237.521841 C6.68393563,248.821336 13.1856292,258.035805 20.7298357,266.039614 C29.5183318,275.354971 42.028487,279.962206 53.9781513,283.123374 C65.9278157,286.284542 79.2899169,290.252817 91.6655543,287.786658 C91.9457997,287.786658 92.2260451,287.786658 92.4950807,287.842707 C98.1784577,288.190211 103.850625,287.66335 109.556421,287.764238 L110.128122,287.764238 C122.526179,290.252817 136.011588,286.273333 147.893994,283.112164 C159.776399,279.950996 172.353813,275.343762 181.1311,266.028404 C188.675306,258.024595 195.177,248.810126 197.172347,237.510631 C199.251778,226.623392 198.52654,215.386063 195.064901,204.856436 C192.822938,198.007238 190.110163,192.234182 189.190958,184.914172 C188.46232,179.230795 189.975645,174.096699 189.762658,168.458161 C189.588634,162.73966 188.380924,157.099883 186.197937,151.811584 C184.034442,146.800796 179.998908,143.224865 177.532748,138.359804 C171.770903,127.00426 172.185666,113.56369 168.082873,101.535557 C164.719928,91.7605972 160.998269,82.3331415 155.42699,73.7688417 C157.399918,72.3003558 145.909856,59.2857588 139.55389,55.3847427 Z M156.234097,86.2677871 C161.212533,96.715912 164.388572,107.930586 165.627923,119.437634 C166.524709,129.313482 167.869887,139.088442 173.878348,147.215559 C177.241293,151.800374 181.052631,155.062431 183.003139,160.667339 C184.953647,166.272247 184.639772,171.316665 184.012022,177.067301 C182.969509,186.618064 186.186727,196.549962 188.865873,205.517815 C195.289098,226.962194 189.841127,250.525228 171.983889,264.223624 C163.262652,270.949513 152.579697,273.908905 142.255456,276.6441 C136.753475,278.168869 131.154397,279.318646 125.49678,280.085514 C124.577575,280.208822 123.658371,280.276081 122.750375,280.35455 C118.423386,279.827688 113.782522,280.35455 109.545212,280.421808 C104.668941,280.489067 99.8263007,281.150446 94.9724502,281.262545 C94.8003045,281.212791 94.6239372,281.179018 94.4455888,281.161656 C88.3922879,280.489067 82.3614066,280.836572 76.3193156,280.040675 C70.6655771,279.272699 65.0703012,278.122933 59.5718497,276.599261 C49.2476088,273.864066 38.5534439,270.871045 29.8322066,264.178784 C11.974969,250.480389 6.5269982,226.917354 13.0174819,205.472975 C15.6966281,196.505122 18.9138454,186.573225 17.8713325,177.022461 C17.2435827,171.271825 16.9521275,166.227408 18.880216,160.6225 C20.8083044,155.017592 24.6308518,151.721905 27.9937967,147.17072 C33.9910486,139.043603 35.3474364,129.235014 36.2442217,119.392795 C37.4745855,107.903756 40.6353088,96.7047903 45.5932086,86.2677871 C50.7833536,75.0579706 58.1930423,64.6216315 67.743806,57.0101661 C75.1422848,51.091383 83.4935981,48.4122369 92.2260451,46.9213313 C94.2390542,46.6787006 96.2632572,46.5402616 98.2905558,46.5065681 C105.173383,46.4168895 111.854434,47.7620675 118.524275,49.3762811 C122.162852,50.4245478 125.694597,51.8132255 129.072712,53.5239132 C130.813292,54.5498495 132.480132,55.6960366 134.06108,56.954117 C143.623054,64.6216315 151.032742,75.0243412 156.234097,86.2677871 Z"/>
      <path fill="#000" d="M159.529783,231.46854 C152.187353,226.670738 141.594077,228.621246 134.599151,235.358346 C125.631298,243.922646 123.961036,265.423074 138.903721,268.595452 C152.355501,271.442745 165.347678,258.95501 166.928262,245.615328 C167.937146,237.746037 164.562991,233.385418 159.529783,231.46854 Z M162.1753,249.538764 C158.700257,256.769096 149.485788,263.562244 141.38109,262.418843 C137.603382,261.880772 135.596825,259.268885 134.733669,256.085297 L134.856977,256.085297 C137.693061,255.502386 140.17043,255.334239 142.793527,253.843334 C145.228165,252.448938 147.355801,250.576771 149.048605,248.339314 C151.851059,244.740963 154.709562,239.505978 153.958504,234.663338 C157.498085,235.208284 160.741024,236.958442 163.139344,239.618076 C164.136057,242.922984 163.789666,246.487589 162.1753,249.538764 L162.1753,249.538764 Z"/>
      <path fill="#000" d="M166.827374 225.695484C153.577371 217.613207 133.915353 216.391337 124.981129 231.939352 124.162812 233.351789 125.866704 235.302297 127.223092 234.315833 132.132992 230.672643 135.619245 226.468962 141.896742 225.011686 149.149493 223.341423 159.10381 224.170949 165.86333 227.365747 166.32456 227.63196 166.914269 227.473868 167.180483 227.012638 167.446696 226.551408 167.288604 225.961698 166.827374 225.695484L166.827374 225.695484zM124.644834 124.493261C122.985782 119.841187 121.281889 115.222743 119.645256 110.649138 119.533759 108.785276 119.156277 106.946939 118.524275 105.189957 116.629816 99.6747276 114.040348 94.9666047 112.840898 89.2271786 111.641447 83.4877526 108.356971 72.8832662 102.001005 71.2914723 99.6357338 70.7085618 97.5170785 71.9864809 96.1606907 73.9481988 93.7689716 77.3228775 91.831727 80.9976119 90.398845 84.8777699 88.6949529 89.877348 87.3273553 95.0450734 86.1054853 100.257638 82.9555269 108.227818 80.0633943 116.287676 77.1376322 124.459632 72.2837816 138.146818 66.6676636 151.957312 63.4280266 166.171359 60.4910547 179.029018 57.2065785 191.628852 63.8427898 203.937231 66.4434672 208.746242 70.0418183 214.485668 74.5593744 217.624417 76.8795548 219.034692 79.3743887 220.135133 81.9802729 220.897683L82.3838263 221.020991C85.0086528 222.2041 87.7269899 223.167703 90.5109432 223.901914 95.5665704 225.078944 102.617545 225.818792 107.718012 225.022895 111.4733 224.417565 116.685865 223.50957 120.04881 220.819214 122.539006 220.081419 124.921065 219.018538 127.133414 217.658046 131.61734 214.519297 135.249321 208.779871 137.849998 203.97086 144.48621 191.640062 141.212943 179.062648 138.253552 166.204988 135.103593 151.990941 129.487475 138.180447 124.644834 124.493261zM133.130665 197.121662C131.068059 202.390276 127.178253 209.004068 122.335612 211.92983 119.44348 213.667351 116.495298 214.452038 113.681634 215.786007 110.467844 217.073191 107.053124 217.786488 103.592799 217.893452 98.9844562 218.025581 94.3755812 217.649654 89.849564 216.77247 87.0807394 215.102208 84.1549773 214.33994 81.2292152 212.927503L80.3660593 212.467901C80.0633943 212.299754 79.7607292 212.154026 79.4580642 211.974669 74.6154235 209.048907 70.7256171 202.435115 68.6630109 197.166501 63.7979506 184.723605 69.4028588 170.722544 72.38467 158.537474 77.0031144 139.693772 82.9779465 121.186365 88.5828548 102.57807 89.4796401 99.9848659 90.4025817 97.4028715 91.3516795 94.8320869 92.5623396 91.6148696 93.0667814 87.9940988 94.6361557 84.9338189 95.6226195 82.9945207 98.951935 76.257421 101.294787 76.3020375 105.778713 76.3919388 107.673172 91.9063248 108.581167 95.1683814 110.744662 102.835896 116.136584 109.494527 117.212726 117.419867 117.255148 117.768107 117.526628 118.044188 117.874105 118.092456 121.976898 131.544236 126.012432 144.917547 129.352957 158.537474 132.390818 170.677705 137.995726 184.678766 133.130665 197.121662zM67.250574 235.358346C60.2108093 228.632456 49.6511622 226.670738 42.3199422 231.46854 37.2867346 233.385418 33.9125798 237.746037 34.8654142 245.615328 36.4908376 258.95501 49.5278542 271.397906 62.8899554 268.595452 77.8886899 265.423074 76.1735879 243.922646 67.250574 235.358346zM60.5246841 262.418843C52.4199868 263.539825 43.2055177 256.813935 39.7304746 249.538764 38.1212614 246.490466 37.7711298 242.932807 38.7552206 239.629286 41.1592841 236.971061 44.4051557 235.221457 47.9472701 234.674547 47.1962124 239.517188 50.0547156 244.763382 52.8571697 248.350523 54.5485084 250.585153 56.6718734 252.456917 59.1010375 253.854543 61.7353443 255.323029 64.2127138 255.491177 67.0487973 256.096507L67.1721053 256.096507C66.2865298 259.324934 64.2799727 261.880772 60.5022645 262.418843L60.5246841 262.418843z"/>
      <path fill="#000" d="M35.0111419 225.695484C34.6093646 225.981513 34.4882561 226.524655 34.7304592 226.954277 34.9726623 227.383899 35.5000613 227.56144 35.9527664 227.365747 42.6786563 224.170949 52.6666028 223.341423 59.9193541 225.011686 66.1968513 226.446542 69.6831042 230.672643 74.581794 234.315833 75.9830211 235.347136 77.6757034 233.351789 76.8237573 231.939352 67.923163 216.357707 48.2723547 217.579577 35.0111419 225.695484zM165.695182 135.321944C165.695182 135.321944 158.823565 141.162258 156.07716 146.655068 153.330755 152.147879 141.650126 159.882652 132.884049 160.398303L132.884049 169.16438C132.884049 169.16438 145.775338 178.266751 158.139766 172.247079 170.504194 166.227408 174.461259 152.495383 163.464429 144.771819 163.464429 144.771819 161.917474 141.162258 165.695182 135.321944zM35.5043738 135.321944C35.5043738 135.321944 42.3759913 141.162258 45.1223963 146.655068 47.8688014 152.147879 59.5494301 159.882652 68.3155066 160.398303L68.3155066 169.16438C68.3155066 169.16438 55.4242177 178.266751 43.0597901 172.247079 30.6953625 166.227408 26.7495071 152.495383 37.7463371 144.771819 37.7463371 144.771819 39.2932917 141.162258 35.5043738 135.321944z"/>
      <path fill="#1AECF7" d="M146.033164 164.209641C146.033164 164.209641 144.912183 160.689759 149.31764 162.4497 149.528898 163.129216 150.142595 163.604047 150.853385 163.63794 152.153724 163.806088 153.173817 161.541705 153.454063 157.909724 153.454063 157.909724 154.362058 154.176855 156.402244 154.905493 158.173395 155.544453 157.198141 161.631383 155.561508 164.714083 153.924875 167.796782 148.72352 169.646402 146.033164 164.209641zM54.4713833 164.209641C54.4713833 164.209641 55.5923649 160.689759 51.186907 162.4497 50.975649 163.129216 50.3619526 163.604047 49.6511622 163.63794 48.3508235 163.806088 47.3307302 161.541705 47.0504847 157.909724 47.0504847 157.909724 46.1424896 154.176855 44.102303 154.905493 42.3423618 155.544453 43.306406 161.631383 44.9542491 164.714083 46.6020921 167.796782 51.7586077 169.646402 54.4713833 164.209641z"/>
      <path fill="#000" d="M196.454919,5.06387656 L194.212955,5.06387656 C191.677612,5.28247561 189.158117,5.65684327 186.668749,6.18485821 C163.296282,10.8929811 159.608252,27.0687463 159.608252,27.0687463 L159.608252,27.0687463 C158.45023,29.794731 157.629571,32.6519793 157.164512,35.576997 C157.164512,31.6984005 156.760959,27.517139 156.760959,27.517139 C151.290568,31.1603293 146.952369,41.0810169 150.853385,44.9259839 C159.193489,53.1427794 154.653513,62.0994228 154.653513,62.0994228 L161.693278,85.1243858 C170.593872,80.2481156 169.002078,70.148071 169.002078,70.148071 C173.76625,68.5674869 177.790574,66.0116487 189.090069,54.6112654 C200.389564,43.210882 194.683768,32.9538999 194.683768,32.9538999 C193.541013,23.6277874 194.141596,14.1705115 196.454919,5.06387656 Z"/>
      <path fill="#000" d="M161.693278,90.0567098 C161.05102,90.0567098 160.414885,89.9318926 159.821238,89.6867811 C158.429775,89.1231672 157.367056,87.9615902 156.929106,86.5256129 L149.900551,63.5118597 C149.508207,62.2339406 147.938833,64.038721 147.042048,63.0410474 C144.889763,60.6645663 154.978598,54.7682028 147.367132,48.4682859 C144.957022,46.4617288 144.093866,43.031525 144.45258,39.3434953 C145.30386,32.9289086 148.758064,27.1475769 154.003344,23.358297 C154.588908,22.9705224 155.249756,22.710767 155.942642,22.5960295 C158.47606,16.822974 165.896959,5.31049252 185.603816,1.29737823 C188.276808,0.711617635 190.983576,0.292311861 193.708514,0.0418787824 C193.865258,0.0308796718 194.022581,0.0308796718 194.179326,0.0418787824 L196.421289,0.0418787824 C197.989867,0.0445150494 199.465421,0.786440637 200.403036,2.04394729 C201.34065,3.30145393 201.630601,4.92738155 201.185461,6.43147417 L201.185461,6.43147417 C199.131177,14.6375792 198.546711,23.1426967 199.45915,31.5526729 C200.927635,35.027716 204.29058,46.2823717 192.587532,58.0750987 C183.160076,67.581023 178.373485,71.3587312 174.001656,73.4549669 C173.731916,80.1651008 169.950244,86.2379203 164.047339,89.4401652 C163.32558,89.8368577 162.516829,90.0486733 161.693278,90.0567098 Z M159.933337,62.26757 L163.823143,74.9907117 C164.1738,73.6490985 164.268869,72.2534815 164.103388,70.8767091 C163.738218,68.4820574 165.161992,66.1755431 167.466333,65.4287383 C170.896537,64.3077566 174.192223,62.5926547 185.592607,51.1138026 C193.652465,42.9754759 190.771542,36.2944253 190.311939,35.3640105 C189.978448,34.8125249 189.778809,34.1905734 189.729029,33.5480202 C188.831032,25.9138821 188.98946,18.1924047 190.199841,10.6015259 C189.359105,10.7472535 188.529578,10.9154008 187.711262,11.0947578 L187.621583,11.0947578 C168.004404,15.0181936 164.59662,27.6740764 164.462102,28.2121476 C164.399519,28.4858477 164.309381,28.752507 164.193067,29.0080445 C163.197095,31.3615918 162.489473,33.8269749 162.085621,36.3504743 C161.817193,38.0189492 160.72049,39.4372349 159.173238,40.1168478 C157.625986,40.7964606 155.83959,40.6445434 154.429317,39.7134193 C154.2689,40.2738668 154.2689,40.8680737 154.429317,41.4285212 C162.590063,49.5556381 161.155207,58.3441343 159.933337,62.26757 Z"/>
      <path fill="#BDBDB5" d="M150.864595,63.7136363 C150.864595,63.7136363 159.193489,53.1427794 150.864595,44.9259839 C146.963579,41.0810169 151.301778,31.1603293 156.772168,27.517139 C156.772168,27.517139 157.680164,36.3616842 156.772168,40.217861 C156.772168,40.217861 155.864173,8.68464728 194.190536,5.06387656 L196.432499,5.06387656 C196.432499,5.06387656 191.455341,19.1209864 194.683768,32.9538999 C194.683768,32.9538999 202.160715,50.8896063 169.046917,70.148071 C169.046917,70.148071 169.226274,80.8086065 161.738117,85.1243858 L150.864595,63.7136363 Z"/>
      <path fill="#A3A39B" d="M158.442431,74.5086896 L161.693278,71.2914723 L168.777882,62.6711234 L187.083512,22.7978062 C187.083512,22.7978062 190.379198,16.5875679 190.379198,12.9667972 C190.379198,12.9667972 173.407536,11.2180658 159.608252,27.0351168 C159.608252,27.0351168 164.249116,6.49873307 196.454919,5.03024711 C194.13741,14.1476644 193.536803,23.6167369 194.683768,32.9538999 C194.683768,32.9538999 200.434404,43.2220918 189.134909,54.6112654 C177.835414,66.0004389 173.811089,68.5674869 169.046917,70.148071 C169.046917,70.148071 170.638711,80.2369058 161.738117,85.1243858 L158.442431,74.5086896 Z"/>
      <path fill="#000" d="M186.926575 13.0004266C186.926575 13.0004266 168.553686 18.6725938 169.910073 47.4594025 169.910073 47.4594025 168.094083 63.5679087 162.19772 70.1368612 162.19772 70.1368612 160.157533 75.3606357 164.249116 71.7286551 166.748141 69.3156885 168.332847 66.1106206 168.733043 62.6599136 168.733043 62.6599136 185.749544 56.0797513 187.789731 45.4192159 189.829917 34.7586804 189.605721 28.8623169 185.547767 18.6613839 185.216398 16.6653359 185.714439 14.6205318 186.926575 13.0004266L186.926575 13.0004266zM132.2563 48.7149019C132.2563 48.7149019 133.321232 47.4369828 149.586676 62.3572486 149.921004 62.6653739 150.218209 63.0114854 150.472252 63.3885517 150.57314 63.5342793 149.810872 63.8257345 149.900551 63.9714621 153.263496 69.3409642 153.543741 71.1793741 153.543741 71.1793741L148.398435 65.2045419 132.2563 48.7149019zM4.95762389 5.06387656L7.19958719 5.06387656C9.7386314 5.28252524 12.2618523 5.65689036 14.7550035 6.18485821 38.1050512 10.8481419 41.7706612 27.023907 41.7706612 27.023907L41.7706612 27.023907C42.9316824 29.7496928 43.7560799 32.6068511 44.225611 35.5321577 44.225611 31.6535612 44.6291644 27.4722997 44.6291644 27.4722997 50.088345 31.11549 54.426544 41.0361776 50.5255279 44.8811447 42.2302637 53.1427794 46.7141903 62.0994228 46.7141903 62.0994228L39.6856353 85.1243858C30.7177821 80.2481156 32.3656252 70.148071 32.3656252 70.148071 27.6014532 68.5674869 23.5771291 66.0116487 12.277634 54.6112654.978139044 43.210882 6.73998471 32.9538999 6.73998471 32.9538999 7.87230853 23.6268999 7.26800402 14.1708646 4.95762389 5.06387656z"/>
      <path fill="#000" d="M39.7192648,90.0570955 C41.9075696,90.0525292 43.8364385,88.6195252 44.472227,86.5256129 L55.8614005,65.6529346 C56.2537441,64.3750155 56.7918153,64.1956585 55.9734987,62.816851 C54.3480753,60.0480264 47.8575915,55.1044973 54.0454102,48.4346565 C56.2989054,45.9623527 57.3630651,42.6307144 56.9599625,39.3098659 C56.1086824,32.8952791 52.6544786,27.1139474 47.4091989,23.3246676 C46.8236344,22.9368929 46.1627861,22.6771375 45.4699006,22.5624001 C42.9364821,16.7893446 35.5155836,5.27686308 15.7975164,1.26374878 C13.1246899,0.677105143 10.4178662,0.257790816 7.69281911,0.00824933295 C7.5360744,-0.00274977765 7.37875153,-0.00274977765 7.22200682,0.00824933295 L4.98004353,0.00824933295 C3.40949214,0.0073522153 1.93065432,0.747802097 0.99044346,2.00583071 C0.0502326012,3.26385932 -0.241035636,4.89186121 0.204661708,6.39784472 L0.204661708,6.39784472 C2.24713474,14.6328844 2.81264921,23.1649416 1.87492436,31.5975122 C0.440067854,35.1286043 -2.91166727,46.3384208 8.78017131,58.1199379 C18.207627,67.6258623 23.0054284,71.4035704 27.3772568,73.4998061 C27.6313392,80.2117015 31.4121977,86.2900603 37.320364,89.4850044 C38.0605479,89.8706662 38.8846993,90.0670761 39.7192648,90.0570955 L39.7192648,90.0570955 Z M41.5016256,62.2227308 L37.6118193,74.9458725 C37.266102,73.6035412 37.167344,72.2095339 37.320364,70.8318698 C37.6904257,68.4362247 36.2648405,66.1267767 33.9574191,65.383899 C30.5272153,64.2629174 27.2315292,62.5478154 15.8423557,51.0689634 C7.78249764,42.9754759 10.6634205,36.249586 11.1342328,35.3640105 C11.4593654,34.8095643 11.6548133,34.1887297 11.7059334,33.5480202 C12.5965142,25.9128532 12.430542,18.1913727 11.2127015,10.6015259 C12.0534377,10.7472535 12.894174,10.9154008 13.7012807,11.0947578 L13.8021691,11.0947578 C33.4193479,15.0181936 36.8271321,27.6740764 36.9616499,28.2121476 C37.0255049,28.4841003 37.1117407,28.7503065 37.2194757,29.0080445 C38.2190827,31.3611712 38.9304649,33.8265434 39.338131,36.3504743 C39.6065597,38.0189492 40.7032623,39.4372349 42.2505143,40.1168478 C43.7977662,40.7964606 45.5841626,40.6445434 46.9944357,39.7134193 C47.1501933,40.274511 47.1501933,40.8674295 46.9944357,41.4285212 C38.8673187,49.5556381 40.2461261,58.3441343 41.5016256,62.26757 L41.5016256,62.2227308 Z"/>
      <path fill="#BDBDB5" d="M50.5479475,63.7136363 C50.5479475,63.7136363 42.2190538,53.1427794 50.5479475,44.9259839 C54.4489636,41.0810169 50.1107646,31.1603293 44.651584,27.517139 C44.651584,27.517139 43.7435889,36.3616842 44.651584,40.217861 C44.651584,40.217861 45.5595792,8.68464728 7.22200682,5.06387656 L4.98004353,5.06387656 C4.98004353,5.06387656 9.96841186,19.1209864 6.79603379,32.9538999 C6.79603379,32.9538999 -0.69212361,50.8896063 32.4216743,70.148071 C32.4216743,70.148071 32.253527,80.8086065 39.7416844,85.1243858 L50.5479475,63.7136363 Z"/>
      <path fill="#A3A39B" d="M42.9589017,74.5086896 L39.7192648,71.2914723 L32.6234509,62.6711234 L14.3178206,22.7978062 C14.3178206,22.7978062 11.0333444,16.5875679 11.0333444,12.9667972 C11.0333444,12.9667972 28.0050066,11.2180658 41.7930808,27.0351168 C41.7930808,27.0351168 37.1634266,6.49873307 4.95762389,5.03024711 C7.2792526,14.1351381 7.89496071,23.5911986 6.77361416,32.9202705 C6.77361416,32.9202705 1.01176849,43.1884624 12.3112635,54.5776359 C23.6107585,65.9668095 27.6350826,68.5338574 32.3992546,70.1144416 C32.3992546,70.1144416 30.8074607,80.2032764 39.7192648,85.0907564 L42.9589017,74.5086896 Z"/>
      <path fill="#000" d="M14.4859679,13.0004266 C14.4859679,13.0004266 32.8588571,18.6725938 31.4912595,47.4706123 C31.4912595,47.4706123 33.3072498,63.5791186 39.2036132,70.148071 C39.2036132,70.148071 41.2437998,75.3718455 37.1634266,71.7398649 C34.6681915,69.3241307 33.0841956,66.120499 32.6795,62.6711234 C32.6795,62.6711234 15.6742084,56.0909611 13.622812,45.4304257 C11.5714156,34.7698902 11.8068218,28.8735268 15.8647753,18.6725938 C16.203354,16.6727605 15.7047728,14.6216864 14.4859679,13.0004266 L14.4859679,13.0004266 Z"/>
    </g>
  </g>
</svg>
