<svg xmlns="http://www.w3.org/2000/svg" width="512" height="512" viewBox="0 0 512 512" style="background:#264653">
  <g fill="none" fill-rule="evenodd">
    <rect width="512" height="512" fill="#264653"/>
    <path fill="#FFF" stroke="#13242A" stroke-width="16" d="M454.263837,41.1764817 L392.760942,390.974198 L256.972006,470.738328 L119.23397,390.945259 L57.7361627,41.1764817 L256,64.0530784 L454.263837,41.1764817 Z"/>
    <path fill="#264653" d="M374.368421,62 C381.701754,81.3333333 382.701754,97.3333333 377.368421,110 C372.035088,122.666667 360.368421,130.666667 342.368421,134 C350.650591,148.335899 354.983924,159.669233 355.368421,168 C355.752918,176.330767 352.419585,186.664101 345.368421,199 C354.035088,211.666667 358.368421,222.333333 358.368421,231 C358.368421,244 346.368421,247 346.368421,261 C346.368421,275 349.978379,278.817431 349.368421,290 C348.961782,297.455046 346.628449,304.788379 342.368421,312 L346.368421,323 C346.890085,331.294019 339.796812,343.801363 325.088603,360.522034 C324.578807,366.265423 321.67205,373.75787 316.368421,383 C323.527918,396.219237 323.527918,406.885904 316.368421,415 C309.208925,423.114096 289.208925,435.114096 256.368421,451 C224.242327,435.635897 204.242327,423.635897 196.368421,415 C188.494515,406.364103 187.827849,395.697437 194.368421,383 C191.194833,375.066029 189.437572,368.194304 189.096639,362.384825 C171.699087,343.56914 164.123022,330.440847 166.368421,323 L169.368421,311 C164.395802,302.224998 161.729135,294.891665 161.368421,289 C160.82735,280.162503 165.368421,272 165.368421,261 C165.368421,256.547619 163.402435,253.405896 161.128288,250.182256 L160.724106,249.612245 C160.656322,249.517007 160.588355,249.421627 160.520249,249.32607 L160.110267,248.750319 C157.02786,244.41199 153.832707,239.571429 154.368421,231 C154.913893,222.272456 159.247226,211.605789 167.368421,199 C160.701754,187.666667 157.368421,177.333333 157.368421,168 C157.368421,158.666667 161.701754,147.333333 170.368421,134 C152.368421,129.333333 140.701754,121.333333 135.368421,110 C130.035088,98.6666667 131.035088,82.6666667 138.368421,62 C152.717394,75.7013461 164.38406,85.3680128 173.368421,91 C182.352782,96.6319872 193.019448,100.965321 205.368421,104 C228.479532,97.3333333 245.812865,94 257.368421,94 C268.923977,94 285.590643,97.3333333 307.368421,104 C321.183253,100.046424 331.84992,95.7130905 339.368421,91 C346.886923,86.2869095 358.553589,76.6202428 374.368421,62 Z M289.368421,321 C286.035088,337 275.368421,345 257.368421,345 C239.368421,345 228.035088,337 223.368421,321 C207.863692,338.257022 199.197025,350.257022 197.368421,357 C195.539817,363.742978 199.206484,371.742978 208.368421,381 C208.018216,385.448702 208.018216,388.782035 208.368421,391 C208.718626,393.217965 209.718626,396.217965 211.368421,400 C209.182706,399.491904 207.51604,398.491904 206.368421,397 C205.220802,395.508096 203.887469,392.174762 202.368421,387 C199.651979,393.655651 198.985312,398.988984 200.368421,403 C201.75153,407.011016 205.75153,411.344349 212.368421,416 L212.368421,416 L257.368421,438 L301.368421,416 C307.638497,410.759384 311.305164,406.426051 312.368421,403 C313.431678,399.573949 312.765012,394.240616 310.368421,387 C308.856633,392.165325 307.523299,395.498658 306.368421,397 C305.213543,398.501342 303.546876,399.501342 301.368421,400 C302.99013,395.60308 303.99013,392.269747 304.368421,390 C304.746712,387.730253 304.746712,385.063587 304.368421,382 C313.745181,372.425225 317.411847,364.091892 315.368421,357 C313.324995,349.908108 304.658328,337.908108 289.368421,321 Z M236.368421,389 C245.368421,396 245.824989,403.82627 246.368421,406 C246.911854,408.17373 239.368421,411 231.368421,406 C223.368421,401 225.728048,392.472929 224.368421,391 C223.462003,390.018047 221.795337,390.684714 219.368421,393 C217.368421,388.333333 217.701754,385.333333 220.368421,384 C224.368421,382 227.368421,382 236.368421,389 Z M276.396106,389 C285.396106,382 288.396106,382 292.396106,384 C295.062773,385.333333 295.396106,388.333333 293.396106,393 C290.969191,390.684714 289.302524,390.018047 288.396106,391 C287.03648,392.472929 289.396106,401 281.396106,406 C273.396106,411 265.852674,408.17373 266.396106,406 C266.418137,405.911876 266.440026,405.814461 266.462346,405.708189 L266.53118,405.363227 C267.069743,402.562577 268.125836,395.432432 276.396106,389 Z M217.535088,368 C224.201754,367.333333 231.201754,373.333333 238.535088,386 C229.868421,379.333333 223.535088,376 219.535088,376 C215.535088,376 213.201754,379.666667 212.535088,387 C209.201754,375 210.868421,368.666667 217.535088,368 Z M295.368421,368 C302.035088,368.666667 303.701754,375 300.368421,387 C299.701754,379.666667 297.368421,376 293.368421,376 C289.368421,376 283.035088,379.333333 274.368421,386 C281.701754,373.333333 288.701754,367.333333 295.368421,368 Z M290.368421,330 C291.535364,339.458126 289.535364,346.124793 284.368421,350 C279.201478,353.875207 271.868144,354.208541 262.368421,351 C271.065544,349.477158 277.065544,347.477158 280.368421,345 C283.671298,342.522842 287.004631,337.522842 290.368421,330 Z M222.690914,330 C226.054704,337.522842 229.388037,342.522842 232.690914,345 C235.993791,347.477158 241.993791,349.477158 250.690914,351 C241.191191,354.208541 233.857858,353.875207 228.690914,350 C223.523971,346.124793 221.523971,339.458126 222.690914,330 Z M144.368421,82 C142.942465,87.2479263 136.614932,104.831508 155.368421,119 C157.64463,120.719704 163.16258,122.411344 169.025896,124.132513 L170.063594,124.436567 C174.050661,125.603372 178.117805,126.78524 181.368421,128 C185.916333,129.699562 186.900722,133.566908 188.368421,134 C189.533388,134.343761 178.368421,133 176.368421,142 C176.068421,143.35 175.700921,144.61 175.299671,145.8475 L175.137451,146.34146 C174.864351,147.16326 174.578251,147.97906 174.289151,148.80886 L174.115411,149.30858 L174.115411,149.30858 L173.941431,149.81262 C171.941121,155.6376 169.988421,162.51 171.368421,177 C173.368421,198 181.368421,199 181.368421,203 C181.368421,205.137476 174.252506,211.939837 171.368421,218 C167.356834,226.429318 168.213853,233.667968 168.368421,237 C168.400874,237.69958 172.607622,245.692833 174.368421,245 C175.072113,244.723114 176.114915,242.061577 177.302683,239.294261 L177.550432,238.720951 C178.133045,237.383194 178.746322,236.057412 179.368421,235 C180.039102,233.860011 181.039102,233.193344 182.368421,233 C177.701754,247.603629 175.368421,262.603629 175.368421,278 C175.368421,296 180.035088,310.333333 189.368421,321 L179.368421,317 L179.368421,331 L192.368421,344 L204.368421,327 C198.201082,324.954838 194.201082,322.954838 192.368421,321 C190.53576,319.045162 189.53576,315.045162 189.368421,309 C192.744762,313.277613 195.078096,315.944279 196.368421,317 C197.658746,318.055721 199.325413,318.722387 201.368421,319 C196.384494,314.161116 193.384494,310.161116 192.368421,307 C191.352348,303.838884 191.352348,297.838884 192.368421,289 L189.368421,285 C188.124954,285.76112 187.124954,287.427787 186.368421,290 C185.611888,292.572213 184.945221,296.572213 184.368421,302 C183.087996,293.98096 182.754663,288.314293 183.368421,285 C183.982179,281.685707 185.648846,278.01904 188.368421,274 C195.245366,276.758517 200.5787,280.09185 204.368421,284 C208.158142,287.90815 213.491476,295.574817 220.368421,307 L226.368421,305 L228.368421,285 C211.701754,260.333333 199.368421,245.666667 191.368421,241 C191.031487,240.803455 197.907319,241.312856 208.368421,248 C216.735371,253.34848 228.27107,263.963186 229.36381,264.990799 L229.368,264.994 L229.365708,264.958537 C229.428276,262.45181 244.488421,148 256.368421,148 C264.368421,148 273.701754,187 284.368421,265 C293.480751,256.480669 300.147418,250.814002 304.368421,248 C308.589424,245.185998 313.922758,242.852664 320.368421,241 C311.460298,248.924743 304.793632,255.591409 300.368421,261 C295.94321,266.408591 290.609877,274.408591 284.368421,285 L286.368421,305 L292.368421,307 C297.391159,297.545688 301.724492,290.879021 305.368421,287 C309.01235,283.120979 315.01235,278.787646 323.368421,274 C326.660298,276.701179 328.660298,280.034512 329.368421,284 C330.076544,287.965488 329.409877,293.965488 327.368421,302 C327.377194,296.296494 327.04386,292.296494 326.368421,290 C325.692982,287.703506 324.692982,286.036839 323.368421,285 L319.368421,290 C320.891321,295.786081 321.224654,300.452748 320.368421,304 C319.512188,307.547252 316.845521,312.547252 312.368421,319 C314.961548,317.612309 316.961548,316.278976 318.368421,315 C319.775294,313.721024 321.441961,311.721024 323.368421,309 C323.226488,314.909675 322.226488,318.909675 320.368421,321 C318.510354,323.090325 314.177021,325.090325 307.368421,327 L319.368421,344 L333.368421,332 L333.368421,317 L324.368421,321 C332.364204,308.172968 336.697537,296.839635 337.368421,287 C338.039305,277.160365 335.705972,259.160365 330.368421,233 C331.992642,232.89997 333.325975,233.566637 334.368421,235 C335.410867,236.433363 336.7442,239.433363 338.368421,244 C344.034001,241.184111 346.367334,236.850778 345.368421,231 C344.369508,225.149222 339.702841,215.815889 331.368421,203 C337.239029,192.16095 340.572362,183.827617 341.368421,178 C342.788894,167.601309 339.063414,152.864947 338.368421,148 C337.035088,138.666667 332.368421,134 324.368421,134 C326.709322,130.928352 329.042656,128.928352 331.368421,128 C336.690726,125.87555 341.750381,125.617767 346.368421,124 C353.960349,121.340437 360.103251,117.596597 362.368421,115 C376.095063,99.2649526 370.25326,81.2220783 368.368421,82 C365.972041,82.989048 359.233556,92.2416774 348.368421,99 C340.223127,104.066529 327.952773,106.430899 323.368421,110 C315.96319,115.765267 309.96319,122.431933 305.368421,130 C307.281856,121.137213 307.61519,116.470546 306.368421,116 C256.637721,97.2310185 213.032798,114.393631 208.368421,115 C205.258837,115.404246 204.59217,120.070913 206.368421,129 C199.096481,120.385966 193.693432,114.298247 190.159275,110.736843 L189.727239,110.304825 C189.234553,109.816155 188.781614,109.381214 188.368421,109 C183.028466,104.073334 167.683594,102.570159 163.368421,99 C144.345803,83.2616343 145.610706,77.4280374 144.368421,82 Z M256.368421,164 C250.195938,194.330032 245.862604,218.996699 243.368421,238 C240.874238,257.003301 238.207571,285.669968 235.368421,324 C235.781094,327.746006 236.781094,330.412673 238.368421,332 C239.955748,333.587327 242.955748,334.920661 247.368421,336 C248.246589,314.746257 249.246589,296.079591 250.368421,280 C251.490253,263.920409 253.490253,239.587076 256.368421,207 C259.202296,238.952213 261.202296,263.285546 262.368421,280 C263.534546,296.714454 264.534546,315.381121 265.368421,336 C269.204851,334.71509 271.871518,333.381757 273.368421,332 C274.865325,330.618243 276.531991,327.951576 278.368421,324 C274.93501,285.332766 271.93501,256.666099 269.368421,238 C266.801832,219.333901 262.468499,194.667234 256.368421,164 Z M315.368421,295 L310.368421,300 C308.912688,304.789067 307.579354,307.789067 306.368421,309 C305.157488,310.210933 302.824154,310.544267 299.368421,310 L296.368421,313 C303.035088,317 308.035088,316.333333 311.368421,311 C314.701754,305.666667 316.035088,300.333333 315.368421,295 Z M197.166667,295 C196.5,300.333333 197.833333,305.666667 201.166667,311 C204.5,316.333333 209.5,317 216.166667,313 L216.166667,313 L213.166667,310 C209.710933,310.544267 207.3776,310.210933 206.166667,309 C204.955733,307.789067 203.6224,304.789067 202.166667,300 L202.166667,300 Z M318.368421,137 C324.328677,149.073496 327.66201,158.40683 328.368421,165 C329.074832,171.59317 327.741499,181.259837 324.368421,194 C323.802552,192.895375 323.135885,191.895375 322.368421,191 C321.600957,190.104625 320.267624,188.771292 318.368421,187 C318.186472,194.394461 317.519806,200.394461 316.368421,205 C315.217036,209.605539 312.883703,215.605539 309.368421,223 L304.368421,213 C301.367517,218.949831 299.034183,222.949831 297.368421,225 C295.702659,227.050169 293.702659,228.383502 291.368421,229 C294.462574,221.917453 296.462574,215.917453 297.368421,211 C298.274268,206.082547 298.607601,199.41588 298.368421,191 L306.368421,201 C308.255679,193.612641 309.255679,187.945974 309.368421,184 C309.481163,180.054026 308.814497,174.054026 307.368421,166 C309.33883,166.708442 311.33883,167.708442 313.368421,169 C315.398012,170.291558 317.064679,171.624891 318.368421,173 C319.701754,167.666667 320.368421,162.666667 320.368421,158 C320.368421,153.333333 319.701754,146.333333 318.368421,137 Z M194.551906,137 C193.218573,146.333333 192.551906,153.333333 192.551906,158 C192.551906,162.666667 193.218573,167.666667 194.551906,173 C195.855648,171.624891 197.522315,170.291558 199.551906,169 C201.581497,167.708442 203.581497,166.708442 205.551906,166 C204.105831,174.054026 203.439164,180.054026 203.551906,184 C203.664648,187.945974 204.664648,193.612641 206.551906,201 L206.551906,201 L214.551906,191 C214.312726,199.41588 214.646059,206.082547 215.551906,211 C216.457753,215.917453 218.457753,221.917453 221.551906,229 C219.217668,228.383502 217.217668,227.050169 215.551906,225 C213.886144,222.949831 211.552811,218.949831 208.551906,213 L208.551906,213 L203.551906,223 C200.036624,215.605539 197.703291,209.605539 196.551906,205 C195.400521,200.394461 194.733855,194.394461 194.551906,187 C192.652704,188.771292 191.31937,190.104625 190.551906,191 C189.784442,191.895375 189.117775,192.895375 188.551906,194 C185.178828,181.259837 183.845495,171.59317 184.551906,165 C185.258317,158.40683 188.591651,149.073496 194.551906,137 Z M256.368421,112 C279.035088,112 291.701754,124 294.368421,148 C283.701754,131.333333 271.035088,123 256.368421,123 C241.701754,123 229.035088,131.333333 218.368421,148 C221.035088,124 233.701754,112 256.368421,112 Z M362.368421,94 C361.179613,99.5369024 359.84628,103.536902 358.368421,106 C356.890562,108.463098 354.223896,111.129764 350.368421,114 L354.368421,115 C350.4366,118.953229 347.103267,121.286562 344.368421,122 C341.633576,122.713438 337.300242,122.380105 331.368421,121 C330.360475,119.361759 332.360475,116.361759 337.368421,112 C339.838511,109.848631 346.28033,106.948472 350.368421,104 C353.168584,101.980426 357.168584,98.6470929 362.368421,94 Z M150.368421,94 C155.568258,98.6470929 159.568258,101.980426 162.368421,104 C166.456512,106.948472 172.898331,109.848631 175.368421,112 C180.376367,116.361759 182.376367,119.361759 181.368421,121 C175.4366,122.380105 171.103267,122.713438 168.368421,122 C165.633576,121.286562 162.300242,118.953229 158.368421,115 L158.368421,115 L162.368421,114 C158.512946,111.129764 155.84628,108.463098 154.368421,106 C152.890562,103.536902 151.557229,99.5369024 150.368421,94 Z"/>
    <polygon fill="#E9C46A" points="435 53 443 52 384 384 354 400"/>
    <polygon fill="#E9C46A" points="151 53 159 52 100 384 70 400" transform="matrix(-1 0 0 1 229 0)"/>
  </g>
</svg>
