<svg xmlns="http://www.w3.org/2000/svg" width="512" height="512" viewBox="0 0 512 512">
  <defs>
    <radialGradient id="logo-a" cx="50%" cy="49.999%" r="54.228%" fx="50%" fy="49.999%" gradientTransform="matrix(1 0 0 .8598 0 .07)">
      <stop offset="0%" stop-color="#114B5F"/>
      <stop offset="100%" stop-color="#1C0F13"/>
    </radialGradient>
  </defs>
  <g fill="none" transform="translate(63 32)">
    <path fill="url(#logo-a)" stroke="#1AECF7" stroke-linecap="round" stroke-linejoin="round" stroke-width="12" d="M214.668271,3.74652882 C224.24378,-4.11274724 237.052115,-7.44753689 250.855552,-5.42027621 C265.847413,-3.20609367 277.504302,4.60166072 283.982996,15.2919828 C290.079069,14.6408825 296.262656,15.2993543 302.113962,17.2445404 C305.778158,18.3960521 309.27042,20.0130921 312.507387,22.0496831 C314.72362,19.9823331 317.318775,18.3320473 320.170874,17.2007562 C327.644264,14.5703671 335.256826,15.0818654 341.789515,18.0059248 C348.322205,20.9299841 353.775022,26.2666044 356.70531,33.3700466 C357.781142,36.2804523 358.287229,39.1168328 358.297166,41.9642436 C359.705256,42.7201277 361.105269,43.4844021 362.491639,44.258864 L362.491639,44.258864 L367.71139,47.2028035 C369.971321,48.0750111 372.1462,49.1545294 374.209815,50.4287233 C385.534373,57.3700823 389.26473,66.1732128 390.535753,72.2308684 C392.268744,80.4494482 390.601686,88.9596823 385.485818,96.8536101 L385.305,97.126 L385.705404,97.4876617 C386.119826,97.8659044 386.531624,98.2462596 386.941617,98.6319676 L387.555354,99.2149492 C387.591454,100.039955 387.625123,100.865956 387.656349,101.692949 C390.546746,178.243544 371.919124,247.902844 341.344523,305.926549 C305.997257,373.007699 254.670226,424.513942 202.181574,453.262381 C201.226885,453.785271 200.266059,454.303784 199.291681,454.813391 C198.329377,454.301783 197.371364,453.784898 196.417723,453.262733 C122.717447,412.908213 61.51987,333.564353 32.2773504,247.968701 C16.2427981,200.931864 9.00680349,151.344473 10.9313239,101.686975 L10.9313239,101.686975 L11.0299076,99.1432654 L12.9275921,97.4465122 C13.5280569,96.909626 14.1296345,96.3727582 14.7323147,95.8372593 L14.7323147,95.8372593 L-8.33926371,61.897063 L7.83482372,50.9310317 C13.7739217,46.8767147 19.9527145,42.9482525 26.2671407,39.2700215 C29.1519425,37.5169475 32.20953,36.0810384 35.3862147,34.9824477 L35.3862147,34.9824477 L34.8021692,33.7325905 L52.3173182,25.345963 C56.5294104,23.2917573 60.8890613,21.3168895 65.2148858,19.4562924 L65.2148858,19.4562924 L83.0979846,11.690196 L86.898,20.55 L86.9511004,20.3062272 C87.417087,18.2831018 88.1419819,16.3186811 89.1149399,14.4632863 L89.3864342,13.9600105 C93.3800055,7.22719555 99.5238845,2.75710758 106.382604,0.826259562 C113.241323,-1.10458845 120.814882,-0.496196507 127.580459,3.08013596 C130.270063,4.62450392 132.485053,6.48741043 134.323026,8.67911465 C135.72657,8.39100248 137.131707,8.11202054 138.536827,7.84531502 L138.536827,7.84531502 L144.178848,6.80435187 C146.437353,6.03516148 148.762246,5.47367803 151.132075,5.12599153 C160.378161,3.78398816 167.290237,5.63124492 172.220331,8.16636054 C178.953783,3.75078578 186.856733,1.37370728 194.970022,1.37562357 C201.275597,1.20377535 207.519539,2.44358706 213.252703,4.97981897 C213.714622,4.55778883 214.186603,4.14656987 214.668271,3.74652882 Z"/>
    <ellipse cx="201.306" cy="303.539" fill="#A3A39B" rx="89.174" ry="73.48"/>
    <path fill="#000" d="M201.305884,381.234333 C149.807987,381.234333 107.916903,346.383014 107.916903,303.539095 C107.916903,260.695177 149.807987,225.843857 201.305884,225.843857 C252.803781,225.843857 294.683655,260.695177 294.683655,303.539095 C294.683655,346.383014 252.792571,381.234333 201.305884,381.234333 Z M201.305884,234.262429 C154.448851,234.262429 116.335475,265.34725 116.335475,303.539095 C116.335475,341.73094 154.448851,372.815761 201.305884,372.815761 C248.162917,372.815761 286.265083,341.74215 286.265083,303.539095 C286.265083,265.336041 248.151707,234.284849 201.305884,234.284849 L201.305884,234.262429 Z"/>
    <path fill="#777873" d="M240.360885 337.146125C236.583177 336.608054 234.57662 333.996166 233.713464 330.812579L233.836772 330.812579C236.672855 330.229668 239.150225 330.061521 241.773322 328.570615 244.207959 327.17622 246.335596 325.304052 248.028399 323.066595 250.830853 319.468244 253.689357 314.23326 252.938299 309.390619 256.477879 309.935566 259.720818 311.685724 262.119139 314.345358 263.112768 317.646832 262.766437 321.206787 261.155094 324.254836 257.680051 331.496377 248.465582 338.289526 240.360885 337.146125zM166.039802 330.801369L166.16311 330.801369C165.299954 333.984957 163.293397 336.596844 159.515688 337.134915 151.410991 338.255897 142.196522 331.530007 138.721479 324.254836 137.112266 321.206538 136.762134 317.648879 137.746225 314.345358 140.150288 311.687133 143.39616 309.937529 146.938274 309.390619 146.187217 314.23326 149.04572 319.479454 151.848174 323.066595 153.539513 325.301225 155.662878 327.172989 158.092042 328.570615 160.726349 330.050311 163.203718 330.218458 166.039802 330.801369z"/>
    <path fill="#1AECF7" d="M228.42243,233.219916 C231.404241,245.404987 237.00915,259.406048 232.144089,271.848944 C230.081483,277.117558 226.191677,283.731349 221.349036,286.657112 C218.456903,288.394633 215.508722,289.17932 212.695058,290.513288 C209.481267,291.800473 206.066548,292.513769 202.606223,292.620734 C197.99788,292.752863 193.389005,292.376935 188.862988,291.499752 C186.094163,289.82949 183.168401,289.067222 180.242639,287.654785 L179.379483,287.195183 C179.076818,287.027035 178.774153,286.881308 178.471488,286.701951 C173.628847,283.776189 169.739041,277.162397 167.676435,271.893783 C162.811374,259.450887 168.416283,245.449826 171.398094,233.264756 C176.016538,214.421054 181.99137,195.913647 187.596279,177.305352 C188.493064,174.712148 189.416006,172.130153 190.365103,169.559369 C191.575764,166.342151 192.080205,162.721381 193.64958,159.661101 C194.636043,157.721802 197.965359,150.984703 200.308211,151.029319 C204.792137,151.119221 206.686596,166.633607 207.594591,169.895663 C209.758086,177.563178 215.150008,184.221809 216.22615,192.147149 C216.268572,192.495388 216.540052,192.77147 216.887529,192.819738 C221.046371,206.181839 225.081905,219.599989 228.42243,233.219916 Z"/>
    <path fill="#BDBDB5" d="M287.879297,280.245096 C294.302522,301.689475 288.854551,325.25251 270.997313,338.950905 C262.276076,345.676795 251.593121,348.636187 241.26888,351.371382 C235.766899,352.896151 230.167821,354.045928 224.510204,354.812796 C223.590999,354.936104 222.671794,355.003363 221.763799,355.081831 C217.43681,354.55497 212.795946,355.081831 208.558635,355.14909 C203.682365,355.216349 198.839725,355.877728 193.985874,355.989826 C193.813728,355.940072 193.637361,355.9063 193.459013,355.888938 C187.405712,355.216349 181.374831,355.563853 175.332739,354.767956 C169.679001,353.99998 164.083725,352.850215 158.585274,351.326543 C148.261033,348.591348 137.566868,345.598327 128.845631,338.906066 C110.988393,325.20767 105.540422,301.644636 112.030906,280.200257 C114.710052,271.232404 117.927269,261.300507 116.884756,251.749743 C116.257007,245.999107 115.965551,240.95469 117.89364,235.349782 C119.821728,229.744873 123.644276,226.449187 127.007221,221.898002 C133.004472,213.770885 134.36086,203.962295 135.257646,194.120077 C136.488009,182.631038 139.648733,171.432072 144.606633,160.995069 C149.796778,149.785252 157.206466,139.348913 166.75723,131.737448 C174.155709,125.818665 182.507022,123.139519 191.239469,121.648613 C193.252478,121.405982 195.276681,121.267543 197.30398,121.23385 C204.186807,121.144171 210.867858,122.489349 217.537698,124.103563 C221.176276,125.15183 224.708021,126.540507 228.086136,128.251195 C229.826715,129.277131 231.493556,130.423318 233.074504,131.681399 C242.614058,139.292864 250.023747,149.695574 255.225101,160.93902 C260.203538,171.387145 263.379576,182.601819 264.618928,194.108867 C265.515713,203.984715 266.860891,213.759675 272.869353,221.886792 C276.232298,226.471607 280.043635,229.733663 281.994143,235.338572 C283.944651,240.94348 283.630776,245.987897 283.003027,251.738533 C281.982933,261.378975 285.200151,271.277243 287.879297,280.245096 Z M265.986525,320.308981 C266.950569,312.462109 263.576415,308.079071 258.543207,306.162192 C251.200777,301.364391 240.607501,303.314899 233.612575,310.051998 C224.644722,318.616298 222.974459,340.116726 237.917145,343.289104 C251.335295,346.170027 264.361102,333.682292 265.986525,320.34261 L265.986525,320.308981 Z M264.865544,302.02577 C265.163907,302.191972 265.528275,302.186375 265.821392,302.011086 C266.11451,301.835796 266.291846,301.517446 266.286713,301.175954 C266.281353,300.834462 266.094322,300.52171 265.795958,300.355507 C252.545955,292.27323 232.883937,291.05136 223.949713,306.599375 C223.131397,308.011812 224.835289,309.96232 226.191677,308.975856 C231.101576,305.332666 234.587829,301.128985 240.865327,299.671708 C248.196547,298.035075 258.150864,298.864602 264.910383,302.059399 L264.865544,302.02577 Z M236.908261,278.664512 C243.544473,266.333714 240.271206,253.7563 237.311815,240.898641 C234.083388,226.684593 228.45606,212.874099 223.613419,199.186914 C221.954366,194.53484 220.250474,189.916395 218.613841,185.34279 C218.502344,183.478929 218.124862,181.640591 217.492859,179.88361 C215.5984,174.36838 213.008933,169.660257 211.809482,163.920831 C210.610032,158.181405 207.325556,147.576919 200.9808,145.985125 C198.604318,145.402214 196.496873,146.680133 195.129275,148.641851 C192.737556,152.01653 190.800312,155.691264 189.36743,159.571422 C187.663538,164.571 186.29594,169.738726 185.07407,174.95129 C181.924112,182.92147 179.031979,190.981328 176.106217,199.153284 C171.252366,212.84047 165.636248,226.650964 162.396611,240.865011 C159.459639,253.722671 156.175163,266.322504 162.811374,278.630883 C165.412052,283.439894 169.010403,289.17932 173.527959,292.318069 C175.848139,293.728345 178.342973,294.828785 180.948858,295.591335 L181.352411,295.714643 C183.977237,296.897752 186.695574,297.861356 189.479528,298.595566 C194.535155,299.772597 201.58613,300.512445 206.686596,299.716548 C210.441885,299.111218 215.654449,298.203222 219.017394,295.512867 C221.507591,294.775071 223.88965,293.71219 226.101998,292.351698 C230.754072,289.21295 234.352423,283.507153 236.953101,278.698142 L236.908261,278.664512 Z M173.550379,308.931017 C174.951606,309.96232 176.644288,307.966973 175.792342,306.554536 C166.824489,291.00652 147.1961,292.22839 133.934887,300.310668 C133.53311,300.596697 133.412001,301.139839 133.654205,301.569461 C133.896408,301.999083 134.423807,302.176623 134.876512,301.980931 C141.602402,298.786133 151.590348,297.956607 158.843099,299.626869 C165.210275,301.140194 168.696528,305.366295 173.595218,309.009486 L173.550379,308.931017 Z M161.903379,343.244265 C176.857274,340.071887 175.142173,318.582669 166.219159,310.007159 C159.179394,303.281269 148.619747,301.319551 141.288527,306.117353 C136.255319,308.034232 132.881164,312.39485 133.833999,320.264141 C135.504262,333.682292 148.541278,346.170027 161.948219,343.322734 L161.903379,343.244265 Z"/>
    <path fill="#A3A39B" d="M244.373999,340.531489 C233.220232,341.652471 222.593326,345.239612 211.417139,346.293335 C200.879911,347.279799 190.028809,346.752938 179.469162,346.528741 C170.221063,346.326965 160.849657,343.165796 152.352616,339.545026 C147.969577,337.684196 143.485651,336.294179 139.28197,334.052216 C133.677061,331.014355 132.399142,325.958728 131.547196,319.804539 C130.358956,311.262659 129.450961,300.041632 132.56729,291.847257 C132.982053,290.726275 133.452865,289.605293 133.934887,288.56278 C137.634127,285.323143 140.223594,280.816797 143.362343,276.94941 C145.111074,274.797126 147.016743,272.745729 148.799104,270.593444 C156.713234,265.773223 161.533455,251.648855 162.968312,243.768354 C164.089294,237.401178 162.968312,232.435229 159.605367,226.953629 C156.242422,221.472029 151.758495,217.032941 150.054603,210.912382 C152.330746,206.368268 153.957121,201.526878 154.886034,196.530187 C156.769283,185.185853 154.986923,173.191349 158.428336,162.13847 C160.121019,159.11182 162.026687,156.186058 164.033244,153.349974 C168.517171,146.825861 174.458374,141.019176 178.437859,134.136349 C178.740941,133.590868 178.924368,132.98709 178.97593,132.365198 C180.052072,131.162011 181.109532,129.958824 182.148308,128.755637 C183.168401,127.556186 182.204357,125.258174 180.534094,125.863504 C179.155287,126.356736 177.810109,126.883597 176.50977,127.432878 C175.539343,126.84034 174.344961,126.744623 173.292553,127.175053 C157.228886,133.474969 143.160566,149.516217 138.261876,166.700865 C134.685945,179.23344 131.457518,193.380229 131.737763,207.056205 C130.235648,209.645672 128.632644,212.20151 126.973591,214.768558 C120.894711,223.880482 117.089104,234.317072 115.875873,245.20321 C114.256323,251.034955 113.664575,257.104165 114.127142,263.138917 C114.497065,268.743825 114.127142,271.064257 112.3672,276.097464 C110.783818,280.810846 109.815508,285.708908 109.486277,290.670226 C108.73522,298.180803 110.977183,332.931234 123.005316,334.242782 C127.130529,338.63703 132.264625,341.966346 137.578078,346.0243 C145.626726,352.10002 156.881382,356.281282 166.488194,358.781071 C179.457952,362.144016 192.99941,362.076757 206.305462,361.953449 C220.543544,361.761541 234.585344,358.604236 247.535167,352.682931 C253.240964,350.183141 250.393671,339.948579 244.373999,340.531489 Z"/>
    <path fill="#A3A39B" d="M210.453094,299.447512 C200.543617,300.16494 190.376313,301.689475 181.150634,297.014982 C173.584008,293.158805 164.190182,287.935031 160.972965,279.168954 C159.661416,275.581813 154.998132,276.220772 154.650628,280.065739 C153.529646,292.665573 164.201392,302.552631 173.539169,308.617142 C184.121236,315.47755 202.684692,319.479454 213.502165,311.217819 C217.873993,307.888504 217.066886,298.95428 210.453094,299.447512 Z"/>
    <path fill="#1E7D81" d="M216.708172,281.85931 C213.547004,277.240866 209.668407,276.747634 205.24053,274.113327 C200.941032,271.750762 197.555388,268.017873 195.622507,263.50884 C190.208166,252.299024 189.871871,238.970552 191.497295,226.673384 C193.22726,214.699422 195.660258,202.837622 198.783676,191.149475 C201.57492,180.141435 202.819209,168.460807 203.536638,157.116472 C203.608041,156.30124 203.345037,155.491998 202.808,154.874509 C202.729531,152.867952 200.779023,150.861395 198.806095,152.262622 C195.028387,154.975397 193.335705,159.72836 191.586973,163.97688 C189.644134,168.478144 188.193383,173.176171 187.259984,177.989151 C186.578542,178.467554 185.980211,179.054525 185.488833,179.726672 C181.845643,184.73746 180.79192,191.306413 179.278595,197.270035 C177.709221,203.424224 176.307993,209.600833 174.492003,215.676554 C170.826393,227.951303 166.12948,239.788869 164.795512,252.612899 C163.67453,263.060448 164.963659,274.494461 172.642384,281.971408 C177.933417,287.150343 184.46874,291.466123 191.699072,292.86735 C194.683068,294.317378 198.037488,294.825623 201.317094,294.324626 C202.509098,294.159068 203.598452,293.560522 204.377374,292.643153 C206.304554,293.193795 208.292747,293.502567 210.296157,293.562358 C215.575981,293.696876 220.026278,286.73558 216.708172,281.85931 Z"/>
    <path fill="#000" d="M238.567314,130.112024 C237.905935,129.562743 237.244556,128.991043 236.560757,128.497811 C236.566002,128.475698 236.566002,128.452665 236.560757,128.430552 C234.755977,123.184358 226.909105,121.065703 222.167353,119.653266 C214.451888,117.380497 206.445678,116.247542 198.402542,116.289153 C189.612518,116.4229 180.963709,118.521903 173.090776,122.4333 C172.900209,122.522979 172.698433,122.601447 172.507866,122.702336 L171.924955,123.005001 L171.745598,123.094679 C169.502585,124.242679 167.351401,125.561872 165.311164,127.040535 L164.403168,127.690704 C164.111713,127.92611 163.820258,128.139097 163.540013,128.352083 C162.845004,128.890154 162.172415,129.473065 161.511036,130.011136 C161.511036,130.011136 143.474441,147.072477 145.458579,148.507333 C139.85367,157.071633 136.120801,166.499089 132.802696,176.274049 C128.699903,188.302182 129.114666,201.742752 123.35282,213.098296 C120.886661,217.952146 116.851127,221.528078 114.687632,226.550076 C112.499408,231.836746 111.291491,237.477493 111.122911,243.196653 C110.898714,248.801561 112.423249,253.969287 111.694611,259.652664 C110.775406,266.972674 108.051421,272.745729 105.820668,279.594927 C102.359029,290.124554 101.633791,301.361884 103.713222,312.249123 C105.69736,323.548618 112.199053,332.763087 119.74326,340.766896 C128.531756,350.082253 141.041911,354.689488 152.991575,357.850656 C164.94124,361.011824 178.303341,364.980099 190.678978,362.51394 C190.959224,362.51394 191.239469,362.51394 191.508505,362.569989 C197.191882,362.917493 202.864049,362.390632 208.569845,362.49152 L209.141546,362.49152 C221.539603,364.980099 235.025012,361.000614 246.907418,357.839446 C258.789823,354.678278 271.367237,350.071043 280.144523,340.755686 C287.68873,332.751877 294.190424,323.537408 296.185771,312.237913 C298.265202,301.350674 297.539964,290.113345 294.078325,279.583717 C291.836362,272.734519 289.123586,266.961464 288.204382,259.641454 C287.475743,253.958077 288.989069,248.823981 288.776082,243.185443 C288.602058,237.466942 287.394348,231.827165 285.211361,226.538866 C283.047866,221.528078 279.012332,217.952146 276.546172,213.087086 C270.784327,201.731542 271.19909,188.290972 267.096297,176.262839 C263.733352,166.487879 260.011693,157.060423 254.440414,148.496123 C256.413342,147.027638 244.92328,134.013041 238.567314,130.112024 Z M255.247521,160.995069 C260.225957,171.443194 263.401995,182.657868 264.641347,194.164916 C265.538133,204.040764 266.883311,213.815724 272.891772,221.942841 C276.254717,226.527656 280.066055,229.789713 282.016563,235.394621 C283.967071,240.999529 283.653196,246.043946 283.025446,251.794582 C281.982933,261.345346 285.200151,271.277243 287.879297,280.245096 C294.302522,301.689475 288.854551,325.25251 270.997313,338.950905 C262.276076,345.676795 251.593121,348.636187 241.26888,351.371382 C235.766899,352.896151 230.167821,354.045928 224.510204,354.812796 C223.590999,354.936104 222.671794,355.003363 221.763799,355.081831 C217.43681,354.55497 212.795946,355.081831 208.558635,355.14909 C203.682365,355.216349 198.839725,355.877728 193.985874,355.989826 C193.813728,355.940072 193.637361,355.9063 193.459013,355.888938 C187.405712,355.216349 181.374831,355.563853 175.332739,354.767956 C169.679001,353.99998 164.083725,352.850215 158.585274,351.326543 C148.261033,348.591348 137.566868,345.598327 128.845631,338.906066 C110.988393,325.20767 105.540422,301.644636 112.030906,280.200257 C114.710052,271.232404 117.927269,261.300507 116.884756,251.749743 C116.257007,245.999107 115.965551,240.95469 117.89364,235.349782 C119.821728,229.744873 123.644276,226.449187 127.007221,221.898002 C133.004472,213.770885 134.36086,203.962295 135.257646,194.120077 C136.488009,182.631038 139.648733,171.432072 144.606633,160.995069 C149.796778,149.785252 157.206466,139.348913 166.75723,131.737448 C174.155709,125.818665 182.507022,123.139519 191.239469,121.648613 C193.252478,121.405982 195.276681,121.267543 197.30398,121.23385 C204.186807,121.144171 210.867858,122.489349 217.537698,124.103563 C221.176276,125.15183 224.708021,126.540507 228.086136,128.251195 C229.826715,129.277131 231.493556,130.423318 233.074504,131.681399 C242.636478,139.348913 250.046166,149.751623 255.247521,160.995069 Z"/>
    <path fill="#000" d="M258.543207,306.195822 C251.200777,301.39802 240.607501,303.348528 233.612575,310.085628 C224.644722,318.649928 222.974459,340.150356 237.917145,343.322734 C251.368925,346.170027 264.361102,333.682292 265.941686,320.34261 C266.950569,312.473319 263.576415,308.1127 258.543207,306.195822 Z M261.188724,324.266046 C257.713681,331.496377 248.499212,338.289526 240.394514,337.146125 C236.616806,336.608054 234.610249,333.996166 233.747093,330.812579 L233.870401,330.812579 C236.706485,330.229668 239.183854,330.061521 241.806951,328.570615 C244.241589,327.17622 246.369225,325.304052 248.062029,323.066595 C250.864483,319.468244 253.722986,314.23326 252.971928,309.390619 C256.511509,309.935566 259.754448,311.685724 262.152768,314.345358 C263.149481,317.650266 262.80309,321.21487 261.188724,324.266046 L261.188724,324.266046 Z"/>
    <path fill="#000" d="M265.840798 300.422766C252.590795 292.340488 232.928776 291.118618 223.994553 306.666634 223.176236 308.079071 224.880128 310.029579 226.236516 309.043115 231.146416 305.399925 234.632669 301.196243 240.910166 299.738967 248.162917 298.068705 258.117234 298.898231 264.876753 302.093029 265.337984 302.359242 265.927693 302.20115 266.193907 301.73992 266.46012 301.278689 266.302028 300.68898 265.840798 300.422766L265.840798 300.422766zM223.658258 199.220543C221.999205 194.568469 220.295313 189.950025 218.65868 185.37642 218.547183 183.512558 218.169701 181.674221 217.537698 179.917239 215.643239 174.402009 213.053772 169.693886 211.854322 163.95446 210.654871 158.215034 207.370395 147.610548 201.014429 146.018754 198.649158 145.435844 196.530502 146.713763 195.174115 148.675481 192.782396 152.050159 190.845151 155.724894 189.412269 159.605052 187.708377 164.60463 186.340779 169.772355 185.118909 174.98492 181.968951 182.955099 179.076818 191.014957 176.151056 199.186914 171.297206 212.874099 165.681087 226.684593 162.441451 240.898641 159.504479 253.7563 156.220002 266.356134 162.856214 278.664512 165.456891 283.473524 169.055242 289.21295 173.572798 292.351698 175.892979 293.761974 178.387813 294.862414 180.993697 295.624965L181.39725 295.748273C184.022077 296.931382 186.740414 297.894985 189.524367 298.629195 194.579994 299.806226 201.630969 300.546074 206.731435 299.750177 210.486724 299.144847 215.699289 298.236852 219.062234 295.546496 221.55243 294.8087 223.934489 293.74582 226.146838 292.385328 230.630764 289.246579 234.262745 283.507153 236.863422 278.698142 243.499633 266.367344 240.226367 253.78993 237.266975 240.93227 234.117017 226.718223 228.500899 212.907729 223.658258 199.220543zM232.144089 271.848944C230.081483 277.117558 226.191677 283.731349 221.349036 286.657112 218.456903 288.394633 215.508722 289.17932 212.695058 290.513288 209.481267 291.800473 206.066548 292.513769 202.606223 292.620734 197.99788 292.752863 193.389005 292.376935 188.862988 291.499752 186.094163 289.82949 183.168401 289.067222 180.242639 287.654785L179.379483 287.195183C179.076818 287.027035 178.774153 286.881308 178.471488 286.701951 173.628847 283.776189 169.739041 277.162397 167.676435 271.893783 162.811374 259.450887 168.416283 245.449826 171.398094 233.264756 176.016538 214.421054 181.99137 195.913647 187.596279 177.305352 188.493064 174.712148 189.416006 172.130153 190.365103 169.559369 191.575764 166.342151 192.080205 162.721381 193.64958 159.661101 194.636043 157.721802 197.965359 150.984703 200.308211 151.029319 204.792137 151.119221 206.686596 166.633607 207.594591 169.895663 209.758086 177.563178 215.150008 184.221809 216.22615 192.147149 216.268572 192.495388 216.540052 192.77147 216.887529 192.819738 220.990322 206.271518 225.025856 219.644829 228.366381 233.264756 231.404241 245.404987 237.00915 259.406048 232.144089 271.848944zM166.263998 310.085628C159.224233 303.359738 148.664586 301.39802 141.333366 306.195822 136.300158 308.1127 132.926004 312.473319 133.878838 320.34261 135.504262 333.682292 148.541278 346.125188 161.903379 343.322734 176.902114 340.150356 175.187012 318.649928 166.263998 310.085628zM159.538108 337.146125C151.433411 338.267107 142.218942 331.541217 138.743898 324.266046 137.134685 321.217748 136.784554 317.660089 137.768644 314.356568 140.172708 311.698343 143.41858 309.948739 146.960694 309.401829 146.209636 314.24447 149.068139 319.490664 151.870594 323.077805 153.561932 325.312435 155.685297 327.184199 158.114461 328.581825 160.748768 330.050311 163.226138 330.218458 166.062221 330.823788L166.185529 330.823788C165.299954 334.052216 163.293397 336.608054 159.515688 337.146125L159.538108 337.146125z"/>
    <path fill="#000" d="M134.024566 300.422766C133.622788 300.708795 133.50168 301.251937 133.743883 301.681559 133.986086 302.111181 134.513485 302.288721 134.96619 302.093029 141.69208 298.898231 151.680027 298.068705 158.932778 299.738967 165.210275 301.173824 168.696528 305.399925 173.595218 309.043115 174.996445 310.074418 176.689127 308.079071 175.837181 306.666634 166.936587 291.084989 147.285779 292.306859 134.024566 300.422766zM264.708606 210.049226C264.708606 210.049226 257.836989 215.88954 255.090584 221.38235 252.344179 226.87516 240.66355 234.609934 231.897473 235.125585L231.897473 243.891662C231.897473 243.891662 244.788762 252.994033 257.15319 246.974361 269.517617 240.95469 273.474683 227.222665 262.477853 219.499101 262.477853 219.499101 260.930898 215.88954 264.708606 210.049226zM134.517798 210.049226C134.517798 210.049226 141.389415 215.88954 144.13582 221.38235 146.882225 226.87516 158.562854 234.609934 167.32893 235.125585L167.32893 243.891662C167.32893 243.891662 154.437642 252.994033 142.073214 246.974361 129.708786 240.95469 125.762931 227.222665 136.759761 219.499101 136.759761 219.499101 138.306716 215.88954 134.517798 210.049226z"/>
    <path fill="#1AECF7" d="M245.046588 238.936923C245.046588 238.936923 243.925606 235.41704 248.331064 237.176982 248.542322 237.856497 249.156019 238.331328 249.866809 238.365222 251.167148 238.533369 252.187241 236.268986 252.467487 232.637006 252.467487 232.637006 253.375482 228.904137 255.415668 229.632775 257.186819 230.271735 256.211565 236.358665 254.574932 239.441365 252.938299 242.524064 247.736944 244.373684 245.046588 238.936923zM153.484807 238.936923C153.484807 238.936923 154.605789 235.41704 150.200331 237.176982 149.989073 237.856497 149.375376 238.331328 148.664586 238.365222 147.364247 238.533369 146.344154 236.268986 146.063909 232.637006 146.063909 232.637006 145.155914 228.904137 143.115727 229.632775 141.355786 230.271735 142.31983 236.358665 143.967673 239.441365 145.615516 242.524064 150.772032 244.373684 153.484807 238.936923z"/>
    <path fill="#000" d="M295.468343,79.7911583 L293.226379,79.7911583 C290.691035,80.0097574 288.171541,80.384125 285.682173,80.91214 C262.309705,85.6202629 258.621676,101.796028 258.621676,101.796028 L258.621676,101.796028 C257.463653,104.522013 256.642995,107.379261 256.177936,110.304279 C256.177936,106.425682 255.774382,102.244421 255.774382,102.244421 C250.303992,105.887611 245.965793,115.808299 249.866809,119.653266 C258.206913,127.870061 253.666937,136.826705 253.666937,136.826705 L260.706702,159.851668 C269.607296,154.975397 268.015502,144.875353 268.015502,144.875353 C272.779674,143.294769 276.803998,140.73893 288.103493,129.338547 C299.402988,117.938164 293.697192,107.681182 293.697192,107.681182 C292.554437,98.3550691 293.15502,88.8977933 295.468343,79.7911583 Z"/>
    <path fill="#000" d="M260.706702,164.783992 C260.064444,164.783992 259.428309,164.659174 258.834662,164.414063 C257.443199,163.850449 256.38048,162.688872 255.94253,161.252895 L248.913975,138.239141 C248.521631,136.961222 246.952257,138.766003 246.055472,137.768329 C243.903187,135.391848 253.992022,129.495485 246.380556,123.195568 C243.970446,121.189011 243.10729,117.758807 243.466004,114.070777 C244.317284,107.65619 247.771488,101.874859 253.016768,98.0855788 C253.602332,97.6978041 254.26318,97.4380487 254.956066,97.3233113 C257.489484,91.5502558 264.910383,80.0377743 284.61724,76.02466 C287.290232,75.4388994 289.997,75.0195936 292.721938,74.7691605 C292.878682,74.7581614 293.036005,74.7581614 293.19275,74.7691605 L295.434713,74.7691605 C297.003291,74.7717968 298.478845,75.5137224 299.416459,76.771229 C300.354074,78.0287357 300.644025,79.6546633 300.198885,81.1587559 L300.198885,81.1587559 C298.144601,89.3648609 297.560135,97.8699785 298.472573,106.279955 C299.941059,109.754998 303.304004,121.009653 291.600956,132.80238 C282.1735,142.308305 277.386909,146.086013 273.01508,148.182249 C272.74534,154.892383 268.963668,160.965202 263.060763,164.167447 C262.339004,164.564139 261.530253,164.775955 260.706702,164.783992 Z M258.946761,136.994852 L262.836567,149.717993 C263.187224,148.37638 263.282293,146.980763 263.116812,145.603991 C262.751642,143.209339 264.175416,140.902825 266.479757,140.15602 C269.909961,139.035038 273.205647,137.319936 284.60603,125.841084 C292.665888,117.702758 289.784966,111.021707 289.325363,110.091292 C288.991872,109.539807 288.792233,108.917855 288.742453,108.275302 C287.844456,100.641164 288.002884,92.9196864 289.213265,85.3288076 C288.372529,85.4745353 287.543002,85.6426825 286.724686,85.8220396 L286.635007,85.8220396 C267.017828,89.7454753 263.610044,102.401358 263.475526,102.939429 C263.412943,103.213129 263.322805,103.479789 263.206491,103.735326 C262.210518,106.088874 261.502897,108.554257 261.099045,111.077756 C260.830617,112.746231 259.733914,114.164517 258.186662,114.84413 C256.63941,115.523742 254.853014,115.371825 253.442741,114.440701 C253.282324,115.001149 253.282324,115.595355 253.442741,116.155803 C261.603487,124.28292 260.168631,133.071416 258.946761,136.994852 Z"/>
    <path fill="#BDBDB5" d="M249.878019,138.440918 C249.878019,138.440918 258.206913,127.870061 249.878019,119.653266 C245.977003,115.808299 250.315202,105.887611 255.785592,102.244421 C255.785592,102.244421 256.693587,111.088966 255.785592,114.945143 C255.785592,114.945143 254.877597,83.411929 293.20396,79.7911583 L295.445923,79.7911583 C295.445923,79.7911583 290.468764,93.8482682 293.697192,107.681182 C293.697192,107.681182 301.174139,125.616888 268.060341,144.875353 C268.060341,144.875353 268.239698,155.535888 260.751541,159.851668 L249.878019,138.440918 Z"/>
    <path fill="#A3A39B" d="M257.455855,149.235971 L260.706702,146.018754 L267.791306,137.398405 L286.096936,97.525088 C286.096936,97.525088 289.392622,91.3148496 289.392622,87.6940789 C289.392622,87.6940789 272.42096,85.9453476 258.621676,101.762399 C258.621676,101.762399 263.26254,81.2260148 295.468343,79.7575289 C293.150834,88.8749461 292.550227,98.3440187 293.697192,107.681182 C293.697192,107.681182 299.447827,117.949374 288.148332,129.338547 C276.848837,140.727721 272.824513,143.294769 268.060341,144.875353 C268.060341,144.875353 269.652135,154.964188 260.751541,159.851668 L257.455855,149.235971 Z"/>
    <path fill="#000" d="M285.939999 87.7277084C285.939999 87.7277084 267.567109 93.3998755 268.923497 122.186684 268.923497 122.186684 267.107507 138.29519 261.211143 144.864143 261.211143 144.864143 259.170957 150.087917 263.26254 146.455937 265.761565 144.04297 267.346271 140.837902 267.746466 137.387195 267.746466 137.387195 284.762968 130.807033 286.803154 120.146498 288.843341 109.485962 288.619145 103.589599 284.561191 93.3886657 284.229822 91.3926177 284.727863 89.3478136 285.939999 87.7277084L285.939999 87.7277084zM231.269724 123.442184C231.269724 123.442184 232.334656 122.164265 248.6001 137.08453 248.934428 137.392656 249.231633 137.738767 249.485675 138.115833 249.586564 138.261561 248.824296 138.553016 248.913975 138.698744 252.27692 144.068246 252.557165 145.906656 252.557165 145.906656L247.411859 139.931824 231.269724 123.442184zM103.971048 79.7911583L106.213011 79.7911583C108.752055 80.009807 111.275276 80.3841721 113.768427 80.91214 137.118475 85.5754236 140.784085 101.751189 140.784085 101.751189L140.784085 101.751189C141.945106 104.476975 142.769504 107.334133 143.239035 110.259439 143.239035 106.380843 143.642588 102.199581 143.642588 102.199581 149.101769 105.842772 153.439968 115.763459 149.538952 119.608426 141.243688 127.870061 145.727614 136.826705 145.727614 136.826705L138.699059 159.851668C129.731206 154.975397 131.379049 144.875353 131.379049 144.875353 126.614877 143.294769 122.590553 140.73893 111.291058 129.338547 99.9915629 117.938164 105.753409 107.681182 105.753409 107.681182 106.885732 98.3541817 106.281428 88.8981463 103.971048 79.7911583z"/>
    <path fill="#000" d="M138.732689,164.784377 C140.920994,164.779811 142.849862,163.346807 143.485651,161.252895 L154.874824,140.380216 C155.267168,139.102297 155.805239,138.92294 154.986923,137.544133 C153.361499,134.775308 146.871015,129.831779 153.058834,123.161938 C155.312329,120.689634 156.376489,117.357996 155.973386,114.037148 C155.122106,107.622561 151.667902,101.841229 146.422623,98.0519493 C145.837058,97.6641747 145.17621,97.4044193 144.483325,97.2896818 C141.949906,91.5166263 134.529007,80.0041448 114.81094,75.9910305 C112.138114,75.4043869 109.43129,74.9850726 106.706243,74.7355311 C106.549498,74.724532 106.392175,74.724532 106.235431,74.7355311 L103.993467,74.7355311 C102.422916,74.734634 100.944078,75.4750838 100.003867,76.7331125 C99.0636565,77.9911411 98.7723883,79.619143 99.2180856,81.1251265 L99.2180856,81.1251265 C101.260559,89.3601661 101.826073,97.8922234 100.888348,106.324794 C99.4534917,109.855886 96.1017566,121.065703 107.793595,132.84722 C117.221051,142.353144 122.018852,146.130852 126.390681,148.227088 C126.644763,154.938983 130.425622,161.017342 136.333788,164.212286 C137.073972,164.597948 137.898123,164.794358 138.732689,164.784377 L138.732689,164.784377 Z M140.515049,136.950013 L136.625243,149.673154 C136.279526,148.330823 136.180768,146.936816 136.333788,145.559152 C136.70385,143.163506 135.278264,140.854058 132.970843,140.111181 C129.540639,138.990199 126.244953,137.275097 114.85578,125.796245 C106.795922,117.702758 109.676844,110.976868 110.147657,110.091292 C110.472789,109.536846 110.668237,108.916011 110.719357,108.275302 C111.609938,100.640135 111.443966,92.9186545 110.226125,85.3288076 C111.066862,85.4745353 111.907598,85.6426825 112.714705,85.8220396 L112.815593,85.8220396 C132.432772,89.7454753 135.840556,102.401358 135.975074,102.939429 C136.038929,103.211382 136.125165,103.477588 136.2329,103.735326 C137.232507,106.088453 137.943889,108.553825 138.351555,111.077756 C138.619984,112.746231 139.716686,114.164517 141.263938,114.84413 C142.81119,115.523742 144.597587,115.371825 146.00786,114.440701 C146.163617,115.001793 146.163617,115.594711 146.00786,116.155803 C137.880743,124.28292 139.25955,133.071416 140.515049,136.994852 L140.515049,136.950013 Z"/>
    <path fill="#BDBDB5" d="M149.561371,138.440918 C149.561371,138.440918 141.232478,127.870061 149.561371,119.653266 C153.462388,115.808299 149.124189,105.887611 143.665008,102.244421 C143.665008,102.244421 142.757013,111.088966 143.665008,114.945143 C143.665008,114.945143 144.573003,83.411929 106.235431,79.7911583 L103.993467,79.7911583 C103.993467,79.7911583 108.981836,93.8482682 105.809458,107.681182 C105.809458,107.681182 98.3213003,125.616888 131.435098,144.875353 C131.435098,144.875353 131.266951,155.535888 138.755108,159.851668 L149.561371,138.440918 Z"/>
    <path fill="#A3A39B" d="M141.972326,149.235971 L138.732689,146.018754 L131.636875,137.398405 L113.331245,97.525088 C113.331245,97.525088 110.046768,91.3148496 110.046768,87.6940789 C110.046768,87.6940789 127.01843,85.9453476 140.806505,101.762399 C140.806505,101.762399 136.176851,81.2260148 103.971048,79.7575289 C106.292676,88.8624199 106.908385,98.3184804 105.787038,107.647552 C105.787038,107.647552 100.025192,117.915744 111.324687,129.304918 C122.624182,140.694091 126.648507,143.261139 131.412679,144.841723 C131.412679,144.841723 129.820885,154.930558 138.732689,159.818038 L141.972326,149.235971 Z"/>
    <path fill="#000" d="M113.499392,87.7277084 C113.499392,87.7277084 131.872281,93.3998755 130.504683,122.197894 C130.504683,122.197894 132.320674,138.3064 138.217037,144.875353 C138.217037,144.875353 140.257224,150.099127 136.176851,146.467147 C133.681615,144.051412 132.09762,140.847781 131.692924,137.398405 C131.692924,137.398405 114.687632,130.818243 112.636236,120.157707 C110.58484,109.497172 110.820246,103.600808 114.878199,93.3998755 C115.216778,91.4000422 114.718197,89.3489682 113.499392,87.7277084 L113.499392,87.7277084 Z"/>
    <path fill="#FCFCFC" d="M73.3346194 78.9616319L73.90632 80.0826135C69.8558397 82.1153269 65.846462 84.2489287 61.8781869 86.4834187 56.1836002 83.8677949 50.3544956 81.4277915 44.3908732 79.1634086L52.3498429 92.0995368C48.8374338 94.2966608 45.3324978 96.5759902 41.8350351 98.9375248L17.7451395 63.4808753C23.432253 59.6097521 29.2053085 55.9478787 35.0643059 52.4952552 45.9826672 46.0720304 55.2419756 47.6638243 59.1542015 55.5219056 61.9230262 60.9922961 60.8580936 66.5747847 56.5647339 71.2156487 62.2966867 73.6519155 67.8866486 76.2339099 73.3346194 78.9616319zM40.1759822 72.5047776C41.7079905 71.563153 43.2549452 70.6327383 44.8168463 69.7135333 47.9668047 67.8414939 49.0653667 65.4089638 47.5968807 62.7858667 46.1283948 60.1627697 43.3707799 59.8152654 40.0975135 61.7545636 38.5057196 62.6961882 36.9139256 63.6564958 35.3221317 64.6354864 36.9512917 67.2585835 38.5692419 69.8816805 40.1759822 72.5047776zM104.43065 46.8679273L110.472741 64.9269417C106.810868 66.1450751 103.167678 67.4491504 99.5431703 68.8391676 97.4506712 63.3015183 95.3357525 57.7489225 93.1984142 52.1813803 91.9204951 48.8184354 89.297398 47.6974537 85.8671942 49.0650514 82.0558566 50.612006 80.3968037 53.5489779 81.8540799 56.9791818L88.8153759 73.1885764C85.2581275 74.6832186 81.7307719 76.2862224 78.2333092 77.9975877 72.0454905 65.1062987 65.865145 52.2187464 59.6922727 39.3349307 63.7390165 37.3956324 67.79697 35.5460127 71.8997629 33.7300224 73.6858603 37.8776545 75.4644845 42.0252866 77.2356355 46.1729187 79.1441043 42.5671387 82.3487959 39.8191157 86.2034887 38.4829846 95.5861051 34.9294728 101.796343 38.8641184 104.43065 46.8679273zM105.08082 23.6972367C104.083146 20.4800194 106.347535 17.262802 110.685728 16.0521418 115.023927 14.8414817 118.532599 16.3996462 119.418175 19.6617027 120.30375 22.9237593 117.87122 25.9840392 113.813267 27.1274405 109.755313 28.2708418 106.089703 26.9032442 105.08082 23.6972367zM117.848801 62.5728802L108.398925 31.5216886C112.486772 30.2811356 116.597038 29.1227879 120.729723 28.0466455 123.449972 38.5091408 126.170221 48.9716362 128.89047 59.4341316 125.168811 60.4131222 121.488254 61.4593718 117.848801 62.5728802zM168.774997 32.9789647L170.725505 51.9235546C166.925377 52.3158981 163.125249 52.7867104 159.347541 53.3247816L156.791703 35.6917403C156.287261 32.1158088 154.000459 30.456756 150.402108 31.0396665 146.388993 31.6898358 144.15824 34.245674 144.797199 37.8440251 145.888288 43.6282904 146.968167 49.4088191 148.036836 55.1856112 144.300231 55.8955662 140.563625 56.6690435 136.82702 57.5060432 134.4057 46.9688157 131.991852 36.424115 129.585478 25.8719411 133.404289 24.9975754 137.238046 24.1942052 141.08675 23.4618305 141.456674 24.6388613 141.826598 25.815892 142.207732 26.9929227 144.449695 23.7084465 148.305872 21.5337421 152.935526 20.8387335 162.800165 19.403877 167.95668 24.594022 168.774997 32.9789647zM174.761039 35.2545575C173.830624 25.389919 181.99137 17.509418 194.266119 17.3188511 206.540869 17.1282842 214.948231 24.7285398 214.342901 34.6043881 213.737571 44.4802364 205.554405 51.0491889 194.82661 51.2285459 184.098816 51.407903 175.691454 45.0855665 174.761039 35.2545575zM202.303558 34.2344642C202.359607 30.0756223 199.041501 27.0826013 194.456686 27.16107 189.871871 27.2395387 186.609815 30.333448 186.822801 34.4922899 187.035788 38.6511319 190.398733 41.4423762 194.669673 41.3639074 198.940613 41.2854387 202.236299 38.4045159 202.303558 34.2344642L202.303558 34.2344642zM218.894086 29.6496492C219.544256 16.7695701 231.370612 7.9922838 247.030726 10.2902962 260.706702 12.319273 269.450359 21.6458403 269.013176 32.597831 264.656294 31.5889475 260.280729 30.6697425 255.886481 29.8402161 255.068164 25.4571779 251.122309 22.0493937 245.696757 21.2422869 238.544895 20.1773543 232.883937 24.291357 232.244978 30.8042603 231.606018 37.3171637 235.854539 42.42884 242.423491 43.4153039 247.568797 44.1775714 252.2545 42.182224 254.574932 38.1354803 258.827189 38.9276407 263.060763 39.8169528 267.275654 40.8034166 262.713259 51.0716085 252.332969 56.0151376 240.540242 54.2551964 227.323868 52.3158981 218.221497 42.5969873 218.894086 29.6496492zM270.683438 42.8884425C272.925402 33.2592101 283.260852 28.4053596 295.075999 32.1830677 306.891146 35.9607759 312.552103 45.9599322 308.796814 55.0959326 305.041526 64.231933 295.064789 67.7966547 284.729338 64.4897588 274.393888 61.182863 268.419055 52.506465 270.683438 42.8884425zM297.340382 50.8249925C298.730399 46.9127666 296.510856 42.978121 292.060558 41.5656841 287.610261 40.1532473 283.552308 42.0477062 282.408906 46.0496107 281.265505 50.0515152 283.608357 53.8068037 287.733569 55.1071424 291.858782 56.4074811 295.939155 54.7596381 297.340382 50.8249925L297.340382 50.8249925zM323.515303 34.4474507C324.804432 31.3423315 328.61577 30.3222382 332.752192 32.2054874 336.888614 34.0887365 338.704605 37.5861993 337.236119 40.6128497 335.767633 43.6395002 331.945085 44.4690266 328.044069 42.7202952 324.143053 40.9715639 322.226175 37.5637797 323.515303 34.4474507zM308.4381 72.4935678C312.652991 62.5317775 316.860409 52.5662507 321.060354 42.5969873 325.028629 44.2672499 328.985694 46.0384009 332.89792 47.8880206L319.053796 77.2353202C315.548861 75.5762673 312.010295 73.9956832 308.4381 72.4935678zM367.749239 83.1877327L357.043864 98.9375248C353.748178 96.6955616 350.415126 94.532067 347.044708 92.4470411L356.472164 77.3474183C358.377833 74.2871384 357.593145 71.4958941 354.398348 69.5790155 350.788787 67.4379406 347.381003 67.9311725 345.587432 71.13718L336.944664 86.5058384C333.529406 84.5852232 330.084256 82.7430766 326.609213 80.9793989 331.519112 71.3314835 336.425275 61.6835681 341.327702 52.0356527 344.892423 53.851643 348.434725 55.7423654 351.954608 57.7078199L350.542171 61.0707648C354.409558 60.0058322 358.893484 60.8914077 363.029906 63.4248263 371.739934 68.8279578 372.535831 76.2264367 367.749239 83.1877327z"/>
  </g>
</svg>
