<svg xmlns="http://www.w3.org/2000/svg" viewBox="0 0 263.17 400.31"><defs><style>.cls-1,.cls-5{fill:#a3a39b;}.cls-1{stroke:#000;stroke-miterlimit:10;stroke-width:11px;}.cls-2{fill:#777873;}.cls-3{fill:#1aecf7;}.cls-4{fill:#bdbdb5;}.cls-6{fill:#1e7d81;}</style></defs><g id="Camada_2" data-name="Camada 2"><g id="OBJECTS"><ellipse class="cls-1" cx="133.65" cy="298.81" rx="116.5" ry="96"/><path class="cls-2" d="M184.68,342.71c-4.93-.7-7.56-4.11-8.69-8.28h.16c3.71-.76,6.94-1,10.38-2.89a27.25,27.25,0,0,0,8.16-7.2c3.66-4.69,7.4-11.54,6.42-17.87a20.44,20.44,0,0,1,12,6.48c1.31,3.76.92,8.38-1.27,12.94C207.31,335.33,195.26,344.21,184.68,342.71Z"/><path class="cls-2" d="M87.59,334.42h.16c-1.13,4.17-3.76,7.58-8.69,8.28-10.58,1.5-22.63-7.38-27.16-16.83-2.19-4.56-2.58-9.18-1.27-12.94a20.44,20.44,0,0,1,12-6.48c-1,6.33,2.76,13.18,6.42,17.87a27.25,27.25,0,0,0,8.16,7.2C80.65,333.44,83.88,333.66,87.59,334.42Z"/><path class="cls-3" d="M169.08,206.94c3.9,15.92,11.22,34.21,4.87,50.46-2.7,6.89-7.78,15.53-14.11,19.36-3.77,2.26-7.62,3.28-11.3,5-4.29,1.47-8.64,2.84-13.1,2.76-6-.1-12.13-.12-18-1.54-3.61-2.18-7.45-3.17-11.27-5l-1.12-.59c-.4-.21-.8-.41-1.19-.64-6.33-3.83-11.41-12.47-14.11-19.36-6.35-16.25,1-34.54,4.87-50.46,6-24.62,13.83-48.79,21.16-73.1,1.17-3.39,2.37-6.75,3.62-10.12,1.57-4.2,2.24-8.94,4.28-12.93,1.3-2.53,5.65-11.33,8.7-11.28,5.88.12,8.34,20.39,9.53,24.65,2.82,10,9.87,18.71,11.27,29.07a1,1,0,0,0,.87.87C159.45,171.62,164.72,189.16,169.08,206.94Z"/><path class="cls-4" d="M246.75,268.42c8.4,28,1.29,58.8-22,76.7-11.4,8.73-25.36,12.65-38.84,16.21A161.33,161.33,0,0,1,164,365.84c-1.21.15-2.41.25-3.6.35-5.64-.69-11.76,0-17.24.08-6.37.1-12.7,1-19,1.11a2.56,2.56,0,0,0-.68-.13c-7.91-.88-15.79-.43-23.68-1.41a161.33,161.33,0,0,1-21.89-4.51c-13.48-3.56-27.44-7.48-38.84-16.21-23.33-17.9-30.44-48.68-22-76.7,3.5-11.71,7.7-24.69,6.34-37.17-.83-7.52-1.21-14.1,1.31-21.42s7.51-11.62,11.92-17.62c7.83-10.62,9.6-23.38,10.78-36.29,1.33-14.83,6.08-30,12.28-43.33C66.4,97.91,76.08,84.32,88.56,74.36c9.66-7.73,20.57-11.23,32-13.09a73.55,73.55,0,0,1,7.92-.55c9-.11,17.72,1.64,26.44,3.75,4.86,1.19,9.28,3.38,13.77,5.42a56.19,56.19,0,0,1,6.51,4.47c12.48,10,22.16,23.55,28.94,38.23,6.2,13.37,10.95,28.5,12.28,43.33,1.18,12.91,2.95,25.67,10.78,36.29,4.41,6,9.37,10.26,11.92,17.62s2.14,13.9,1.31,21.42C239.05,243.73,243.25,256.71,246.75,268.42Zm-28.59,52.34c1.26-10.29-3.15-16-9.73-18.48-9.59-6.27-23.37-3.73-32.57,5.07-11.66,11.2-13.89,39.29,5.63,43.43C199,354.5,216,338.18,218.16,320.76Zm-1.41-23.89a1.25,1.25,0,0,0,1.22-2.18c-17.32-10.55-43-12.15-54.67,8.16-1.06,1.85,1.15,4.45,3,3.1,6.4-4.76,11-10.27,19.16-12.15C194.91,291.62,207.93,292.71,216.75,296.87Zm-36.53-30.52c8.67-16.08,4.38-32.53.54-49.34-4.23-18.56-11.57-36.61-17.91-54.49-2.15-6.07-4.31-12.1-6.53-18.08a25.55,25.55,0,0,0-1.39-7.13c-2.49-7.2-5.86-13.36-7.43-20.86-1.54-7.33-5.8-21.35-14.16-23.38-3.09-.76-5.8.91-7.64,3.47a61.63,61.63,0,0,0-7.52,14.28c-2.22,6.52-4,13.28-5.61,20.1-4.11,10.4-7.9,20.93-11.68,31.6C94.55,180.4,87.21,198.45,83,217c-3.84,16.81-8.13,33.26.54,49.34,3.39,6.29,8.1,13.79,14,17.89,2.84,2,6.51,3.17,9.7,4.27l.52.17a70.4,70.4,0,0,0,10.62,3.76c6.61,1.54,15.82,2.5,22.49,1.42,4.9-.79,11.76-2,16.13-5.5,3.09-1.07,6.55-2.24,9.26-4.12C172.12,280.14,176.83,272.64,180.22,266.35ZM97.46,306c1.83,1.35,4-1.25,3-3.1-11.68-20.31-37.35-18.71-54.67-8.16A1.25,1.25,0,0,0,47,296.87c8.82-4.16,21.84-5.25,31.31-3.07C86.5,295.68,91.06,301.19,97.46,306ZM82.25,350.78c19.52-4.14,17.29-32.23,5.62-43.43-9.19-8.8-23-11.34-32.56-5.07-6.58,2.5-11,8.19-9.73,18.48C47.7,338.18,64.72,354.5,82.25,350.78Z"/><path class="cls-5" d="M190,347.14c-14.56,1.42-28.45,6.15-43,7.52-13.77,1.29-27.94.6-41.75.3-12.07-.25-24.32-4.4-35.41-9.11-5.73-2.43-11.64-4.24-17.14-7.22-7.33-4-9-10.58-10.11-18.62-1.54-11.15-2.73-25.82,1.33-36.52.56-1.46,1.17-2.88,1.79-4.29C50.47,275,53.87,269.08,58,264c2.28-2.81,4.76-5.5,7.1-8.3,10.33-6.3,16.63-24.76,18.5-35,1.51-8.31,0-14.8-4.39-21.91s-10.25-13-12.47-21A71.51,71.51,0,0,0,73,159c2.46-14.82.13-30.49,4.63-44.93,2.2-4,4.69-7.77,7.26-11.48,5.88-8.53,13.61-16.19,18.81-25.11a5.5,5.5,0,0,0,.71-2.31c1.4-1.57,2.79-3.14,4.14-4.72s.08-4.56-2.1-3.77c-1.81.65-3.56,1.33-5.27,2A4.67,4.67,0,0,0,97,68.42c-21,8.24-39.37,29.19-45.77,51.64-4.67,16.38-8.89,34.86-8.52,52.66-2,3.38-4.06,6.72-6.23,10.08-8,12.41-13,25.42-14.5,39.76A68,68,0,0,0,19.72,246c.47,7.38.06,10.35-2.3,16.94a74.84,74.84,0,0,0-3.78,19c-.86,9.8,2,55.23,17.72,56.94,5.39,5.76,12.1,10.1,19.11,15.4C61,362.25,75.67,367.72,88.24,371c16.93,4.39,34.63,4.31,52,4.14,19-.18,36.45-4.42,53.85-12.1C201.51,359.74,197.79,346.37,190,347.14Z"/><path class="cls-5" d="M145.61,293.46c-13,.94-26.23,3-38.28-3.17-9.89-5-22.15-11.87-26.34-23.32-1.71-4.68-7.81-3.85-8.27,1.17C71.2,284.6,85.2,297.53,97.4,305.44c13.83,9,38.07,14.19,52.2,3.4C155.3,304.49,154.25,292.82,145.61,293.46Z"/><path class="cls-6" d="M153.77,270.49c-4.12-6-9.19-6.67-15-10.13-6.2-3.7-9.38-7.27-12.55-13.85-7.08-14.7-7.52-32-5.4-48.12,2.06-15.62,5.66-31.17,9.52-46.4,3.65-14.39,5.28-29.65,6.22-44.47a3.91,3.91,0,0,0-1-2.88c-.1-2.63-2.66-5.25-5.22-3.41-4.94,3.54-7.15,9.75-9.44,15.3a89.15,89.15,0,0,0-5.65,18.3A9.9,9.9,0,0,0,113,137.1c-4.76,6.55-6.14,15.13-8.12,22.93-2,8-3.87,16.1-6.25,24.05-4.79,16-10.92,31.49-12.66,48.25-1.42,13.65.21,28.58,10.18,38.35,6.9,6.76,15.44,12.39,24.89,14.23a21.25,21.25,0,0,0,12.56,1.9,6.29,6.29,0,0,0,4-2.19,31.62,31.62,0,0,0,7.74,1.2C152.3,286,158.12,276.85,153.77,270.49Z"/><path d="M182.33,72.25c-.85-.73-1.73-1.42-2.61-2.12a.12.12,0,0,0,0-.08c-2.36-6.85-12.62-9.63-18.8-11.48a108.61,108.61,0,0,0-31-4.44,76.7,76.7,0,0,0-33.08,8c-.25.11-.51.21-.76.34s-.51.27-.76.4L95,63a65.24,65.24,0,0,0-8.4,5.15c-.39.3-.79.58-1.19.86s-.76.57-1.12.86c-.9.71-1.79,1.42-2.65,2.16-.08.07-23.56,22.29-21,24.17-7.27,11.18-12.19,23.5-16.53,36.27-5.36,15.72-4.82,33.27-12.35,48.11-3.21,6.34-8.49,11-11.31,17.56a61.58,61.58,0,0,0-4.66,21.74c-.29,7.37,1.69,14.07.74,21.5-1.2,9.56-4.75,17.11-7.67,26.06a85.34,85.34,0,0,0-2.75,42.65c2.59,14.76,11.09,26.8,21,37.25,11.47,12.17,27.89,18.2,43.42,22.33s33.08,9.31,49.24,6.09l1.08.07c7.43.46,14.83-.23,22.3-.1l.74,0c16.2,3.25,33.81-1.95,49.34-6.08s31.95-10.16,43.42-22.33c9.86-10.45,18.36-22.49,20.95-37.25a85.34,85.34,0,0,0-2.75-42.65c-2.92-8.95-6.47-16.5-7.67-26.06-.95-7.43,1-14.13.74-21.5a61.58,61.58,0,0,0-4.66-21.74c-2.82-6.54-8.1-11.22-11.31-17.56-7.53-14.84-7-32.39-12.35-48.11-4.34-12.77-9.26-25.09-16.53-36.27C205.64,94.34,190.64,77.34,182.33,72.25Zm21.79,40.34c6.2,13.37,10.95,28.5,12.28,43.33,1.18,12.91,2.95,25.67,10.78,36.29,4.41,6,9.37,10.26,11.92,17.62s2.14,13.9,1.31,21.42c-1.36,12.48,2.84,25.46,6.34,37.17,8.4,28,1.29,58.8-22,76.7-11.4,8.73-25.36,12.65-38.84,16.21A161.33,161.33,0,0,1,164,365.84c-1.21.15-2.41.25-3.6.35-5.64-.69-11.76,0-17.24.08-6.37.1-12.7,1-19,1.11a2.56,2.56,0,0,0-.68-.13c-7.91-.88-15.79-.43-23.68-1.41a161.33,161.33,0,0,1-21.89-4.51c-13.48-3.56-27.44-7.48-38.84-16.21-23.33-17.9-30.44-48.68-22-76.7,3.5-11.71,7.7-24.69,6.34-37.17-.83-7.52-1.21-14.1,1.31-21.42s7.51-11.62,11.92-17.62c7.83-10.62,9.6-23.38,10.78-36.29,1.33-14.83,6.08-30,12.28-43.33C66.4,97.91,76.08,84.32,88.56,74.36c9.66-7.73,20.57-11.23,32-13.09a73.55,73.55,0,0,1,7.92-.55c9-.11,17.72,1.64,26.44,3.75,4.86,1.19,9.28,3.38,13.77,5.42a56.19,56.19,0,0,1,6.51,4.47C187.66,84.32,197.34,97.91,204.12,112.59Z"/><path d="M208.43,302.28c-9.59-6.27-23.37-3.73-32.57,5.07-11.66,11.2-13.89,39.29,5.63,43.43,17.53,3.72,34.55-12.6,36.67-30C219.42,310.47,215,304.78,208.43,302.28Zm3.41,23.6c-4.53,9.45-16.58,18.33-27.16,16.83-4.93-.7-7.56-4.11-8.69-8.28h.16c3.71-.76,6.94-1,10.38-2.89a27.25,27.25,0,0,0,8.16-7.2c3.66-4.69,7.4-11.54,6.42-17.87a20.44,20.44,0,0,1,12,6.48C214.42,316.7,214,321.32,211.84,325.88Z"/><path d="M218,294.69c-17.32-10.55-43-12.15-54.67,8.16-1.07,1.85,1.15,4.45,3,3.1,6.4-4.76,11-10.27,19.16-12.15,9.47-2.18,22.49-1.09,31.31,3.07A1.25,1.25,0,0,0,218,294.69Z"/><path d="M162.85,162.52c-2.15-6.07-4.31-12.1-6.53-18.08a25.55,25.55,0,0,0-1.39-7.13c-2.49-7.2-5.86-13.36-7.43-20.86-1.54-7.33-5.8-21.35-14.16-23.38-3.09-.76-5.8.91-7.64,3.47a61.63,61.63,0,0,0-7.52,14.28c-2.22,6.52-4,13.28-5.61,20.1-4.11,10.4-7.9,20.93-11.68,31.6C94.55,180.4,87.21,198.45,83,217c-3.84,16.81-8.13,33.26.54,49.34,3.39,6.29,8.1,13.79,14,17.89,2.84,2,6.51,3.17,9.7,4.27l.52.17a70.4,70.4,0,0,0,10.62,3.76c6.61,1.54,15.82,2.5,22.49,1.42,4.9-.79,11.76-2,16.13-5.5,3.09-1.07,6.55-2.24,9.26-4.12,5.89-4.1,10.6-11.6,14-17.89,8.67-16.08,4.38-32.53.54-49.34C176.53,198.45,169.19,180.4,162.85,162.52ZM174,257.4c-2.7,6.89-7.78,15.53-14.11,19.36-3.77,2.26-7.62,3.28-11.3,5-4.29,1.47-8.63,2.84-13.1,2.76-6-.1-12.13-.12-18-1.54-3.61-2.18-7.45-3.17-11.27-5l-1.12-.59c-.4-.21-.8-.41-1.19-.64-6.33-3.83-11.41-12.47-14.11-19.36-6.35-16.25,1-34.54,4.87-50.46,6-24.62,13.83-48.79,21.16-73.1,1.17-3.39,2.37-6.75,3.62-10.12,1.57-4.2,2.24-8.94,4.28-12.93,1.3-2.53,5.65-11.33,8.7-11.28,5.88.12,8.34,20.39,9.53,24.65,2.82,10,9.87,18.71,11.27,29.07a1,1,0,0,0,.87.87c5.36,17.52,10.63,35.06,15,52.84C173,222.86,180.3,241.15,174,257.4Z"/><path d="M87.87,307.35c-9.19-8.8-23-11.34-32.56-5.07-6.58,2.5-11,8.19-9.73,18.48,2.12,17.42,19.14,33.74,36.67,30C101.77,346.64,99.54,318.55,87.87,307.35Zm-8.81,35.36c-10.58,1.5-22.63-7.38-27.16-16.83-2.19-4.56-2.58-9.18-1.27-12.94a20.44,20.44,0,0,1,12-6.48c-1,6.33,2.76,13.18,6.42,17.87a27.25,27.25,0,0,0,8.16,7.2c3.44,1.91,6.67,2.13,10.38,2.89h.16C86.62,338.6,84,342,79.06,342.71Z"/><path d="M45.77,294.69A1.25,1.25,0,0,0,47,296.87c8.82-4.16,21.84-5.25,31.31-3.07,8.2,1.88,12.76,7.39,19.16,12.15,1.83,1.35,4-1.25,3-3.1C88.76,282.54,63.09,284.14,45.77,294.69Z"/><path d="M216.49,176.67s-9,7.63-12.57,14.81-18.85,17.28-30.29,18v11.45s16.83,11.89,33,4,21.32-25.81,6.95-35.91C213.57,189,211.55,184.3,216.49,176.67Z"/><path d="M46.42,176.67s9,7.63,12.56,14.81,18.85,17.28,30.3,18v11.45s-16.83,11.89-33,4S35,199.11,49.33,189C49.33,189,51.35,184.3,46.42,176.67Z"/><path class="cls-3" d="M190.8,214.41s-1.41-4.59,4.29-2.3a2.22,2.22,0,0,0,2,1.56c1.71.22,3-2.74,3.41-7.48,0,0,1.19-4.89,3.85-3.93,2.3.83,1,8.82-1.11,12.82S194.35,221.52,190.8,214.41Z"/><path class="cls-3" d="M71.19,214.41s1.41-4.59-4.29-2.3a2.22,2.22,0,0,1-2,1.56c-1.71.22-3-2.74-3.41-7.48,0,0-1.19-4.89-3.85-3.93-2.3.83-1,8.82,1.11,12.82S67.64,221.52,71.19,214.41Z"/><path d="M256.67,6.5h-3A82.7,82.7,0,0,0,243.84,8c-30.5,6.09-35.3,27.22-35.3,27.22h0a47.39,47.39,0,0,0-3.2,11.11c0-5-.53-10.53-.53-10.53C197.67,40.6,192,53.56,197.1,58.59c10.89,10.72,5,22.43,5,22.43l9.19,30.07c11.63-6.37,9.55-19.55,9.55-19.55,6.23-2.08,11.48-5.41,26.24-20.3s7.24-28.3,7.24-28.3A99.42,99.42,0,0,1,256.67,6.5Z"/><path d="M211.26,117.59A6.51,6.51,0,0,1,205,113l-9.19-30.07c-.51-1.67-2.56.69-3.73-.61-2.82-3.11,10.37-10.81.42-19.09-3.14-2.62-4.27-7.11-3.81-11.92.74-7.77,6-16.55,12.48-20.88a6.58,6.58,0,0,1,2.53-1c3.31-7.54,13-22.58,38.76-27.75A88.36,88.36,0,0,1,253.09,0c.2,0,.41,0,.61,0h3a6.49,6.49,0,0,1,6.23,8.34h0a93.77,93.77,0,0,0-2.27,32.83c1.93,4.54,6.32,19.24-9,34.65-12.32,12.42-18.58,17.35-24.29,20.08-.4,5.91-2.76,15.29-13,20.89A6.5,6.5,0,0,1,211.26,117.59Zm-2.33-36.35L214,97.85a14.44,14.44,0,0,0,.37-5.36,6.44,6.44,0,0,1,4.38-7.12c4.49-1.5,8.81-3.71,23.68-18.71C253,56,249.21,47.31,248.6,46.08a5.52,5.52,0,0,1-.76-2.36,109.51,109.51,0,0,1,.65-30c-1.1.19-2.19.4-3.25.64l-.13,0C219.49,19.52,215,36.06,214.86,36.76a6.32,6.32,0,0,1-.34,1,41,41,0,0,0-2.76,9.59,6.5,6.5,0,0,1-10,4.39,4.2,4.2,0,0,0,0,2.25C212.44,64.63,210.56,76.11,208.93,81.24Z"/><path class="cls-4" d="M197.11,83.13s10.88-13.82,0-24.54c-5.1-5,.57-18,7.71-22.76,0,0,1.19,11.56,0,16.6,0,0-1.18-41.19,48.89-45.93h3s-6.52,18.37-2.38,36.44c0,0,9.78,23.41-33.48,48.6,0,0,.23,13.92-9.55,19.55Z"/><path class="cls-5" d="M207,97.22l4.24-4.2,9.26-11.26,23.91-52s4.3-8.1,4.3-12.84c0,0-22.17-2.27-40.19,18.38,0,0,6.06-26.82,48.13-28.75a99.42,99.42,0,0,0-2.38,36.44s7.52,13.41-7.24,28.3-20,18.22-26.24,20.3c0,0,2.08,13.18-9.55,19.55Z"/><path d="M244.22,16.87s-24,7.41-22.22,45c0,0-2.37,21-10.08,29.63,0,0-2.66,6.81,2.67,2.07s5.93-11.85,5.93-11.85,22.22-8.59,24.89-22.52,2.37-21.63-3-35A9.65,9.65,0,0,1,244.22,16.87Z"/><path d="M172.81,63.53s1.38-1.66,22.64,17.82a8,8,0,0,1,1.15,1.35c.13.19-.87.57-.75.76,4.42,7,4.77,9.42,4.77,9.42l-6.73-7.81Z"/><path d="M6.5,6.5h3A80.89,80.89,0,0,1,19.33,8c30.5,6.09,35.3,27.22,35.3,27.22h0a48.38,48.38,0,0,1,3.2,11.11c0-5,.52-10.53.52-10.53,7.15,4.77,12.81,17.73,7.71,22.76C55.17,69.31,61.1,81,61.1,81l-9.19,30.07c-11.64-6.37-9.56-19.55-9.56-19.55-6.22-2.08-11.47-5.41-26.24-20.3s-7.24-28.3-7.24-28.3A99.3,99.3,0,0,0,6.5,6.5Z"/><path d="M51.91,117.59a6.49,6.49,0,0,0,6.21-4.6L73,85.72c.51-1.67,1.2-1.91.14-3.71C71,78.4,62.55,71.94,70.63,63.22a15,15,0,0,0,3.8-11.92c-.74-7.77-6-16.55-12.47-20.88a6.63,6.63,0,0,0-2.54-1c-3.31-7.54-13-22.58-38.76-27.75A87.88,87.88,0,0,0,10.08,0c-.21,0-.41,0-.62,0h-3A6.49,6.49,0,0,0,.27,8.34h0A93.92,93.92,0,0,1,2.53,41.17c-1.93,4.54-6.31,19.24,9,34.65C23.81,88.24,30.08,93.17,35.78,95.9c.4,5.91,2.77,15.29,13,20.89A6.47,6.47,0,0,0,51.91,117.59Zm2.33-36.35L49.16,97.85a14.78,14.78,0,0,1-.38-5.36,6.44,6.44,0,0,0-4.37-7.12c-4.49-1.5-8.81-3.71-23.68-18.71C10.19,56,14,47.31,14.56,46.08a5.39,5.39,0,0,0,.76-2.36,109.11,109.11,0,0,0-.65-30c1.11.19,2.19.4,3.26.64l.12,0c25.63,5.12,30.08,21.66,30.26,22.36a5.5,5.5,0,0,0,.34,1,41,41,0,0,1,2.76,9.59,6.5,6.5,0,0,0,10,4.39,4.18,4.18,0,0,1,0,2.25C50.73,64.63,52.6,76.11,54.24,81.24Z"/><path class="cls-4" d="M66.05,83.13s-10.88-13.82,0-24.54c5.1-5-.56-18-7.71-22.76,0,0-1.18,11.56,0,16.6,0,0,1.19-41.19-48.89-45.93h-3S13,24.87,8.87,42.94c0,0-9.78,23.41,33.48,48.6,0,0-.22,13.92,9.56,19.55Z"/><path class="cls-5" d="M56.15,97.22,51.91,93,42.65,81.76l-23.92-52s-4.3-8.1-4.3-12.84c0,0,22.17-2.27,40.2,18.38,0,0-6.06-26.82-48.13-28.75A99.3,99.3,0,0,1,8.87,42.94s-7.52,13.41,7.24,28.3,20,18.22,26.24,20.3c0,0-2.08,13.18,9.56,19.55Z"/><path d="M18.94,16.87s24,7.41,22.23,45c0,0,2.37,21,10.07,29.63,0,0,2.67,6.81-2.67,2.07s-5.92-11.85-5.92-11.85S20.43,73.17,17.76,59.24s-2.37-21.63,3-35A9.65,9.65,0,0,0,18.94,16.87Z"/></g></g></svg>