<svg xmlns="http://www.w3.org/2000/svg" width="2376" height="512" viewBox="0 0 2376 512">
  <g fill="none" fill-rule="evenodd">
    <g fill-rule="nonzero" transform="translate(124 59)">
      <ellipse cx="133.649" cy="298.81" fill="#A3A39B" stroke="#000" stroke-width="11" rx="116.5" ry="96"/>
      <path fill="#777873" d="M184.679335 342.710013C179.749335 342.010013 177.119335 338.600013 175.989335 334.430013L176.149335 334.430013C179.859335 333.670013 183.089335 333.430013 186.529335 331.540013 189.705766 329.713068 192.481099 327.264245 194.689335 324.340013 198.349335 319.650013 202.089335 312.800013 201.109335 306.470013 205.733221 307.192542 209.969128 309.479933 213.109335 312.950013 214.419335 316.710013 214.029335 321.330013 211.839335 325.890013 207.309335 335.330013 195.259335 344.210013 184.679335 342.710013zM87.5893354 334.420013L87.7493354 334.420013C86.6193354 338.590013 83.9893354 342.000013 79.0593354 342.700013 68.4793354 344.200013 56.4293354 335.320013 51.8993354 325.870013 49.7093354 321.310013 49.3193354 316.690013 50.6293354 312.930013 53.7695428 309.459933 58.0054502 307.172542 62.6293354 306.450013 61.6293354 312.780013 65.3893354 319.630013 69.0493354 324.320013 71.2575718 327.244245 74.0329045 329.693068 77.2093354 331.520013 80.6493354 333.440013 83.8793354 333.660013 87.5893354 334.420013z"/>
      <path fill="#1AECF7" d="M169.079335,206.940013 C172.979335,222.860013 180.299335,241.150013 173.949335,257.400013 C171.249335,264.290013 166.169335,272.930013 159.839335,276.760013 C156.069335,279.020013 152.219335,280.040013 148.539335,281.760013 C144.249335,283.230013 139.899335,284.600013 135.439335,284.520013 C129.439335,284.420013 123.309335,284.400013 117.439335,282.980013 C113.829335,280.800013 109.989335,279.810013 106.169335,277.980013 L105.049335,277.390013 C104.649335,277.180013 104.249335,276.980013 103.859335,276.750013 C97.5293354,272.920013 92.4493354,264.280013 89.7493354,257.390013 C83.3993354,241.140013 90.7493354,222.850013 94.6193354,206.930013 C100.619335,182.310013 108.449335,158.140013 115.779335,133.830013 C116.949335,130.440013 118.149335,127.080013 119.399335,123.710013 C120.969335,119.510013 121.639335,114.770013 123.679335,110.780013 C124.979335,108.250013 129.329335,99.4500132 132.379335,99.499801 C138.259335,99.6200132 140.719335,119.890013 141.909335,124.150013 C144.729335,134.150013 151.779335,142.860013 153.179335,153.220013 C153.235507,153.675211 153.594137,154.033841 154.049335,154.090013 C159.449335,171.620013 164.719335,189.160013 169.079335,206.940013 Z"/>
      <path fill="#BDBDB5" d="M246.749335,268.420013 C255.149335,296.420013 248.039335,327.220013 224.749335,345.120013 C213.349335,353.850013 199.389335,357.770013 185.909335,361.330013 C178.719147,363.338471 171.398221,364.845426 163.999335,365.840013 C162.789335,365.990013 161.589335,366.090013 160.399335,366.190013 C154.759335,365.500013 148.639335,366.190013 143.159335,366.270013 C136.789335,366.370013 130.459335,367.270013 124.159335,367.380013 C123.939601,367.306089 123.710843,367.262356 123.479335,367.250013 C115.569335,366.370013 107.689335,366.820013 99.7993354,365.840013 C92.4071851,364.844515 85.0929718,363.337567 77.9093354,361.330013 C64.4293354,357.770013 50.4693354,353.850013 39.0693354,345.120013 C15.7393354,327.220013 8.6293354,296.440013 17.0693354,268.420013 C20.5693354,256.710013 24.7693354,243.730013 23.4093354,231.250013 C22.5793354,223.730013 22.1993354,217.150013 24.7193354,209.830013 C27.2393354,202.510013 32.2293354,198.210013 36.6393354,192.210013 C44.4693354,181.590013 46.2393354,168.830013 47.4193354,155.920013 C48.7493354,141.090013 53.4993354,125.920013 59.6993354,112.590013 C66.3993354,97.9100132 76.0793354,84.3200132 88.5593354,74.3600132 C98.2193354,66.6300132 109.129335,63.1300132 120.559335,61.2700132 C123.187508,60.9442273 125.831359,60.7606266 128.479335,60.7200132 C137.479335,60.6100132 146.199335,62.3600132 154.919335,64.4700132 C159.779335,65.6600132 164.199335,67.8500132 168.689335,69.8900132 C170.961481,71.2254956 173.136852,72.7191834 175.199335,74.3600132 C187.679335,84.3600132 197.359335,97.9100132 204.139335,112.590013 C210.339335,125.960013 215.089335,141.090013 216.419335,155.920013 C217.599335,168.830013 219.369335,181.590013 227.199335,192.210013 C231.609335,198.210013 236.569335,202.470013 239.119335,209.830013 C241.669335,217.190013 241.259335,223.730013 240.429335,231.250013 C239.049335,243.730013 243.249335,256.710013 246.749335,268.420013 Z M218.159335,320.760013 C219.419335,310.470013 215.009335,304.760013 208.429335,302.280013 C198.839335,296.010013 185.059335,298.550013 175.859335,307.350013 C164.199335,318.550013 161.969335,346.640013 181.489335,350.780013 C198.999335,354.500013 215.999335,338.180013 218.159335,320.760013 Z M216.749335,296.870013 C217.34764,297.175312 218.080259,296.953192 218.408288,296.367042 C218.736317,295.780891 218.542469,295.04029 217.969335,294.690013 C200.649335,284.140013 174.969335,282.540013 163.299335,302.850013 C162.239335,304.700013 164.449335,307.300013 166.299335,305.950013 C172.699335,301.190013 177.299335,295.680013 185.459335,293.800013 C194.909335,291.620013 207.929335,292.710013 216.749335,296.870013 Z M180.219335,266.350013 C188.889335,250.270013 184.599335,233.820013 180.759335,217.010013 C176.529335,198.450013 169.189335,180.400013 162.849335,162.520013 C160.699335,156.450013 158.539335,150.420013 156.319335,144.440013 C156.197951,142.009274 155.729888,139.608347 154.929335,137.310013 C152.439335,130.110013 149.069335,123.950013 147.499335,116.450013 C145.959335,109.120013 141.699335,95.1000132 133.339335,93.0700132 C130.249335,92.3100132 127.539335,93.9800132 125.699335,96.5400132 C122.57756,100.949806 120.049221,105.750962 118.179335,110.820013 C115.959335,117.340013 114.179335,124.100013 112.569335,130.920013 C108.459335,141.320013 104.669335,151.850013 100.889335,162.520013 C94.5493354,180.400013 87.2093354,198.450013 82.9993354,217.000013 C79.1593354,233.810013 74.8693354,250.260013 83.5393354,266.340013 C86.9293354,272.630013 91.6393354,280.130013 97.5393354,284.230013 C100.379335,286.230013 104.049335,287.400013 107.239335,288.500013 L107.759335,288.670013 C111.193206,290.205038 114.744574,291.462397 118.379335,292.430013 C124.989335,293.970013 134.199335,294.930013 140.869335,293.850013 C145.769335,293.060013 152.629335,291.850013 156.999335,288.350013 C160.089335,287.280013 163.549335,286.110013 166.259335,284.230013 C172.119335,280.140013 176.829335,272.640013 180.219335,266.350013 Z M97.4593354,306.000013 C99.2893354,307.350013 101.459335,304.750013 100.459335,302.900013 C88.7793354,282.590013 63.1093354,284.190013 45.7893354,294.740013 C45.3416729,295.130718 45.2309141,295.782561 45.5244038,296.2992 C45.8178935,296.815839 46.434512,297.054476 46.9993354,296.870013 C55.8193354,292.710013 68.8393354,291.620013 78.3093354,293.800013 C86.4993354,295.680013 91.0593354,301.190013 97.4593354,306.000013 Z M82.2493354,350.780013 C101.769335,346.640013 99.5393354,318.550013 87.8693354,307.350013 C78.6793354,298.550013 64.8693354,296.010013 55.3093354,302.280013 C48.7293354,304.780013 44.3093354,310.470013 45.5793354,320.760013 C47.6993354,338.180013 64.7193354,354.500013 82.2493354,350.780013 Z"/>
      <path fill="#A3A39B" d="M189.999335,347.140013 C175.439335,348.560013 161.549335,353.290013 146.999335,354.660013 C133.229335,355.950013 119.059335,355.260013 105.249335,354.960013 C93.1793354,354.710013 80.9293354,350.560013 69.8393354,345.850013 C64.1093354,343.420013 58.1993354,341.610013 52.6993354,338.630013 C45.3693354,334.630013 43.6993354,328.050013 42.5893354,320.010013 C41.0493354,308.860013 39.8593354,294.190013 43.9193354,283.490013 C44.4793354,282.030013 45.0893354,280.610013 45.7093354,279.200013 C50.4693354,275.000013 53.8693354,269.080013 57.9993354,264.000013 C60.2793354,261.190013 62.7593354,258.500013 65.0993354,255.700013 C75.4293354,249.400013 81.7293354,230.940013 83.5993354,220.700013 C85.1093354,212.390013 83.5993354,205.900013 79.2093354,198.790013 C74.8193354,191.680013 68.9593354,185.790013 66.7393354,177.790013 C69.6874433,171.847358 71.7943117,165.523387 72.9993354,159.000013 C75.4593354,144.180013 73.1293354,128.510013 77.6293354,114.070013 C79.8293354,110.070013 82.3193354,106.300013 84.8893354,102.590013 C90.7693354,94.0600132 98.4993354,86.4000132 103.699335,77.4800132 C104.104333,76.7721733 104.346853,75.9831284 104.409335,75.1700132 C105.809335,73.6000132 107.199335,72.0300132 108.549335,70.4500132 C109.899335,68.8700132 108.629335,65.8900132 106.449335,66.6800132 C104.639335,67.3300132 102.889335,68.0100132 101.179335,68.6800132 C99.9051524,67.9384063 98.3555986,67.8420225 96.9993354,68.4200132 C75.9993354,76.6600132 57.6293354,97.6100132 51.2293354,120.060013 C46.5593354,136.440013 42.3393354,154.920013 42.7093354,172.720013 C40.7093354,176.100013 38.6493354,179.440013 36.4793354,182.800013 C28.4793354,195.210013 23.4793354,208.220013 21.9793354,222.560013 C19.8685436,230.182454 19.1037446,238.114705 19.7193354,246.000013 C20.1893354,253.380013 19.7793354,256.350013 17.4193354,262.940013 C15.341502,269.082835 14.0708597,275.469662 13.6393354,281.940013 C12.7793354,291.740013 15.6393354,337.170013 31.3593354,338.880013 C36.7493354,344.640013 43.4593354,348.980013 50.4693354,354.280013 C60.9993354,362.250013 75.6693354,367.720013 88.2393354,371.000013 C105.169335,375.390013 122.869335,375.310013 140.239335,375.140013 C159.239335,374.960013 176.689335,370.720013 194.089335,363.040013 C201.509335,359.740013 197.789335,346.370013 189.999335,347.140013 Z"/>
      <path fill="#A3A39B" d="M145.609335,293.460013 C132.609335,294.400013 119.379335,296.460013 107.329335,290.290013 C97.4393354,285.290013 85.1793354,278.420013 80.9893354,266.970013 C79.2793354,262.290013 73.1793354,263.120013 72.7193354,268.140013 C71.1993354,284.600013 85.1993354,297.530013 97.3993354,305.440013 C111.229335,314.440013 135.469335,319.630013 149.599335,308.840013 C155.299335,304.490013 154.249335,292.820013 145.609335,293.460013 Z"/>
      <path fill="#1E7D81" d="M153.769335,270.490013 C149.649335,264.490013 144.579335,263.820013 138.769335,260.360013 C132.569335,256.660013 129.389335,253.090013 126.219335,246.510013 C119.139335,231.810013 118.699335,214.510013 120.819335,198.390013 C122.879335,182.770013 126.479335,167.220013 130.339335,151.990013 C133.989335,137.600013 135.619335,122.340013 136.559335,107.520013 C136.629411,106.464252 136.268616,105.425164 135.559335,104.640013 C135.459335,102.010013 132.899335,99.3900132 130.339335,101.230013 C125.399335,104.770013 123.189335,110.980013 120.899335,116.530013 C118.364325,122.409427 116.470063,128.544823 115.249335,134.830013 C114.381337,135.45982 113.621436,136.226475 112.999335,137.100013 C108.239335,143.650013 106.859335,152.230013 104.879335,160.030013 C102.879335,168.030013 101.009335,176.130013 98.6293354,184.080013 C93.8393354,200.080013 87.7093354,215.570013 85.9693354,232.330013 C84.5493354,245.980013 86.1793354,260.910013 96.1493354,270.680013 C103.049335,277.440013 111.589335,283.070013 121.039335,284.910013 C124.934345,286.809163 129.316874,287.472125 133.599335,286.810013 C135.15967,286.606066 136.586886,285.824665 137.599335,284.620013 C140.119632,285.339243 142.719573,285.742335 145.339335,285.820013 C152.299335,286.000013 158.119335,276.850013 153.769335,270.490013 Z"/>
      <path fill="#000" d="M182.329335,72.2500132 C181.479335,71.5200132 180.599335,70.8300132 179.719335,70.1300132 C179.728486,70.1041316 179.728486,70.0758949 179.719335,70.0500132 C177.359335,63.2000132 167.099335,60.4200132 160.919335,58.5700132 C150.854751,55.6002178 140.4129,54.1046752 129.919335,54.1296966 C118.432708,54.2857657 107.127769,57.0197294 96.8393354,62.1300132 C96.5893354,62.2400132 96.3293354,62.3400132 96.0793354,62.4700132 C95.8293354,62.6000132 95.5693354,62.7400132 95.3193354,62.8700132 L94.9993354,63.0000132 C92.073521,64.5024846 89.2655149,66.2240598 86.5993354,68.1500132 C86.2093354,68.4500132 85.8093354,68.7300132 85.4093354,69.0100132 C85.0093354,69.2900132 84.6493354,69.5800132 84.2893354,69.8700132 C83.3893354,70.5800132 82.4993354,71.2900132 81.6393354,72.0300132 C81.5593354,72.1000132 58.0793354,94.3200132 60.6393354,96.2000132 C53.3693354,107.380013 48.4493354,119.700013 44.1093354,132.470013 C38.7493354,148.190013 39.2893354,165.740013 31.7593354,180.580013 C28.5493354,186.920013 23.2693354,191.580013 20.4493354,198.140013 C17.589806,205.043912 16.0107397,212.410629 15.7893354,219.880013 C15.4993354,227.250013 17.4793354,233.950013 16.5293354,241.380013 C15.3293354,250.940013 11.7793354,258.490013 8.8593354,267.440013 C4.34000573,281.193307 3.39366321,295.870219 6.1093354,310.090013 C8.6993354,324.850013 17.1993354,336.890013 27.1093354,347.340013 C38.5793354,359.510013 54.9993354,365.540013 70.5293354,369.670013 C86.0593354,373.800013 103.609335,378.980013 119.769335,375.760013 L120.849335,375.830013 C128.279335,376.290013 135.679335,375.600013 143.149335,375.730013 L143.889335,375.730013 C160.089335,378.980013 177.699335,373.780013 193.229335,369.650013 C208.759335,365.520013 225.179335,359.490013 236.649335,347.320013 C246.509335,336.870013 255.009335,324.830013 257.599335,310.070013 C260.315008,295.850219 259.368665,281.173307 254.849335,267.420013 C251.929335,258.470013 248.379335,250.920013 247.179335,241.360013 C246.229335,233.930013 248.179335,227.230013 247.919335,219.860013 C247.697931,212.390629 246.118865,205.023912 243.259335,198.120013 C240.439335,191.580013 235.159335,186.900013 231.949335,180.560013 C224.419335,165.720013 224.949335,148.170013 219.599335,132.450013 C215.259335,119.680013 210.339335,107.360013 203.069335,96.1800132 C205.639335,94.3400132 190.639335,77.3400132 182.329335,72.2500132 Z M204.119335,112.590013 C210.319335,125.960013 215.069335,141.090013 216.399335,155.920013 C217.579335,168.830013 219.349335,181.590013 227.179335,192.210013 C231.589335,198.210013 236.549335,202.470013 239.099335,209.830013 C241.649335,217.190013 241.239335,223.730013 240.409335,231.250013 C239.049335,243.730013 243.249335,256.710013 246.749335,268.420013 C255.149335,296.420013 248.039335,327.220013 224.749335,345.120013 C213.349335,353.850013 199.389335,357.770013 185.909335,361.330013 C178.719147,363.338471 171.398221,364.845426 163.999335,365.840013 C162.789335,365.990013 161.589335,366.090013 160.399335,366.190013 C154.759335,365.500013 148.639335,366.190013 143.159335,366.270013 C136.789335,366.370013 130.459335,367.270013 124.159335,367.380013 C123.939601,367.306089 123.710843,367.262356 123.479335,367.250013 C115.569335,366.370013 107.689335,366.820013 99.7993354,365.840013 C92.4071851,364.844515 85.0929718,363.337567 77.9093354,361.330013 C64.4293354,357.770013 50.4693354,353.850013 39.0693354,345.120013 C15.7393354,327.220013 8.6293354,296.440013 17.0693354,268.420013 C20.5693354,256.710013 24.7693354,243.730013 23.4093354,231.250013 C22.5793354,223.730013 22.1993354,217.150013 24.7193354,209.830013 C27.2393354,202.510013 32.2293354,198.210013 36.6393354,192.210013 C44.4693354,181.590013 46.2393354,168.830013 47.4193354,155.920013 C48.7493354,141.090013 53.4993354,125.920013 59.6993354,112.590013 C66.3993354,97.9100132 76.0793354,84.3200132 88.5593354,74.3600132 C98.2193354,66.6300132 109.129335,63.1300132 120.559335,61.2700132 C123.187508,60.9442273 125.831359,60.7606266 128.479335,60.7200132 C137.479335,60.6100132 146.199335,62.3600132 154.919335,64.4700132 C159.779335,65.6600132 164.199335,67.8500132 168.689335,69.8900132 C170.961481,71.2254956 173.136852,72.7191834 175.199335,74.3600132 C187.659335,84.3200132 197.339335,97.9100132 204.119335,112.590013 Z"/>
      <path fill="#000" d="M208.429335,302.280013 C198.839335,296.010013 185.059335,298.550013 175.859335,307.350013 C164.199335,318.550013 161.969335,346.640013 181.489335,350.780013 C199.019335,354.500013 216.039335,338.180013 218.159335,320.780013 C219.419335,310.470013 214.999335,304.780013 208.429335,302.280013 Z M211.839335,325.880013 C207.309335,335.330013 195.259335,344.210013 184.679335,342.710013 C179.749335,342.010013 177.119335,338.600013 175.989335,334.430013 L176.149335,334.430013 C179.859335,333.670013 183.089335,333.430013 186.529335,331.540013 C189.705766,329.713068 192.481099,327.264245 194.689335,324.340013 C198.349335,319.650013 202.089335,312.800013 201.109335,306.470013 C205.733221,307.192542 209.969128,309.479933 213.109335,312.950013 C214.419335,316.700013 213.999335,321.320013 211.839335,325.880013 Z"/>
      <path fill="#000" d="M217.999335 294.690013C200.679335 284.140013 174.999335 282.540013 163.329335 302.850013 162.259335 304.700013 164.479335 307.300013 166.329335 305.950013 172.729335 301.190013 177.329335 295.680013 185.489335 293.800013 194.959335 291.620013 207.979335 292.710013 216.799335 296.870013 217.390601 297.124923 218.078774 296.888994 218.389268 296.32493 218.699761 295.760866 218.530987 295.053223 217.999335 294.690013zM162.849335 162.520013C160.699335 156.450013 158.539335 150.420013 156.319335 144.440013 156.197951 142.009274 155.729888 139.608347 154.929335 137.310013 152.439335 130.110013 149.069335 123.950013 147.499335 116.450013 145.959335 109.120013 141.699335 95.1000132 133.339335 93.0700132 130.249335 92.3100132 127.539335 93.9800132 125.699335 96.5400132 122.57756 100.949806 120.049221 105.750962 118.179335 110.820013 115.959335 117.340013 114.179335 124.100013 112.569335 130.920013 108.459335 141.320013 104.669335 151.850013 100.889335 162.520013 94.5493354 180.400013 87.2093354 198.450013 82.9993354 217.000013 79.1593354 233.810013 74.8693354 250.260013 83.5393354 266.340013 86.9293354 272.630013 91.6393354 280.130013 97.5393354 284.230013 100.379335 286.230013 104.049335 287.400013 107.239335 288.500013L107.759335 288.670013C111.193206 290.205038 114.744574 291.462397 118.379335 292.430013 124.989335 293.970013 134.199335 294.930013 140.869335 293.850013 145.769335 293.060013 152.629335 291.850013 156.999335 288.350013 160.089335 287.280013 163.549335 286.110013 166.259335 284.230013 172.149335 280.130013 176.859335 272.630013 180.259335 266.340013 188.929335 250.260013 184.639335 233.810013 180.799335 217.000013 176.529335 198.450013 169.189335 180.400013 162.849335 162.520013zM173.999335 257.400013C171.299335 264.290013 166.219335 272.930013 159.889335 276.760013 156.119335 279.020013 152.269335 280.040013 148.589335 281.760013 144.299335 283.230013 139.959335 284.600013 135.489335 284.520013 129.489335 284.420013 123.359335 284.400013 117.489335 282.980013 113.879335 280.800013 110.039335 279.810013 106.219335 277.980013L105.099335 277.390013C104.699335 277.180013 104.299335 276.980013 103.909335 276.750013 97.5793354 272.920013 92.4993354 264.280013 89.7993354 257.390013 83.4493354 241.140013 90.7993354 222.850013 94.6693354 206.930013 100.669335 182.310013 108.499335 158.140013 115.829335 133.830013 116.999335 130.440013 118.199335 127.080013 119.449335 123.710013 121.019335 119.510013 121.689335 114.770013 123.729335 110.780013 125.029335 108.250013 129.379335 99.4500132 132.429335 99.499801 138.309335 99.6200132 140.769335 119.890013 141.959335 124.150013 144.779335 134.150013 151.829335 142.860013 153.229335 153.220013 153.285507 153.675211 153.644137 154.033841 154.099335 154.090013 159.459335 171.610013 164.729335 189.150013 169.099335 206.930013 172.999335 222.860013 180.299335 241.150013 173.999335 257.400013zM87.8693354 307.350013C78.6793354 298.550013 64.8693354 296.010013 55.3093354 302.280013 48.7293354 304.780013 44.3093354 310.470013 45.5793354 320.760013 47.6993354 338.180013 64.7193354 354.500013 82.2493354 350.760013 101.769335 346.640013 99.5393354 318.550013 87.8693354 307.350013zM79.0593354 342.710013C68.4793354 344.210013 56.4293354 335.330013 51.8993354 325.880013 49.7093354 321.320013 49.3193354 316.700013 50.6293354 312.940013 53.7695428 309.469933 58.0054502 307.182542 62.6293354 306.460013 61.6293354 312.790013 65.3893354 319.640013 69.0493354 324.330013 71.2575718 327.254245 74.0329045 329.703068 77.2093354 331.530013 80.6493354 333.440013 83.8793354 333.660013 87.5893354 334.420013L87.7493354 334.420013C86.6193354 338.600013 83.9993354 342.000013 79.0593354 342.710013L79.0593354 342.710013z"/>
      <path fill="#000" d="M45.7693354 294.690013C45.1673451 295.029668 44.9546804 295.793023 45.2943355 296.395013 45.6339906 296.997003 46.397345 297.209668 46.9993354 296.870013 55.8193354 292.710013 68.8393354 291.620013 78.3093354 293.800013 86.5093354 295.680013 91.0693354 301.190013 97.4693354 305.950013 99.2993354 307.300013 101.469335 304.700013 100.469335 302.850013 88.7593354 282.540013 63.0893354 284.140013 45.7693354 294.690013zM216.489335 176.670013C216.489335 176.670013 207.489335 184.300013 203.919335 191.480013 200.349335 198.660013 185.069335 208.760013 173.629335 209.480013L173.629335 220.930013C173.629335 220.930013 190.459335 232.820013 206.629335 224.930013 222.799335 217.040013 227.949335 199.120013 213.579335 189.020013 213.569335 189.000013 211.549335 184.300013 216.489335 176.670013zM46.4193354 176.670013C46.4193354 176.670013 55.4193354 184.300013 58.9793354 191.480013 62.5393354 198.660013 77.8293354 208.760013 89.2793354 209.480013L89.2793354 220.930013C89.2793354 220.930013 72.4493354 232.820013 56.2793354 224.930013 40.1093354 217.040013 34.9993354 199.110013 49.3293354 189.000013 49.3293354 189.000013 51.3493354 184.300013 46.4193354 176.670013z"/>
      <path fill="#1AECF7" d="M190.799335 214.410013C190.799335 214.410013 189.389335 209.820013 195.089335 212.110013 195.364068 212.997164 196.161991 213.619544 197.089335 213.670013 198.799335 213.890013 200.089335 210.930013 200.499335 206.190013 200.499335 206.190013 201.689335 201.300013 204.349335 202.260013 206.649335 203.090013 205.349335 211.080013 203.239335 215.080013 201.129335 219.080013 194.349335 221.520013 190.799335 214.410013zM71.1893354 214.410013C71.1893354 214.410013 72.5993354 209.820013 66.8993354 212.110013 66.6246029 212.997164 65.8266795 213.619544 64.8993354 213.670013 63.1893354 213.890013 61.8993354 210.930013 61.4893354 206.190013 61.4893354 206.190013 60.2993354 201.300013 57.6393354 202.260013 55.3393354 203.090013 56.6393354 211.080013 58.7493354 215.080013 60.8593354 219.080013 67.6393354 221.520013 71.1893354 214.410013z"/>
      <path fill="#000" d="M256.669335,6.50001323 L253.669335,6.50001323 C250.365548,6.8023903 247.082949,7.30329553 243.839335,8.00001323 C213.339335,14.0900132 208.539335,35.2200132 208.539335,35.2200132 L208.539335,35.2200132 C207.023225,38.7788624 205.948563,42.5099557 205.339335,46.3300132 C205.339335,41.3300132 204.809335,35.8000132 204.809335,35.8000132 C197.669335,40.6000132 191.999335,53.5600132 197.099335,58.5900132 C207.989335,69.3100132 202.099335,81.0200132 202.099335,81.0200132 L211.289335,111.090013 C222.919335,104.720013 220.839335,91.5400132 220.839335,91.5400132 C227.069335,89.4600132 232.319335,86.1300132 247.079335,71.2400132 C261.839335,56.3500132 254.319335,42.9400132 254.319335,42.9400132 C252.846161,30.7524343 253.642931,18.3974163 256.669335,6.50001323 Z"/>
      <path fill="#000" d="M211.259335,117.590134 C208.388934,117.607446 205.845868,115.742802 204.999335,113.000007 L195.809335,82.9300132 C195.299335,81.2600132 193.249335,83.6200132 192.079335,82.3200132 C189.259335,79.2100132 202.449335,71.5100132 192.499335,63.2300132 C189.359335,60.6100132 188.229335,56.1200132 188.689335,51.3100132 C189.429335,43.5400132 194.689335,34.7600132 201.169335,30.4300132 C201.933802,29.9240804 202.79555,29.5834684 203.699335,29.4300132 C207.009335,21.8900132 216.699335,6.85001323 242.459335,1.68001323 C245.965243,0.904550185 249.515159,0.343509848 253.089335,6.59826316e-06 C253.289335,6.59826316e-06 253.499335,6.59826316e-06 253.699335,6.59826316e-06 L256.699335,6.59826316e-06 C258.749757,-0.00291311687 260.680969,0.963289172 261.90807,2.60598881 C263.13517,4.24868845 263.513819,6.37465906 262.929335,8.34001323 L262.929335,8.34001323 C260.243301,19.0639714 259.474802,30.1784282 260.659335,41.1700132 C262.589335,45.7100132 266.979335,60.4100132 251.659335,75.8200132 C239.339335,88.2400132 233.079335,93.1700132 227.369335,95.9000132 C226.969335,101.810013 224.609335,111.190013 214.369335,116.790013 C213.415893,117.312589 212.346595,117.58765 211.259335,117.590134 Z M208.929335,81.2400132 L213.999335,97.8500132 C214.456896,96.1022257 214.582401,94.284094 214.369335,92.4900132 C213.881359,89.3628249 215.738084,86.3445866 218.749335,85.3700132 C223.239335,83.8700132 227.559335,81.6600132 242.429335,66.6600132 C252.999335,56.0000132 249.209335,47.3100132 248.599335,46.0800132 C248.170325,45.3611534 247.910437,44.554132 247.839335,43.7200132 C246.678426,33.7375602 246.897145,23.6428158 248.489335,13.7200132 C247.389335,13.9100132 246.299335,14.1200132 245.239335,14.3600132 L245.109335,14.3600132 C219.489335,19.5200132 214.999335,36.0600132 214.859335,36.7600132 C214.774103,37.1022496 214.660373,37.4367507 214.519335,37.7600132 C213.212287,40.8323753 212.285423,44.052891 211.759335,47.3500132 C211.40841,49.5290153 209.975755,51.3810715 207.954838,52.268254 C205.933921,53.1554366 203.600888,52.9565176 201.759335,51.7400132 C201.554704,52.4760552 201.554704,53.2539713 201.759335,53.9900132 C212.439335,64.6300132 210.559335,76.1100132 208.929335,81.2400132 L208.929335,81.2400132 Z"/>
      <path fill="#BDBDB5" d="M197.109335,83.1300132 C197.109335,83.1300132 207.989335,69.3100132 197.109335,58.5900132 C192.009335,53.5900132 197.679335,40.5900132 204.819335,35.8300132 C204.819335,35.8300132 206.009335,47.3900132 204.819335,52.4300132 C204.819335,52.4300132 203.639335,11.2400132 253.709335,6.50001323 L256.709335,6.50001323 C256.709335,6.50001323 250.189335,24.8700132 254.329335,42.9400132 C254.329335,42.9400132 264.109335,66.3500132 220.849335,91.5400132 C220.849335,91.5400132 221.079335,105.460013 211.299335,111.090013 L197.109335,83.1300132 Z"/>
      <path fill="#A3A39B" d="M206.999335,97.2200132 L211.239335,93.0200132 L220.499335,81.7600132 L244.409335,29.7600132 C244.409335,29.7600132 248.709335,21.6600132 248.709335,16.9200132 C248.709335,16.9200132 226.539335,14.6500132 208.519335,35.3000132 C208.519335,35.3000132 214.579335,8.48001323 256.649335,6.55001323 C253.612896,18.4455448 252.805953,30.8005855 254.269335,42.9900132 C254.269335,42.9900132 261.789335,56.4000132 247.029335,71.2900132 C232.269335,86.1800132 227.029335,89.5100132 220.789335,91.5900132 C220.789335,91.5900132 222.869335,104.770013 211.239335,111.140013 L206.999335,97.2200132 Z"/>
      <path fill="#000" d="M244.219335 16.8700132C244.219335 16.8700132 220.219335 24.2800132 221.999335 61.8700132 221.999335 61.8700132 219.629335 82.8700132 211.919335 91.5000132 211.919335 91.5000132 209.259335 98.3100132 214.589335 93.5700132 219.919335 88.8300132 220.519335 81.7200132 220.519335 81.7200132 220.519335 81.7200132 242.739335 73.1300132 245.409335 59.2000132 248.079335 45.2700132 247.779335 37.5700132 242.409335 24.2000132 241.992129 21.6122611 242.64554 18.9661266 244.219335 16.8700132zM172.809335 63.5300132C172.809335 63.5300132 174.189335 61.8700132 195.449335 81.3500132 195.881516 81.7560032 196.267218 82.2087845 196.599335 82.7000132 196.729335 82.8900132 195.729335 83.2700132 195.849335 83.4600132 200.269335 90.4600132 200.619335 92.8800132 200.619335 92.8800132L193.889335 85.0700132 172.809335 63.5300132zM6.4993354 6.50001323L9.4993354 6.50001323C12.803663 6.79794961 16.0865309 7.29889589 19.3293354 8.00001323 49.8293354 14.0900132 54.6293354 35.2200132 54.6293354 35.2200132L54.6293354 35.2200132C56.1362623 38.7821207 57.2105984 42.5120815 57.8293354 46.3300132 57.8293354 41.3300132 58.3493354 35.8000132 58.3493354 35.8000132 65.4993354 40.5700132 71.1593354 53.5300132 66.0593354 58.5600132 55.1693354 69.3100132 61.0993354 81.0000132 61.0993354 81.0000132L51.9093354 111.070013C40.2693354 104.700013 42.3493354 91.5200132 42.3493354 91.5200132 36.1293354 89.4400132 30.8793354 86.1100132 16.1093354 71.2200132 1.3393354 56.3300132 8.8693354 42.9200132 8.8693354 42.9200132 10.3362683 30.737853 9.53269823 18.3893206 6.4993354 6.50001323z"/>
      <path fill="#000" d="M51.9093354,117.590027 C54.7661513,117.590027 57.2873813,115.723006 58.1193354,112.990013 L72.9993354,85.7200132 C73.5093354,84.0500132 74.1993354,83.8100132 73.1393354,82.0100132 C70.9993354,78.4000132 62.5493354,71.9400132 70.6293354,63.2200132 C73.5716524,59.9897805 74.9592328,55.63716 74.4293354,51.3000132 C73.6893354,43.5300132 68.4293354,34.7500132 61.9593354,30.4200132 C61.1911988,29.914103 60.3262007,29.5735526 59.4193354,29.4200132 C56.1093354,21.8800132 46.4193354,6.84001323 20.6593354,1.67001323 C17.1699045,0.898745863 13.636677,0.341043597 10.0793354,1.32264755e-05 C9.8693354,1.32264755e-05 9.6693354,1.32264755e-05 9.4593354,1.32264755e-05 L6.4593354,1.32264755e-05 C4.41595857,0.00968486281 2.4964623,0.981146336 1.27862236,2.621984 C0.0607824082,4.26282167 -0.31316661,6.38139795 0.269335396,8.34001323 L0.269335396,8.34001323 C2.94890136,19.0650608 3.71397606,30.1789557 2.5293354,41.1700132 C0.599335396,45.7100132 -3.7806646,60.4100132 11.5293354,75.8200132 C23.8093354,88.2400132 30.0793354,93.1700132 35.7793354,95.9000132 C36.1793354,101.810013 38.5493354,111.190013 48.7793354,116.790013 C49.738236,117.31706 50.8151399,117.592307 51.9093354,117.590027 Z M54.2393354,81.2400132 L49.1593354,97.8500132 C48.706222,96.1015745 48.5774272,94.2848901 48.7793354,92.4900132 C49.268427,89.3656355 47.4165921,86.3484581 44.4093354,85.3700132 C39.9193354,83.8700132 35.5993354,81.6600132 20.7293354,66.6600132 C10.1893354,56.0000132 13.9993354,47.3100132 14.5593354,46.0800132 C14.9926151,45.3630917 15.2528321,44.5550492 15.3193354,43.7200132 C16.4853472,33.7378011 16.2666125,23.6423541 14.6693354,13.7200132 C15.7793354,13.9100132 16.8593354,14.1200132 17.9293354,14.3600132 L18.0493354,14.3600132 C43.6793354,19.4800132 48.1293354,36.0200132 48.3093354,36.7200132 C48.3903255,37.0634821 48.5041837,37.3983592 48.6493354,37.7200132 C49.9563837,40.7923753 50.8832475,44.012891 51.4093354,47.3100132 C51.7602606,49.4890153 53.1929157,51.3410715 55.2138327,52.228254 C57.2347497,53.1154366 59.5677829,52.9165176 61.4093354,51.7000132 C61.6149835,52.4359162 61.6149835,53.2141103 61.4093354,53.9500132 C50.7293354,64.6300132 52.5993354,76.1100132 54.2393354,81.2400132 L54.2393354,81.2400132 Z"/>
      <path fill="#BDBDB5" d="M66.0493354,83.1300132 C66.0493354,83.1300132 55.1693354,69.3100132 66.0493354,58.5900132 C71.1493354,53.5900132 65.4893354,40.5900132 58.3393354,35.8300132 C58.3393354,35.8300132 57.1593354,47.3900132 58.3393354,52.4300132 C58.3393354,52.4300132 59.5293354,11.2400132 9.4493354,6.50001323 L6.4493354,6.50001323 C6.4493354,6.50001323 12.9993354,24.8700132 8.8693354,42.9400132 C8.8693354,42.9400132 -0.910664604,66.3500132 42.3493354,91.5400132 C42.3493354,91.5400132 42.1293354,105.460013 51.9093354,111.090013 L66.0493354,83.1300132 Z"/>
      <path fill="#A3A39B" d="M56.1493354,97.2200132 L51.9093354,93.0000132 L42.6493354,81.7600132 L18.7293354,29.7600132 C18.7293354,29.7600132 14.4293354,21.6600132 14.4293354,16.9200132 C14.4293354,16.9200132 36.5993354,14.6500132 54.6293354,35.3000132 C54.6293354,35.3000132 48.5693354,8.48001323 6.4993354,6.55001323 C9.52897998,18.4297025 10.3325274,30.7677155 8.8693354,42.9400132 C8.8693354,42.9400132 1.3493354,56.3500132 16.1093354,71.2400132 C30.8693354,86.1300132 36.1093354,89.4600132 42.3493354,91.5400132 C42.3493354,91.5400132 40.2693354,104.720013 51.9093354,111.090013 L56.1493354,97.2200132 Z"/>
      <path fill="#000" d="M18.9393354,16.8700132 C18.9393354,16.8700132 42.9393354,24.2800132 41.1693354,61.8700132 C41.1693354,61.8700132 43.5393354,82.8700132 51.2393354,91.5000132 C51.2393354,91.5000132 53.9093354,98.3100132 48.5693354,93.5700132 C43.2293354,88.8300132 42.6493354,81.7200132 42.6493354,81.7200132 C42.6493354,81.7200132 20.4293354,73.1700132 17.7593354,59.2400132 C15.0893354,45.3100132 15.3893354,37.6100132 20.7593354,24.2400132 C21.1850227,21.6378696 20.5274017,18.9748663 18.9393354,16.8700132 Z"/>
    </g>
    <path fill="#FFF" fill-rule="nonzero" d="M1687.88497,111.056219 C1739.10833,112.677396 1761.05086,142.724007 1757.72755,184.833782 L1750.7464,279.795819 C1730.87075,278.327049 1711.02948,277.291473 1691.22257,276.689091 L1694.2956,187.737167 C1694.89668,169.721595 1684.52078,159.59687 1665.8947,159.283537 C1644.91216,159.036312 1631.3891,169.69153 1631.63773,188.057876 L1632.63509,276.21304 C1613.04505,276.434676 1593.52175,277.070823 1574.06518,278.121482 C1571.20588,224.070034 1568.3304,170.027927 1565.43874,115.995162 C1585.41441,114.946827 1605.47983,114.27814 1625.63501,113.989101 L1627.92634,132.082172 C1642.01028,117.802412 1663.64019,110.42725 1687.88497,111.056219 Z M322.871717,60.3797135 C323.383269,82.9532204 323.860176,105.51273 324.302437,128.058242 C339.903689,114.916762 359.907518,108.179642 380.280181,109.205412 C430.433078,110.305568 451.85352,140.178249 449.074556,182.217405 L443.260073,277.254573 C424.00232,276.042932 404.670208,275.264704 385.263736,274.91989 C385.935279,245.328475 386.530882,215.625777 387.050544,185.811795 C387.425121,167.827869 377.36429,157.717942 358.900587,157.633129 C338.334036,157.665925 325.141756,168.174029 325.472685,186.805703 L327.383961,274.989885 C308.093331,275.256082 288.738316,276.080625 269.318918,277.463513 C264.778499,206.11055 260.265726,134.788907 255.780601,63.4985841 C278.173347,62.0878384 300.450091,61.1138315 322.871717,60.3797135 Z M239.203923,132.568018 C237.517309,163.177565 218.949794,184.688119 188.756841,194.05025 C207.486258,218.929477 225.236517,244.084745 242.007617,269.516055 L241.6807,275.799299 C219.059822,274.475006 196.364703,273.690328 173.595343,273.445266 C155.476118,247.882816 136.335364,222.74453 116.173079,198.030408 L118.296108,273.942911 C97.5941199,274.675714 76.7189786,275.78316 55.6706841,277.265248 L40,63.5087128 C74.3037323,60.9640412 108.456479,59.540303 142.458241,59.2374984 C205.794194,58.7200221 241.908691,88.760963 239.203923,132.568018 Z M978.847175,193.45816 C975.820525,242.837402 934.904694,275.682164 881.265723,276.578949 C827.626751,277.475735 785.589939,245.864052 780.937865,196.709007 C776.285791,147.385814 817.089523,107.983309 878.463268,107.030475 C939.837014,106.077641 981.873825,144.078919 978.847175,193.45816 Z M687.931314,106.998423 C737.750978,108.498016 758.635564,138.531589 755.384837,180.529868 L748.540746,275.507274 C729.488121,274.139763 710.367366,273.158634 691.298609,272.528157 L694.023291,183.483295 C694.64417,165.437293 684.824323,155.282557 666.599796,155.028595 C646.274562,154.745704 633.071162,165.393919 633.093188,183.66711 C633.443616,213.096384 633.742091,242.497527 633.988612,271.870537 C614.97301,272.12211 595.902255,272.686468 576.776347,273.563613 C574.002524,219.575607 571.271987,165.557292 568.584737,111.508666 C588.14787,110.518903 607.722958,109.891702 627.310002,109.627063 C628.109575,115.743991 628.909149,121.860919 629.76392,127.98758 C643.655151,113.761256 664.531283,106.401017 687.931314,106.998423 Z M1545.70358,112.957303 L1542.15051,275.162325 C1522.76693,274.712154 1503.38932,274.688798 1484.01768,275.092257 C1483.01103,221.017763 1481.96264,166.941399 1480.87252,112.863165 C1502.3953,112.422255 1524.07206,112.464973 1545.70358,112.957303 Z M1249.3624,141.431913 C1227.01571,140.636838 1204.66288,140.299741 1182.30391,140.420622 C1174.10588,119.688786 1151.48791,106.727441 1124.08855,107.942271 C1087.97024,109.538636 1064.11044,135.131529 1067.18794,167.70734 C1070.26544,200.283151 1095.99453,221.318673 1129.17697,219.893296 C1155.15807,218.725755 1176.25248,204.461948 1183.7807,182.386183 C1205.40712,182.217369 1227.03452,182.543214 1248.66291,183.363717 C1236.06637,238.114129 1189.83484,272.280905 1130.27547,274.893666 C1063.55754,277.984342 1009.60958,238.966677 1000.5584,174.777702 C991.461344,110.940233 1041.13278,56.5772425 1120.18716,52.9157469 C1189.24644,49.8267444 1241.05946,87.2609625 1249.3624,141.431913 Z M1368.21732,104.707997 C1430.16881,107.663001 1470.44899,148.6294 1464.1352,197.612595 C1457.8214,246.59579 1414.25055,276.72292 1360.05472,274.126897 C1305.85889,271.530874 1265.77458,237.359092 1264.26407,187.977283 C1262.63078,138.570348 1306.26583,101.752992 1368.21732,104.707997 Z M539.485222,111.493325 C538.140304,165.528316 536.795386,219.563307 535.450468,273.598298 C516.213795,273.174488 497.081978,273.130592 478.055018,273.46661 L475.430344,111.201311 C496.787509,110.872646 518.139135,110.969984 539.485222,111.493325 Z M879.416103,156.241569 C856.492028,156.633913 840.181745,172.10346 841.246678,192.897669 C842.31161,213.691879 859.126335,227.6481 880.481035,227.255757 C901.835736,226.863413 918.314166,212.458799 918.650461,191.60854 C918.930706,170.814331 902.340178,155.849226 879.416103,156.241569 Z M1324.98459,188.070681 C1324.64123,208.878065 1340.81603,223.982843 1362.42204,224.924579 C1384.02805,225.866315 1401.60227,212.627453 1403.27787,191.811253 C1404.92835,171.117838 1389.11697,154.98726 1365.79586,153.924822 C1342.47474,152.862384 1325.32794,167.263296 1324.98459,188.070681 Z M141.104398,111.914499 C131.857667,112.012368 122.564228,112.191137 113.224081,112.450806 C113.720808,127.88205 114.168995,143.285268 114.568643,158.660463 C123.556494,158.413129 132.581042,158.251702 141.642284,158.17618 C159.962103,157.944908 170.800341,150.158149 170.999353,135.12859 C171.198365,120.099032 160.126303,111.700257 141.104398,111.914499 Z M1513.14463,41.6201319 C1535.86861,41.8101279 1551.27629,54.092435 1550.72389,70.9037841 C1550.1715,87.7151332 1534.39814,99.2780342 1513.023,99.2237372 C1491.64785,99.1694402 1475.96172,87.5019352 1475.51248,70.6457145 C1475.08604,53.8406971 1490.42065,41.4301358 1513.14463,41.6201319 Z M507.741347,40.0015385 C530.260586,40.1615807 544.976907,52.486206 544.737532,69.3851447 C544.498158,86.2840834 528.58903,97.6402517 507.509433,97.5431731 C486.429836,97.4460944 470.696589,85.8211032 470.266061,69.0216122 C469.90486,52.1836926 485.222109,39.8414963 507.741347,40.0015385 Z" transform="translate(512 96)"/>
  </g>
</svg>
