<svg xmlns="http://www.w3.org/2000/svg" width="1392" height="288" viewBox="0 0 1392 288">
  <path fill="#FFF" d="M112.685714,220.114286 L112.685714,181.485714 L135.542857,220.114286 L192.685714,220.114286 L164.114286,169.828571 C167.92381,167.085714 171.352381,163.733333 174.4,159.771429 C176.990476,156.266667 179.352381,151.847619 181.485714,146.514286 C183.619048,141.180952 184.685714,134.704762 184.685714,127.085714 C184.685714,117.485714 182.971429,108.990476 179.542857,101.6 C176.114286,94.2095238 171.352381,88 165.257143,82.9714286 C159.161905,77.9428571 151.961905,74.1333333 143.657143,71.5428571 C135.352381,68.952381 126.32381,67.6571429 116.571429,67.6571429 L116.571429,67.6571429 L64,67.6571429 L64,220.114286 L112.685714,220.114286 Z M92.8,201.828571 L86.8571429,201.828571 L86.8571429,85.9428571 L111.542857,85.9428571 C118.704762,85.9428571 125.333333,86.8190476 131.428571,88.5714286 C137.52381,90.3238095 142.819048,92.9142857 147.314286,96.3428571 C151.809524,99.7714286 155.352381,104 157.942857,109.028571 C160.533333,114.057143 161.828571,119.92381 161.828571,126.628571 C161.828571,136.228571 159.390476,144.038095 154.514286,150.057143 C149.638095,156.07619 143.085714,160.533333 134.857143,163.428571 L134.857143,163.428571 L157.714286,201.828571 L150.628571,201.828571 L128.914286,165.257143 C123.27619,166.47619 117.485714,167.085714 111.542857,167.085714 L111.542857,167.085714 L92.8,167.085714 L92.8,201.828571 Z M111.542857,161.6 C125.409524,161.6 136.266667,158.590476 144.114286,152.571429 C151.961905,146.552381 155.885714,137.904762 155.885714,126.628571 C155.885714,115.352381 151.961905,106.666667 144.114286,100.571429 C136.266667,94.4761905 125.409524,91.4285714 111.542857,91.4285714 L111.542857,91.4285714 L92.8,91.4285714 L92.8,161.6 L111.542857,161.6 Z M115.2,142.628571 L112.685714,142.628571 L112.685714,108.8 L115.2,108.8 C120.990476,108.8 125.904762,110.095238 129.942857,112.685714 C133.980952,115.27619 136,119.619048 136,125.714286 C136,131.809524 133.980952,136.152381 129.942857,138.742857 C125.904762,141.333333 120.990476,142.628571 115.2,142.628571 L115.2,142.628571 Z M260.228571,220.114286 L260.228571,163.657143 L287.428571,163.657143 L287.428571,220.114286 L336.342857,220.114286 L336.342857,67.6571429 L287.428571,67.6571429 L287.428571,119.542857 L260.228571,119.542857 L260.228571,67.6571429 L211.542857,67.6571429 L211.542857,220.114286 L260.228571,220.114286 Z M240.342857,201.828571 L234.4,201.828571 L234.4,85.9428571 L240.342857,85.9428571 L240.342857,138.514286 L307.542857,138.514286 L307.542857,85.9428571 L313.485714,85.9428571 L313.485714,201.828571 L307.542857,201.828571 L307.542857,144 L240.342857,144 L240.342857,201.828571 Z M418.285714,220.114286 L418.285714,67.6571429 L366.628571,67.6571429 L366.628571,220.114286 L418.285714,220.114286 Z M395.428571,201.828571 L389.485714,201.828571 L389.485714,85.9428571 L395.428571,85.9428571 L395.428571,201.828571 Z M496.342857,220.114286 L496.342857,161.6 L538.171429,220.114286 L578.4,220.114286 L578.4,67.6571429 L530.628571,67.6571429 L530.628571,126.4 L488.571429,67.6571429 L448.571429,67.6571429 L448.571429,220.114286 L496.342857,220.114286 Z M475.771429,201.828571 L469.828571,201.828571 L469.828571,85.9428571 L475.771429,85.9428571 L551.2,191.542857 L551.2,85.9428571 L557.142857,85.9428571 L557.142857,201.828571 L551.2,201.828571 L475.771429,96.2285714 L475.771429,201.828571 Z M685.257143,224 C696.228571,224 706.590476,221.904762 716.342857,217.714286 C726.095238,213.52381 734.590476,207.809524 741.828571,200.571429 C749.066667,193.333333 754.780952,184.838095 758.971429,175.085714 C763.161905,165.333333 765.257143,154.971429 765.257143,144 C765.257143,133.028571 763.161905,122.666667 758.971429,112.914286 C754.780952,103.161905 749.066667,94.6666667 741.828571,87.4285714 C734.590476,80.1904762 726.095238,74.4761905 716.342857,70.2857143 C706.590476,66.0952381 696.228571,64 685.257143,64 C674.285714,64 663.92381,66.0952381 654.171429,70.2857143 C644.419048,74.4761905 635.92381,80.1904762 628.685714,87.4285714 C621.447619,94.6666667 615.733333,103.161905 611.542857,112.914286 C607.352381,122.666667 605.257143,133.028571 605.257143,144 C605.257143,154.971429 607.352381,165.333333 611.542857,175.085714 C615.733333,184.838095 621.447619,193.333333 628.685714,200.571429 C635.92381,207.809524 644.419048,213.52381 654.171429,217.714286 C663.92381,221.904762 674.285714,224 685.257143,224 Z M685.257143,202.514286 C677.180952,202.514286 669.6,200.990476 662.514286,197.942857 C655.428571,194.895238 649.219048,190.704762 643.885714,185.371429 C638.552381,180.038095 634.361905,173.828571 631.314286,166.742857 C628.266667,159.657143 626.742857,152.07619 626.742857,144 C626.742857,135.92381 628.266667,128.342857 631.314286,121.257143 C634.361905,114.171429 638.552381,107.961905 643.885714,102.628571 C649.219048,97.2952381 655.428571,93.1047619 662.514286,90.0571429 C669.6,87.0095238 677.180952,85.4857143 685.257143,85.4857143 C693.333333,85.4857143 700.914286,87.0095238 708,90.0571429 C715.085714,93.1047619 721.295238,97.2952381 726.628571,102.628571 C731.961905,107.961905 736.152381,114.171429 739.2,121.257143 C742.247619,128.342857 743.771429,135.92381 743.771429,144 C743.771429,152.07619 742.247619,159.657143 739.2,166.742857 C736.152381,173.828571 731.961905,180.038095 726.628571,185.371429 C721.295238,190.704762 715.085714,194.895238 708,197.942857 C700.914286,200.990476 693.333333,202.514286 685.257143,202.514286 Z M685.257143,196.571429 C692.571429,196.571429 699.390476,195.2 705.714286,192.457143 C712.038095,189.714286 717.6,185.942857 722.4,181.142857 C727.2,176.342857 730.971429,170.780952 733.714286,164.457143 C736.457143,158.133333 737.828571,151.314286 737.828571,144 C737.828571,136.685714 736.457143,129.866667 733.714286,123.542857 C730.971429,117.219048 727.2,111.657143 722.4,106.857143 C717.6,102.057143 712.038095,98.2857143 705.714286,95.5428571 C699.390476,92.8 692.571429,91.4285714 685.257143,91.4285714 C677.942857,91.4285714 671.12381,92.8 664.8,95.5428571 C658.47619,98.2857143 652.914286,102.057143 648.114286,106.857143 C643.314286,111.657143 639.542857,117.219048 636.8,123.542857 C634.057143,129.866667 632.685714,136.685714 632.685714,144 C632.685714,151.314286 634.057143,158.133333 636.8,164.457143 C639.542857,170.780952 643.314286,176.342857 648.114286,181.142857 C652.914286,185.942857 658.47619,189.714286 664.8,192.457143 C671.12381,195.2 677.942857,196.571429 685.257143,196.571429 Z M685.257143,176 C680.838095,176 676.685714,175.161905 672.8,173.485714 C668.914286,171.809524 665.52381,169.52381 662.628571,166.628571 C659.733333,163.733333 657.447619,160.342857 655.771429,156.457143 C654.095238,152.571429 653.257143,148.419048 653.257143,144 C653.257143,139.580952 654.095238,135.428571 655.771429,131.542857 C657.447619,127.657143 659.733333,124.266667 662.628571,121.371429 C665.52381,118.47619 668.914286,116.190476 672.8,114.514286 C676.685714,112.838095 680.838095,112 685.257143,112 C689.67619,112 693.828571,112.838095 697.714286,114.514286 C701.6,116.190476 704.990476,118.47619 707.885714,121.371429 C710.780952,124.266667 713.066667,127.657143 714.742857,131.542857 C716.419048,135.428571 717.257143,139.580952 717.257143,144 C717.257143,148.419048 716.419048,152.571429 714.742857,156.457143 C713.066667,160.342857 710.780952,163.733333 707.885714,166.628571 C704.990476,169.52381 701.6,171.809524 697.714286,173.485714 C693.828571,175.161905 689.67619,176 685.257143,176 Z M870.971429,224 C879.809524,224 887.657143,223.085714 894.514286,221.257143 C901.371429,219.428571 907.238095,217.447619 912.114286,215.314286 C917.752381,212.72381 922.628571,209.752381 926.742857,206.4 L926.742857,206.4 L902.742857,164.114286 C900.457143,166.4 897.790476,168.380952 894.742857,170.057143 C892.152381,171.580952 888.952381,172.952381 885.142857,174.171429 C881.333333,175.390476 876.990476,176 872.114286,176 C867.238095,176 862.742857,175.161905 858.628571,173.485714 C854.514286,171.809524 850.933333,169.52381 847.885714,166.628571 C844.838095,163.733333 842.438095,160.342857 840.685714,156.457143 C838.933333,152.571429 838.057143,148.419048 838.057143,144 C838.057143,139.580952 838.895238,135.428571 840.571429,131.542857 C842.247619,127.657143 844.571429,124.266667 847.542857,121.371429 C850.514286,118.47619 853.980952,116.190476 857.942857,114.514286 C861.904762,112.838095 866.247619,112 870.971429,112 C875.542857,112 879.619048,112.571429 883.2,113.714286 C886.780952,114.857143 889.866667,116.038095 892.457143,117.257143 C895.352381,118.933333 898.019048,120.685714 900.457143,122.514286 L900.457143,122.514286 L924.457143,80.2285714 C920.342857,77.3333333 915.466667,74.6666667 909.828571,72.2285714 C904.952381,70.0952381 899.12381,68.1904762 892.342857,66.5142857 C885.561905,64.8380952 877.828571,64 869.142857,64 C858.171429,64 847.809524,65.8666667 838.057143,69.6 C828.304762,73.3333333 819.771429,78.7047619 812.457143,85.7142857 C805.142857,92.7238095 799.352381,101.142857 795.085714,110.971429 C790.819048,120.8 788.685714,131.809524 788.685714,144 C788.685714,155.885714 790.742857,166.742857 794.857143,176.571429 C798.971429,186.4 804.685714,194.819048 812,201.828571 C819.314286,208.838095 828,214.285714 838.057143,218.171429 C848.114286,222.057143 859.085714,224 870.971429,224 Z M871.657143,202.514286 C863.428571,202.514286 855.657143,201.142857 848.342857,198.4 C841.028571,195.657143 834.628571,191.733333 829.142857,186.628571 C823.657143,181.52381 819.352381,175.390476 816.228571,168.228571 C813.104762,161.066667 811.542857,152.990476 811.542857,144 C811.542857,135.161905 813.180952,127.12381 816.457143,119.885714 C819.733333,112.647619 824.07619,106.47619 829.485714,101.371429 C834.895238,96.2666667 841.142857,92.3428571 848.228571,89.6 C855.314286,86.8571429 862.742857,85.4857143 870.514286,85.4857143 C874.933333,85.4857143 878.819048,85.7904762 882.171429,86.4 C885.52381,87.0095238 888.495238,87.6952381 891.085714,88.4571429 C893.828571,89.3714286 896.419048,90.3619048 898.857143,91.4285714 L898.857143,91.4285714 L895.657143,96.9142857 C893.828571,95.847619 891.619048,94.9333333 889.028571,94.1714286 C886.895238,93.4095238 884.266667,92.7619048 881.142857,92.2285714 C878.019048,91.6952381 874.47619,91.4285714 870.514286,91.4285714 C862.438095,91.4285714 855.12381,92.8 848.571429,95.5428571 C842.019048,98.2857143 836.457143,102.019048 831.885714,106.742857 C827.314286,111.466667 823.771429,117.028571 821.257143,123.428571 C818.742857,129.828571 817.485714,136.685714 817.485714,144 C817.485714,151.314286 818.742857,158.171429 821.257143,164.571429 C823.771429,170.971429 827.352381,176.533333 832,181.257143 C836.647619,185.980952 842.32381,189.714286 849.028571,192.457143 C855.733333,195.2 863.27619,196.571429 871.657143,196.571429 C875.92381,196.571429 879.657143,196.228571 882.857143,195.542857 C886.057143,194.857143 888.8,194.057143 891.085714,193.142857 C893.67619,192.228571 895.961905,191.085714 897.942857,189.714286 L897.942857,189.714286 L901.142857,195.2 C898.857143,196.571429 896.266667,197.790476 893.371429,198.857143 C890.780952,199.771429 887.657143,200.609524 884,201.371429 C880.342857,202.133333 876.228571,202.514286 871.657143,202.514286 Z M1009.6,224 C1020.57143,224 1030.93333,221.904762 1040.68571,217.714286 C1050.4381,213.52381 1058.93333,207.809524 1066.17143,200.571429 C1073.40952,193.333333 1079.12381,184.838095 1083.31429,175.085714 C1087.50476,165.333333 1089.6,154.971429 1089.6,144 C1089.6,133.028571 1087.50476,122.666667 1083.31429,112.914286 C1079.12381,103.161905 1073.40952,94.6666667 1066.17143,87.4285714 C1058.93333,80.1904762 1050.4381,74.4761905 1040.68571,70.2857143 C1030.93333,66.0952381 1020.57143,64 1009.6,64 C998.628571,64 988.266667,66.0952381 978.514286,70.2857143 C968.761905,74.4761905 960.266667,80.1904762 953.028571,87.4285714 C945.790476,94.6666667 940.07619,103.161905 935.885714,112.914286 C931.695238,122.666667 929.6,133.028571 929.6,144 C929.6,154.971429 931.695238,165.333333 935.885714,175.085714 C940.07619,184.838095 945.790476,193.333333 953.028571,200.571429 C960.266667,207.809524 968.761905,213.52381 978.514286,217.714286 C988.266667,221.904762 998.628571,224 1009.6,224 Z M1009.6,202.514286 C1001.52381,202.514286 993.942857,200.990476 986.857143,197.942857 C979.771429,194.895238 973.561905,190.704762 968.228571,185.371429 C962.895238,180.038095 958.704762,173.828571 955.657143,166.742857 C952.609524,159.657143 951.085714,152.07619 951.085714,144 C951.085714,135.92381 952.609524,128.342857 955.657143,121.257143 C958.704762,114.171429 962.895238,107.961905 968.228571,102.628571 C973.561905,97.2952381 979.771429,93.1047619 986.857143,90.0571429 C993.942857,87.0095238 1001.52381,85.4857143 1009.6,85.4857143 C1017.67619,85.4857143 1025.25714,87.0095238 1032.34286,90.0571429 C1039.42857,93.1047619 1045.6381,97.2952381 1050.97143,102.628571 C1056.30476,107.961905 1060.49524,114.171429 1063.54286,121.257143 C1066.59048,128.342857 1068.11429,135.92381 1068.11429,144 C1068.11429,152.07619 1066.59048,159.657143 1063.54286,166.742857 C1060.49524,173.828571 1056.30476,180.038095 1050.97143,185.371429 C1045.6381,190.704762 1039.42857,194.895238 1032.34286,197.942857 C1025.25714,200.990476 1017.67619,202.514286 1009.6,202.514286 Z M1009.6,196.571429 C1016.91429,196.571429 1023.73333,195.2 1030.05714,192.457143 C1036.38095,189.714286 1041.94286,185.942857 1046.74286,181.142857 C1051.54286,176.342857 1055.31429,170.780952 1058.05714,164.457143 C1060.8,158.133333 1062.17143,151.314286 1062.17143,144 C1062.17143,136.685714 1060.8,129.866667 1058.05714,123.542857 C1055.31429,117.219048 1051.54286,111.657143 1046.74286,106.857143 C1041.94286,102.057143 1036.38095,98.2857143 1030.05714,95.5428571 C1023.73333,92.8 1016.91429,91.4285714 1009.6,91.4285714 C1002.28571,91.4285714 995.466667,92.8 989.142857,95.5428571 C982.819048,98.2857143 977.257143,102.057143 972.457143,106.857143 C967.657143,111.657143 963.885714,117.219048 961.142857,123.542857 C958.4,129.866667 957.028571,136.685714 957.028571,144 C957.028571,151.314286 958.4,158.133333 961.142857,164.457143 C963.885714,170.780952 967.657143,176.342857 972.457143,181.142857 C977.257143,185.942857 982.819048,189.714286 989.142857,192.457143 C995.466667,195.2 1002.28571,196.571429 1009.6,196.571429 Z M1009.6,176 C1005.18095,176 1001.02857,175.161905 997.142857,173.485714 C993.257143,171.809524 989.866667,169.52381 986.971429,166.628571 C984.07619,163.733333 981.790476,160.342857 980.114286,156.457143 C978.438095,152.571429 977.6,148.419048 977.6,144 C977.6,139.580952 978.438095,135.428571 980.114286,131.542857 C981.790476,127.657143 984.07619,124.266667 986.971429,121.371429 C989.866667,118.47619 993.257143,116.190476 997.142857,114.514286 C1001.02857,112.838095 1005.18095,112 1009.6,112 C1014.01905,112 1018.17143,112.838095 1022.05714,114.514286 C1025.94286,116.190476 1029.33333,118.47619 1032.22857,121.371429 C1035.12381,124.266667 1037.40952,127.657143 1039.08571,131.542857 C1040.7619,135.428571 1041.6,139.580952 1041.6,144 C1041.6,148.419048 1040.7619,152.571429 1039.08571,156.457143 C1037.40952,160.342857 1035.12381,163.733333 1032.22857,166.628571 C1029.33333,169.52381 1025.94286,171.809524 1022.05714,173.485714 C1018.17143,175.161905 1014.01905,176 1009.6,176 Z M1168.11429,220.114286 L1168.11429,67.6571429 L1116.45714,67.6571429 L1116.45714,220.114286 L1168.11429,220.114286 Z M1145.25714,201.828571 L1139.31429,201.828571 L1139.31429,85.9428571 L1145.25714,85.9428571 L1145.25714,201.828571 Z M1246.17143,220.114286 L1246.17143,161.6 L1288,220.114286 L1328.22857,220.114286 L1328.22857,67.6571429 L1280.45714,67.6571429 L1280.45714,126.4 L1238.4,67.6571429 L1198.4,67.6571429 L1198.4,220.114286 L1246.17143,220.114286 Z M1225.6,201.828571 L1219.65714,201.828571 L1219.65714,85.9428571 L1225.6,85.9428571 L1301.02857,191.542857 L1301.02857,85.9428571 L1306.97143,85.9428571 L1306.97143,201.828571 L1301.02857,201.828571 L1225.6,96.2285714 L1225.6,201.828571 Z"/>
</svg>
